<?xml version="1.0" encoding="utf-8" standalone="no"?>
<!DOCTYPE svg PUBLIC "-//W3C//DTD SVG 1.1//EN"
  "http://www.w3.org/Graphics/SVG/1.1/DTD/svg11.dtd">
<svg xmlns:xlink="http://www.w3.org/1999/xlink" width="684pt" height="306.3425pt" viewBox="0 0 684 306.3425" xmlns="http://www.w3.org/2000/svg" version="1.1">
 <metadata>
  <rdf:RDF xmlns:dc="http://purl.org/dc/elements/1.1/" xmlns:cc="http://creativecommons.org/ns#" xmlns:rdf="http://www.w3.org/1999/02/22-rdf-syntax-ns#">
   <cc:Work>
    <dc:type rdf:resource="http://purl.org/dc/dcmitype/StillImage"/>
    <dc:date>2026-05-07T05:00:21.524811</dc:date>
    <dc:format>image/svg+xml</dc:format>
    <dc:creator>
     <cc:Agent>
      <dc:title>Matplotlib v3.10.9, https://matplotlib.org/</dc:title>
     </cc:Agent>
    </dc:creator>
   </cc:Work>
  </rdf:RDF>
 </metadata>
 <defs>
  <style type="text/css">*{stroke-linejoin: round; stroke-linecap: butt}</style>
 </defs>
 <g id="figure_1">
  <g id="patch_1">
   <path d="M 0 306.3425 
L 684 306.3425 
L 684 0 
L 0 0 
z
" style="fill: #f2f2f2"/>
  </g>
  <g id="axes_1">
   <g id="patch_2">
    <path d="M 7.2 284.4 
L 676.8 284.4 
L 676.8 7.2 
L 7.2 7.2 
z
" style="fill: #f2f2f2"/>
   </g>
   <g id="FillBetweenPolyCollection_1"/>
   <g id="FillBetweenPolyCollection_2"/>
   <g id="matplotlib.axis_1">
    <g id="xtick_1">
     <g id="line2d_1">
      <defs>
       <path id="m7d2683936e" d="M 0 0 
L 0 3.5 
" style="stroke: #000000; stroke-width: 0.8"/>
      </defs>
      <g>
       <use xlink:href="#m7d2683936e" x="73.236581" y="284.4" style="stroke: #000000; stroke-width: 0.8"/>
      </g>
     </g>
     <g id="text_1">
      <!-- 15:00 -->
      <g transform="translate(61.709081 297.47875) scale(0.08 -0.08)">
       <defs>
        <path id="DejaVuSans-31" d="M 794 531 
L 1825 531 
L 1825 4091 
L 703 3866 
L 703 4441 
L 1819 4666 
L 2450 4666 
L 2450 531 
L 3481 531 
L 3481 0 
L 794 0 
L 794 531 
z
" transform="scale(0.015625)"/>
        <path id="DejaVuSans-35" d="M 691 4666 
L 3169 4666 
L 3169 4134 
L 1269 4134 
L 1269 2991 
Q 1406 3038 1543 3061 
Q 1681 3084 1819 3084 
Q 2600 3084 3056 2656 
Q 3513 2228 3513 1497 
Q 3513 744 3044 326 
Q 2575 -91 1722 -91 
Q 1428 -91 1123 -41 
Q 819 9 494 109 
L 494 744 
Q 775 591 1075 516 
Q 1375 441 1709 441 
Q 2250 441 2565 725 
Q 2881 1009 2881 1497 
Q 2881 1984 2565 2268 
Q 2250 2553 1709 2553 
Q 1456 2553 1204 2497 
Q 953 2441 691 2322 
L 691 4666 
z
" transform="scale(0.015625)"/>
        <path id="DejaVuSans-3a" d="M 750 794 
L 1409 794 
L 1409 0 
L 750 0 
L 750 794 
z
M 750 3309 
L 1409 3309 
L 1409 2516 
L 750 2516 
L 750 3309 
z
" transform="scale(0.015625)"/>
        <path id="DejaVuSans-30" d="M 2034 4250 
Q 1547 4250 1301 3770 
Q 1056 3291 1056 2328 
Q 1056 1369 1301 889 
Q 1547 409 2034 409 
Q 2525 409 2770 889 
Q 3016 1369 3016 2328 
Q 3016 3291 2770 3770 
Q 2525 4250 2034 4250 
z
M 2034 4750 
Q 2819 4750 3233 4129 
Q 3647 3509 3647 2328 
Q 3647 1150 3233 529 
Q 2819 -91 2034 -91 
Q 1250 -91 836 529 
Q 422 1150 422 2328 
Q 422 3509 836 4129 
Q 1250 4750 2034 4750 
z
" transform="scale(0.015625)"/>
       </defs>
       <use xlink:href="#DejaVuSans-31"/>
       <use xlink:href="#DejaVuSans-35" transform="translate(63.623047 0)"/>
       <use xlink:href="#DejaVuSans-3a" transform="translate(127.246094 0)"/>
       <use xlink:href="#DejaVuSans-30" transform="translate(160.9375 0)"/>
       <use xlink:href="#DejaVuSans-30" transform="translate(224.560547 0)"/>
      </g>
     </g>
    </g>
    <g id="xtick_2">
     <g id="line2d_2">
      <g>
       <use xlink:href="#m7d2683936e" x="146.138051" y="284.4" style="stroke: #000000; stroke-width: 0.8"/>
      </g>
     </g>
     <g id="text_2">
      <!-- 15:30 -->
      <g transform="translate(134.610551 297.47875) scale(0.08 -0.08)">
       <defs>
        <path id="DejaVuSans-33" d="M 2597 2516 
Q 3050 2419 3304 2112 
Q 3559 1806 3559 1356 
Q 3559 666 3084 287 
Q 2609 -91 1734 -91 
Q 1441 -91 1130 -33 
Q 819 25 488 141 
L 488 750 
Q 750 597 1062 519 
Q 1375 441 1716 441 
Q 2309 441 2620 675 
Q 2931 909 2931 1356 
Q 2931 1769 2642 2001 
Q 2353 2234 1838 2234 
L 1294 2234 
L 1294 2753 
L 1863 2753 
Q 2328 2753 2575 2939 
Q 2822 3125 2822 3475 
Q 2822 3834 2567 4026 
Q 2313 4219 1838 4219 
Q 1578 4219 1281 4162 
Q 984 4106 628 3988 
L 628 4550 
Q 988 4650 1302 4700 
Q 1616 4750 1894 4750 
Q 2613 4750 3031 4423 
Q 3450 4097 3450 3541 
Q 3450 3153 3228 2886 
Q 3006 2619 2597 2516 
z
" transform="scale(0.015625)"/>
       </defs>
       <use xlink:href="#DejaVuSans-31"/>
       <use xlink:href="#DejaVuSans-35" transform="translate(63.623047 0)"/>
       <use xlink:href="#DejaVuSans-3a" transform="translate(127.246094 0)"/>
       <use xlink:href="#DejaVuSans-33" transform="translate(160.9375 0)"/>
       <use xlink:href="#DejaVuSans-30" transform="translate(224.560547 0)"/>
      </g>
     </g>
    </g>
    <g id="xtick_3">
     <g id="line2d_3">
      <g>
       <use xlink:href="#m7d2683936e" x="219.039521" y="284.4" style="stroke: #000000; stroke-width: 0.8"/>
      </g>
     </g>
     <g id="text_3">
      <!-- 16:00 -->
      <g transform="translate(207.512021 297.47875) scale(0.08 -0.08)">
       <defs>
        <path id="DejaVuSans-36" d="M 2113 2584 
Q 1688 2584 1439 2293 
Q 1191 2003 1191 1497 
Q 1191 994 1439 701 
Q 1688 409 2113 409 
Q 2538 409 2786 701 
Q 3034 994 3034 1497 
Q 3034 2003 2786 2293 
Q 2538 2584 2113 2584 
z
M 3366 4563 
L 3366 3988 
Q 3128 4100 2886 4159 
Q 2644 4219 2406 4219 
Q 1781 4219 1451 3797 
Q 1122 3375 1075 2522 
Q 1259 2794 1537 2939 
Q 1816 3084 2150 3084 
Q 2853 3084 3261 2657 
Q 3669 2231 3669 1497 
Q 3669 778 3244 343 
Q 2819 -91 2113 -91 
Q 1303 -91 875 529 
Q 447 1150 447 2328 
Q 447 3434 972 4092 
Q 1497 4750 2381 4750 
Q 2619 4750 2861 4703 
Q 3103 4656 3366 4563 
z
" transform="scale(0.015625)"/>
       </defs>
       <use xlink:href="#DejaVuSans-31"/>
       <use xlink:href="#DejaVuSans-36" transform="translate(63.623047 0)"/>
       <use xlink:href="#DejaVuSans-3a" transform="translate(127.246094 0)"/>
       <use xlink:href="#DejaVuSans-30" transform="translate(160.9375 0)"/>
       <use xlink:href="#DejaVuSans-30" transform="translate(224.560547 0)"/>
      </g>
     </g>
    </g>
    <g id="xtick_4">
     <g id="line2d_4">
      <g>
       <use xlink:href="#m7d2683936e" x="291.940991" y="284.4" style="stroke: #000000; stroke-width: 0.8"/>
      </g>
     </g>
     <g id="text_4">
      <!-- 16:30 -->
      <g transform="translate(280.413491 297.47875) scale(0.08 -0.08)">
       <use xlink:href="#DejaVuSans-31"/>
       <use xlink:href="#DejaVuSans-36" transform="translate(63.623047 0)"/>
       <use xlink:href="#DejaVuSans-3a" transform="translate(127.246094 0)"/>
       <use xlink:href="#DejaVuSans-33" transform="translate(160.9375 0)"/>
       <use xlink:href="#DejaVuSans-30" transform="translate(224.560547 0)"/>
      </g>
     </g>
    </g>
    <g id="xtick_5">
     <g id="line2d_5">
      <g>
       <use xlink:href="#m7d2683936e" x="364.842461" y="284.4" style="stroke: #000000; stroke-width: 0.8"/>
      </g>
     </g>
     <g id="text_5">
      <!-- 17:00 -->
      <g transform="translate(353.314961 297.47875) scale(0.08 -0.08)">
       <defs>
        <path id="DejaVuSans-37" d="M 525 4666 
L 3525 4666 
L 3525 4397 
L 1831 0 
L 1172 0 
L 2766 4134 
L 525 4134 
L 525 4666 
z
" transform="scale(0.015625)"/>
       </defs>
       <use xlink:href="#DejaVuSans-31"/>
       <use xlink:href="#DejaVuSans-37" transform="translate(63.623047 0)"/>
       <use xlink:href="#DejaVuSans-3a" transform="translate(127.246094 0)"/>
       <use xlink:href="#DejaVuSans-30" transform="translate(160.9375 0)"/>
       <use xlink:href="#DejaVuSans-30" transform="translate(224.560547 0)"/>
      </g>
     </g>
    </g>
    <g id="xtick_6">
     <g id="line2d_6">
      <g>
       <use xlink:href="#m7d2683936e" x="437.74393" y="284.4" style="stroke: #000000; stroke-width: 0.8"/>
      </g>
     </g>
     <g id="text_6">
      <!-- 17:30 -->
      <g transform="translate(426.21643 297.47875) scale(0.08 -0.08)">
       <use xlink:href="#DejaVuSans-31"/>
       <use xlink:href="#DejaVuSans-37" transform="translate(63.623047 0)"/>
       <use xlink:href="#DejaVuSans-3a" transform="translate(127.246094 0)"/>
       <use xlink:href="#DejaVuSans-33" transform="translate(160.9375 0)"/>
       <use xlink:href="#DejaVuSans-30" transform="translate(224.560547 0)"/>
      </g>
     </g>
    </g>
    <g id="xtick_7">
     <g id="line2d_7">
      <g>
       <use xlink:href="#m7d2683936e" x="510.6454" y="284.4" style="stroke: #000000; stroke-width: 0.8"/>
      </g>
     </g>
     <g id="text_7">
      <!-- 18:00 -->
      <g transform="translate(499.1179 297.47875) scale(0.08 -0.08)">
       <defs>
        <path id="DejaVuSans-38" d="M 2034 2216 
Q 1584 2216 1326 1975 
Q 1069 1734 1069 1313 
Q 1069 891 1326 650 
Q 1584 409 2034 409 
Q 2484 409 2743 651 
Q 3003 894 3003 1313 
Q 3003 1734 2745 1975 
Q 2488 2216 2034 2216 
z
M 1403 2484 
Q 997 2584 770 2862 
Q 544 3141 544 3541 
Q 544 4100 942 4425 
Q 1341 4750 2034 4750 
Q 2731 4750 3128 4425 
Q 3525 4100 3525 3541 
Q 3525 3141 3298 2862 
Q 3072 2584 2669 2484 
Q 3125 2378 3379 2068 
Q 3634 1759 3634 1313 
Q 3634 634 3220 271 
Q 2806 -91 2034 -91 
Q 1263 -91 848 271 
Q 434 634 434 1313 
Q 434 1759 690 2068 
Q 947 2378 1403 2484 
z
M 1172 3481 
Q 1172 3119 1398 2916 
Q 1625 2713 2034 2713 
Q 2441 2713 2670 2916 
Q 2900 3119 2900 3481 
Q 2900 3844 2670 4047 
Q 2441 4250 2034 4250 
Q 1625 4250 1398 4047 
Q 1172 3844 1172 3481 
z
" transform="scale(0.015625)"/>
       </defs>
       <use xlink:href="#DejaVuSans-31"/>
       <use xlink:href="#DejaVuSans-38" transform="translate(63.623047 0)"/>
       <use xlink:href="#DejaVuSans-3a" transform="translate(127.246094 0)"/>
       <use xlink:href="#DejaVuSans-30" transform="translate(160.9375 0)"/>
       <use xlink:href="#DejaVuSans-30" transform="translate(224.560547 0)"/>
      </g>
     </g>
    </g>
    <g id="xtick_8">
     <g id="line2d_8">
      <g>
       <use xlink:href="#m7d2683936e" x="583.54687" y="284.4" style="stroke: #000000; stroke-width: 0.8"/>
      </g>
     </g>
     <g id="text_8">
      <!-- 18:30 -->
      <g transform="translate(572.01937 297.47875) scale(0.08 -0.08)">
       <use xlink:href="#DejaVuSans-31"/>
       <use xlink:href="#DejaVuSans-38" transform="translate(63.623047 0)"/>
       <use xlink:href="#DejaVuSans-3a" transform="translate(127.246094 0)"/>
       <use xlink:href="#DejaVuSans-33" transform="translate(160.9375 0)"/>
       <use xlink:href="#DejaVuSans-30" transform="translate(224.560547 0)"/>
      </g>
     </g>
    </g>
    <g id="xtick_9">
     <g id="line2d_9">
      <g>
       <use xlink:href="#m7d2683936e" x="656.44834" y="284.4" style="stroke: #000000; stroke-width: 0.8"/>
      </g>
     </g>
     <g id="text_9">
      <!-- 19:00 -->
      <g transform="translate(644.92084 297.47875) scale(0.08 -0.08)">
       <defs>
        <path id="DejaVuSans-39" d="M 703 97 
L 703 672 
Q 941 559 1184 500 
Q 1428 441 1663 441 
Q 2288 441 2617 861 
Q 2947 1281 2994 2138 
Q 2813 1869 2534 1725 
Q 2256 1581 1919 1581 
Q 1219 1581 811 2004 
Q 403 2428 403 3163 
Q 403 3881 828 4315 
Q 1253 4750 1959 4750 
Q 2769 4750 3195 4129 
Q 3622 3509 3622 2328 
Q 3622 1225 3098 567 
Q 2575 -91 1691 -91 
Q 1453 -91 1209 -44 
Q 966 3 703 97 
z
M 1959 2075 
Q 2384 2075 2632 2365 
Q 2881 2656 2881 3163 
Q 2881 3666 2632 3958 
Q 2384 4250 1959 4250 
Q 1534 4250 1286 3958 
Q 1038 3666 1038 3163 
Q 1038 2656 1286 2365 
Q 1534 2075 1959 2075 
z
" transform="scale(0.015625)"/>
       </defs>
       <use xlink:href="#DejaVuSans-31"/>
       <use xlink:href="#DejaVuSans-39" transform="translate(63.623047 0)"/>
       <use xlink:href="#DejaVuSans-3a" transform="translate(127.246094 0)"/>
       <use xlink:href="#DejaVuSans-30" transform="translate(160.9375 0)"/>
       <use xlink:href="#DejaVuSans-30" transform="translate(224.560547 0)"/>
      </g>
     </g>
    </g>
   </g>
   <g id="matplotlib.axis_2"/>
   <g id="line2d_10">
    <path d="M 37.636364 234.867904 
L 41.281437 234.867904 
L 42.496462 232.805862 
L 43.711486 232.805862 
L 44.926511 230.74382 
L 46.141535 230.74382 
L 47.35656 228.681778 
L 48.571584 228.681778 
L 49.786609 226.619736 
L 51.001633 226.619736 
L 52.216658 224.557694 
L 53.431682 224.557694 
L 54.646707 222.495652 
L 55.861731 222.495652 
L 57.076756 220.43361 
L 58.29178 220.43361 
L 59.506805 218.371568 
L 60.721829 218.371568 
L 61.936854 216.309526 
L 63.151878 216.309526 
L 64.366903 214.247484 
L 65.581927 214.247484 
L 66.796952 212.185442 
L 68.011976 212.185442 
L 69.227001 210.1234 
L 70.442025 210.1234 
L 71.65705 208.061358 
L 72.872074 208.061358 
L 74.087099 205.999316 
L 75.302123 205.999316 
L 76.517148 203.937274 
L 77.732172 203.937274 
L 78.947197 201.875232 
L 80.162221 201.875232 
L 81.377246 199.81319 
L 82.59227 199.81319 
L 83.807295 197.751148 
L 85.022319 197.751148 
L 86.237343 195.689106 
L 87.452368 195.689106 
L 88.667392 193.627064 
L 89.882417 193.627064 
L 91.097441 191.565022 
L 92.312466 191.565022 
L 93.52749 189.50298 
L 94.742515 189.50298 
L 95.957539 187.440938 
L 97.172564 187.440938 
L 98.387588 185.378896 
L 99.602613 185.378896 
L 100.817637 183.316854 
L 102.032662 183.316854 
L 103.247686 181.254812 
L 104.462711 181.254812 
L 105.677735 179.19277 
L 106.89276 179.19277 
L 108.107784 177.130728 
L 109.322809 177.130728 
L 110.537833 175.068686 
L 111.752858 175.068686 
L 112.967882 173.006644 
L 114.182907 173.006644 
L 115.397931 170.944602 
L 116.612956 170.944602 
L 117.82798 168.88256 
L 119.043005 168.88256 
L 120.258029 166.820518 
L 121.473054 166.820518 
L 122.688078 164.758476 
L 123.903103 164.758476 
L 125.118127 162.696434 
L 126.333152 162.696434 
L 127.548176 160.634392 
L 128.763201 160.634392 
L 129.978225 158.57235 
L 131.19325 158.57235 
L 132.408274 156.510308 
L 133.623299 156.510308 
L 134.838323 154.448266 
L 259.985846 154.448266 
L 261.200871 153.832731 
L 262.415895 153.832731 
L 263.63092 153.217196 
L 264.845944 153.217196 
L 266.060969 152.601661 
L 267.275993 152.601661 
L 268.491018 151.986126 
L 269.706042 151.986126 
L 270.921067 151.370591 
L 272.136091 151.370591 
L 273.351116 150.755056 
L 274.56614 150.755056 
L 275.781165 150.139521 
L 276.996189 150.139521 
L 278.211214 149.523986 
L 279.426238 149.523986 
L 280.641263 148.908451 
L 281.856287 148.908451 
L 283.071312 148.292916 
L 284.286336 148.292916 
L 285.501361 147.677382 
L 286.716385 147.677382 
L 287.93141 147.061847 
L 289.146434 147.061847 
L 290.361459 146.446312 
L 291.576483 146.446312 
L 292.791508 145.830777 
L 294.006532 145.830777 
L 295.221557 145.215242 
L 296.436581 145.215242 
L 297.651606 144.599707 
L 298.86663 144.599707 
L 300.081655 143.984172 
L 301.296679 143.984172 
L 302.511704 143.368637 
L 303.726728 143.368637 
L 304.941753 142.753102 
L 306.156777 142.753102 
L 307.371802 142.137567 
L 308.586826 142.137567 
L 309.801851 141.522032 
L 311.016875 141.522032 
L 312.2319 140.906497 
L 313.446924 140.906497 
L 314.661949 140.290962 
L 315.876973 140.290962 
L 317.091998 139.675427 
L 318.307022 139.675427 
L 319.522047 139.059893 
L 320.737071 139.059893 
L 321.952096 138.444358 
L 323.16712 138.444358 
L 324.382145 137.828823 
L 325.597169 137.828823 
L 326.812194 137.213288 
L 328.027218 137.213288 
L 329.242243 136.597753 
L 332.887316 136.597753 
L 334.102341 134.905032 
L 335.317365 134.905032 
L 336.53239 133.212311 
L 337.747414 133.212311 
L 338.962439 131.51959 
L 340.177463 131.51959 
L 341.392488 129.826869 
L 342.607512 129.826869 
L 343.822537 128.134148 
L 345.037561 128.134148 
L 346.252586 126.441426 
L 347.46761 126.441426 
L 348.682635 124.748705 
L 349.897659 124.748705 
L 351.112684 123.055984 
L 352.327708 123.055984 
L 353.542733 121.363263 
L 354.757757 121.363263 
L 355.972782 119.670542 
L 357.187806 119.670542 
L 358.402831 117.977821 
L 359.617855 117.977821 
L 360.83288 116.2851 
L 362.047904 116.2851 
L 363.262929 114.592379 
L 364.477953 114.592379 
L 365.692978 112.899658 
L 366.908002 112.899658 
L 368.123027 111.206937 
L 369.338051 111.206937 
L 370.553076 109.514216 
L 371.7681 109.514216 
L 372.983125 107.821495 
L 374.198149 107.821495 
L 375.413174 106.128774 
L 376.628198 106.128774 
L 377.843223 104.436053 
L 379.058247 104.436053 
L 380.273272 102.743332 
L 381.488296 102.743332 
L 382.703321 101.050611 
L 383.918345 101.050611 
L 385.13337 99.35789 
L 386.348394 99.35789 
L 387.563419 97.665169 
L 388.778443 97.665169 
L 389.993468 95.972447 
L 391.208492 95.972447 
L 392.423517 94.279726 
L 393.638541 94.279726 
L 394.853566 92.587005 
L 396.06859 92.587005 
L 397.283615 90.894284 
L 398.498639 90.894284 
L 399.713664 89.201563 
L 400.928688 89.201563 
L 402.143713 87.508842 
L 403.358737 87.508842 
L 404.573762 85.816121 
L 405.788786 85.816121 
L 407.003811 84.1234 
L 408.218835 84.1234 
L 409.43386 82.430679 
L 410.648884 82.430679 
L 411.863909 80.737958 
L 413.078933 80.737958 
L 414.293958 79.045237 
L 415.508982 79.045237 
L 416.724007 77.352516 
L 417.939031 77.352516 
L 419.154056 75.659795 
L 420.36908 75.659795 
L 421.584105 73.967074 
L 422.799129 73.967074 
L 424.014154 72.274353 
L 425.229178 72.274353 
L 426.444202 70.581632 
L 427.659227 70.581632 
L 428.874251 68.888911 
L 430.089276 68.888911 
L 431.3043 67.19619 
L 432.519325 67.19619 
L 433.734349 65.503468 
L 434.949374 65.503468 
L 436.164398 63.810747 
L 437.379423 63.810747 
L 438.594447 62.118026 
L 439.809472 62.118026 
L 441.024496 60.425305 
L 442.239521 60.425305 
L 443.454545 58.732584 
L 444.66957 58.732584 
L 445.884594 57.039863 
L 447.099619 57.039863 
L 448.314643 55.347142 
L 449.529668 55.347142 
L 450.744692 53.654421 
L 451.959717 53.654421 
L 453.174741 51.9617 
L 454.389766 51.9617 
L 455.60479 50.268979 
L 456.819815 50.268979 
L 458.034839 48.576258 
L 459.249864 48.576258 
L 460.464888 46.883537 
L 461.679913 46.883537 
L 462.894937 45.190816 
L 464.109962 45.190816 
L 465.324986 43.498095 
L 466.540011 43.498095 
L 467.755035 41.805374 
L 468.97006 41.805374 
L 470.185084 40.112653 
L 471.400109 40.112653 
L 472.615133 38.419932 
L 473.830158 38.419932 
L 475.045182 36.727211 
L 476.260207 36.727211 
L 477.475231 35.034489 
L 478.690256 35.034489 
L 479.90528 33.341768 
L 481.120305 33.341768 
L 482.335329 31.649047 
L 483.550354 31.649047 
L 484.765378 29.956326 
L 485.980403 29.956326 
L 487.195427 28.263605 
L 488.410452 28.263605 
L 489.625476 26.570884 
L 490.840501 26.570884 
L 492.055525 24.878163 
L 493.27055 24.878163 
L 494.485574 23.185442 
L 495.700599 23.185442 
L 496.915623 21.492721 
L 498.130648 21.492721 
L 499.345672 19.8 
L 631.783342 19.8 
L 631.783342 19.8 
" clip-path="url(#p896c40e5e5)" style="fill: none; stroke: #12711c; stroke-width: 5; stroke-linecap: round"/>
   </g>
   <g id="line2d_11">
    <path d="M 40.066413 271.8 
L 41.281437 271.8 
L 42.496462 268.86159 
L 43.711486 268.34608 
L 44.926511 266.507426 
L 46.141535 265.820078 
L 47.35656 264.299322 
L 48.571584 263.526056 
L 49.786609 262.149643 
L 51.001633 261.324827 
L 52.216658 260.029177 
L 53.431682 259.169993 
L 54.646707 257.925403 
L 55.861731 257.041671 
L 57.076756 255.832062 
L 58.29178 254.929919 
L 59.506805 253.745677 
L 60.721829 252.829213 
L 61.936854 251.66416 
L 63.151878 250.736241 
L 64.366903 249.586184 
L 65.581927 248.648892 
L 66.796952 247.510863 
L 68.011976 246.565761 
L 69.227001 245.437586 
L 70.442025 244.485874 
L 71.65705 243.365914 
L 72.872074 242.408537 
L 74.087099 241.295525 
L 75.302123 240.333239 
L 78.947197 237.157694 
L 82.59227 234.116182 
L 86.237343 230.956103 
L 89.882417 227.907963 
L 93.52749 224.758546 
L 97.172564 221.705267 
L 100.817637 218.563627 
L 104.462711 215.506253 
L 106.89276 213.440529 
L 108.107784 212.071887 
L 109.322809 212.071887 
L 110.537833 209.93874 
L 136.053348 209.93874 
L 137.268372 212.071887 
L 138.483397 212.071887 
L 139.698421 214.205033 
L 140.913446 214.205033 
L 142.12847 216.33818 
L 143.343495 216.33818 
L 144.558519 218.471327 
L 145.773544 218.471327 
L 146.988568 220.604474 
L 148.203593 220.604474 
L 149.418617 222.737621 
L 150.633642 222.737621 
L 151.848666 224.870768 
L 153.063691 224.870768 
L 154.278715 227.003915 
L 155.49374 227.003915 
L 156.708764 229.137062 
L 157.923789 229.137062 
L 159.138813 231.270209 
L 160.353838 231.270209 
L 161.568862 233.403356 
L 162.783887 233.403356 
L 163.998911 235.536503 
L 165.213936 235.536503 
L 166.42896 237.669649 
L 167.643985 237.669649 
L 168.859009 239.802796 
L 170.074034 239.802796 
L 171.289058 241.935943 
L 172.504083 241.935943 
L 173.719107 244.06909 
L 174.934132 244.06909 
L 176.149156 246.202237 
L 177.364181 246.202237 
L 178.579205 248.335384 
L 179.79423 248.335384 
L 181.009254 250.468531 
L 182.224279 250.468531 
L 183.439303 252.601678 
L 184.654328 252.601678 
L 185.869352 254.734825 
L 187.084377 254.734825 
L 188.299401 256.867972 
L 189.514426 256.867972 
L 190.72945 259.001119 
L 191.944475 259.001119 
L 193.159499 261.134265 
L 194.374524 261.134265 
L 195.589548 263.267412 
L 196.804573 263.267412 
L 198.019597 265.400559 
L 199.234622 265.400559 
L 200.449646 267.533706 
L 201.664671 267.533706 
L 202.879695 269.666853 
L 204.09472 269.666853 
L 205.309744 271.8 
L 259.985846 271.8 
L 261.200871 271.16324 
L 262.415895 271.16324 
L 263.63092 270.526479 
L 264.845944 270.526479 
L 266.060969 269.889719 
L 267.275993 269.889719 
L 268.491018 269.252959 
L 269.706042 269.252959 
L 270.921067 268.616199 
L 272.136091 268.616199 
L 273.351116 267.979438 
L 274.56614 267.979438 
L 275.781165 267.342678 
L 276.996189 267.342678 
L 278.211214 266.705918 
L 279.426238 266.705918 
L 280.641263 266.069158 
L 281.856287 266.069158 
L 283.071312 265.432397 
L 284.286336 265.432397 
L 285.501361 264.795637 
L 286.716385 264.795637 
L 287.93141 264.158877 
L 289.146434 264.158877 
L 290.361459 263.522116 
L 291.576483 263.522116 
L 292.791508 262.885356 
L 294.006532 262.885356 
L 295.221557 262.248596 
L 296.436581 262.248596 
L 297.651606 261.611836 
L 298.86663 261.611836 
L 300.081655 260.975075 
L 301.296679 260.975075 
L 302.511704 260.338315 
L 303.726728 260.338315 
L 304.941753 259.701555 
L 306.156777 259.701555 
L 307.371802 259.064795 
L 308.586826 259.064795 
L 309.801851 258.428034 
L 311.016875 258.428034 
L 312.2319 257.791274 
L 313.446924 257.791274 
L 314.661949 257.154514 
L 315.876973 257.154514 
L 317.091998 256.517753 
L 318.307022 256.517753 
L 319.522047 255.880993 
L 320.737071 255.880993 
L 321.952096 255.244233 
L 323.16712 255.244233 
L 324.382145 254.607473 
L 325.597169 254.607473 
L 326.812194 253.970712 
L 328.027218 253.970712 
L 329.242243 253.333952 
L 330.457267 253.333952 
L 331.672292 253.970712 
L 332.887316 253.970712 
L 334.102341 252.856382 
L 335.317365 252.856382 
L 336.53239 251.742051 
L 337.747414 251.742051 
L 338.962439 250.627721 
L 340.177463 250.627721 
L 341.392488 249.51339 
L 342.607512 249.51339 
L 343.822537 248.39906 
L 345.037561 248.39906 
L 346.252586 247.28473 
L 347.46761 247.28473 
L 348.682635 246.170399 
L 349.897659 246.170399 
L 351.112684 245.056069 
L 352.327708 245.056069 
L 353.542733 243.941738 
L 354.757757 243.941738 
L 355.972782 242.827408 
L 357.187806 242.827408 
L 358.402831 241.713077 
L 359.617855 241.713077 
L 360.83288 240.598747 
L 362.047904 240.598747 
L 363.262929 239.484416 
L 364.477953 239.484416 
L 365.692978 238.370086 
L 366.908002 238.370086 
L 368.123027 237.255755 
L 369.338051 237.255755 
L 370.553076 236.141425 
L 371.7681 236.141425 
L 372.983125 235.027094 
L 374.198149 235.027094 
L 375.413174 233.912764 
L 376.628198 233.912764 
L 377.843223 232.798433 
L 379.058247 232.798433 
L 380.273272 231.684103 
L 381.488296 231.684103 
L 382.703321 230.569772 
L 383.918345 230.569772 
L 385.13337 229.455442 
L 386.348394 229.455442 
L 387.563419 228.341111 
L 388.778443 228.341111 
L 389.993468 227.226781 
L 391.208492 227.226781 
L 392.423517 226.112451 
L 393.638541 226.112451 
L 394.853566 224.99812 
L 396.06859 224.99812 
L 397.283615 223.88379 
L 398.498639 223.88379 
L 399.713664 222.769459 
L 400.928688 222.769459 
L 402.143713 221.018368 
L 500.560697 221.018368 
L 501.775721 222.769459 
L 502.990746 222.769459 
L 504.20577 224.52055 
L 505.420795 224.52055 
L 506.635819 226.271641 
L 507.850844 226.271641 
L 509.065868 228.022731 
L 510.280893 228.022731 
L 511.495917 229.773822 
L 512.710942 229.773822 
L 513.925966 231.524913 
L 515.140991 231.524913 
L 516.356015 233.276004 
L 517.57104 233.276004 
L 518.786064 235.027094 
L 520.001089 235.027094 
L 521.216113 236.778185 
L 522.431138 236.778185 
L 523.646162 238.529276 
L 524.861187 238.529276 
L 526.076211 240.280367 
L 527.291236 240.280367 
L 528.50626 242.031457 
L 529.721285 242.031457 
L 530.936309 243.782548 
L 532.151334 243.782548 
L 533.366358 245.533639 
L 534.581383 245.533639 
L 535.796407 247.28473 
L 537.011432 247.28473 
L 538.226456 249.03582 
L 539.441481 249.03582 
L 540.656505 250.786911 
L 541.87153 250.786911 
L 543.086554 252.538002 
L 544.301579 252.538002 
L 545.516603 254.289093 
L 546.731628 254.289093 
L 547.946652 256.040183 
L 549.161677 256.040183 
L 550.376701 257.791274 
L 551.591726 257.791274 
L 552.80675 259.542365 
L 554.021775 259.542365 
L 555.236799 261.293456 
L 556.451824 261.293456 
L 557.666848 263.044546 
L 558.881873 263.044546 
L 560.096897 264.795637 
L 561.311922 264.795637 
L 562.526946 266.546728 
L 563.741971 266.546728 
L 564.956995 268.297819 
L 566.17202 268.297819 
L 567.387044 270.048909 
L 568.602069 270.048909 
L 569.817093 271.8 
L 646.363636 271.8 
L 646.363636 271.8 
" clip-path="url(#p896c40e5e5)" style="fill: none; stroke: #001c7f; stroke-opacity: 0; stroke-width: 5; stroke-linecap: round"/>
   </g>
   <g id="patch_3">
    <path d="M 7.2 284.4 
L 7.2 7.2 
" style="fill: none; stroke: #000000; stroke-width: 0.8; stroke-linejoin: miter; stroke-linecap: square"/>
   </g>
   <g id="patch_4">
    <path d="M 676.8 284.4 
L 676.8 7.2 
" style="fill: none; stroke: #000000; stroke-width: 0.8; stroke-linejoin: miter; stroke-linecap: square"/>
   </g>
   <g id="patch_5">
    <path d="M 7.2 284.4 
L 676.8 284.4 
" style="fill: none; stroke: #000000; stroke-width: 0.8; stroke-linejoin: miter; stroke-linecap: square"/>
   </g>
   <g id="patch_6">
    <path d="M 7.2 7.2 
L 676.8 7.2 
" style="fill: none; stroke: #000000; stroke-width: 0.8; stroke-linejoin: miter; stroke-linecap: square"/>
   </g>
  </g>
 </g>
 <defs>
  <clipPath id="p896c40e5e5">
   <rect x="7.2" y="7.2" width="669.6" height="277.2"/>
  </clipPath>
 </defs>
</svg>
