<?xml version="1.0" encoding="utf-8" standalone="no"?>
<!DOCTYPE svg PUBLIC "-//W3C//DTD SVG 1.1//EN"
  "http://www.w3.org/Graphics/SVG/1.1/DTD/svg11.dtd">
<svg xmlns:xlink="http://www.w3.org/1999/xlink" width="684pt" height="308.8425pt" viewBox="0 0 684 308.8425" xmlns="http://www.w3.org/2000/svg" version="1.1">
 <metadata>
  <rdf:RDF xmlns:dc="http://purl.org/dc/elements/1.1/" xmlns:cc="http://creativecommons.org/ns#" xmlns:rdf="http://www.w3.org/1999/02/22-rdf-syntax-ns#">
   <cc:Work>
    <dc:type rdf:resource="http://purl.org/dc/dcmitype/StillImage"/>
    <dc:date>2026-05-07T17:34:46.681052</dc:date>
    <dc:format>image/svg+xml</dc:format>
    <dc:creator>
     <cc:Agent>
      <dc:title>Matplotlib v3.10.9, https://matplotlib.org/</dc:title>
     </cc:Agent>
    </dc:creator>
   </cc:Work>
  </rdf:RDF>
 </metadata>
 <defs>
  <style type="text/css">*{stroke-linejoin: round; stroke-linecap: butt}</style>
 </defs>
 <g id="figure_1">
  <g id="patch_1">
   <path d="M 0 308.8425 
L 684 308.8425 
L 684 0 
L 0 0 
z
" style="fill: #f2f2f2"/>
  </g>
  <g id="axes_1">
   <g id="patch_2">
    <path d="M 7.2 284.4 
L 676.8 284.4 
L 676.8 7.2 
L 7.2 7.2 
z
" style="fill: #f2f2f2"/>
   </g>
   <g id="matplotlib.axis_1">
    <g id="xtick_1">
     <g id="line2d_1">
      <defs>
       <path id="mf2cd1c5733" d="M 0 0 
L 0 6 
" style="stroke: #262626; stroke-width: 1.25"/>
      </defs>
      <g>
       <use xlink:href="#mf2cd1c5733" x="78.505996" y="284.4" style="fill: #262626; stroke: #262626; stroke-width: 1.25"/>
      </g>
     </g>
     <g id="text_1">
      <!-- 17:50 -->
      <g style="fill: #262626" transform="translate(66.978496 299.97875) scale(0.08 -0.08)">
       <defs>
        <path id="DejaVuSans-31" d="M 794 531 
L 1825 531 
L 1825 4091 
L 703 3866 
L 703 4441 
L 1819 4666 
L 2450 4666 
L 2450 531 
L 3481 531 
L 3481 0 
L 794 0 
L 794 531 
z
" transform="scale(0.015625)"/>
        <path id="DejaVuSans-37" d="M 525 4666 
L 3525 4666 
L 3525 4397 
L 1831 0 
L 1172 0 
L 2766 4134 
L 525 4134 
L 525 4666 
z
" transform="scale(0.015625)"/>
        <path id="DejaVuSans-3a" d="M 750 794 
L 1409 794 
L 1409 0 
L 750 0 
L 750 794 
z
M 750 3309 
L 1409 3309 
L 1409 2516 
L 750 2516 
L 750 3309 
z
" transform="scale(0.015625)"/>
        <path id="DejaVuSans-35" d="M 691 4666 
L 3169 4666 
L 3169 4134 
L 1269 4134 
L 1269 2991 
Q 1406 3038 1543 3061 
Q 1681 3084 1819 3084 
Q 2600 3084 3056 2656 
Q 3513 2228 3513 1497 
Q 3513 744 3044 326 
Q 2575 -91 1722 -91 
Q 1428 -91 1123 -41 
Q 819 9 494 109 
L 494 744 
Q 775 591 1075 516 
Q 1375 441 1709 441 
Q 2250 441 2565 725 
Q 2881 1009 2881 1497 
Q 2881 1984 2565 2268 
Q 2250 2553 1709 2553 
Q 1456 2553 1204 2497 
Q 953 2441 691 2322 
L 691 4666 
z
" transform="scale(0.015625)"/>
        <path id="DejaVuSans-30" d="M 2034 4250 
Q 1547 4250 1301 3770 
Q 1056 3291 1056 2328 
Q 1056 1369 1301 889 
Q 1547 409 2034 409 
Q 2525 409 2770 889 
Q 3016 1369 3016 2328 
Q 3016 3291 2770 3770 
Q 2525 4250 2034 4250 
z
M 2034 4750 
Q 2819 4750 3233 4129 
Q 3647 3509 3647 2328 
Q 3647 1150 3233 529 
Q 2819 -91 2034 -91 
Q 1250 -91 836 529 
Q 422 1150 422 2328 
Q 422 3509 836 4129 
Q 1250 4750 2034 4750 
z
" transform="scale(0.015625)"/>
       </defs>
       <use xlink:href="#DejaVuSans-31"/>
       <use xlink:href="#DejaVuSans-37" transform="translate(63.623047 0)"/>
       <use xlink:href="#DejaVuSans-3a" transform="translate(127.246094 0)"/>
       <use xlink:href="#DejaVuSans-35" transform="translate(160.9375 0)"/>
       <use xlink:href="#DejaVuSans-30" transform="translate(224.560547 0)"/>
      </g>
     </g>
    </g>
    <g id="xtick_2">
     <g id="line2d_2">
      <g>
       <use xlink:href="#mf2cd1c5733" x="164.85029" y="284.4" style="fill: #262626; stroke: #262626; stroke-width: 1.25"/>
      </g>
     </g>
     <g id="text_2">
      <!-- 18:00 -->
      <g style="fill: #262626" transform="translate(153.32279 299.97875) scale(0.08 -0.08)">
       <defs>
        <path id="DejaVuSans-38" d="M 2034 2216 
Q 1584 2216 1326 1975 
Q 1069 1734 1069 1313 
Q 1069 891 1326 650 
Q 1584 409 2034 409 
Q 2484 409 2743 651 
Q 3003 894 3003 1313 
Q 3003 1734 2745 1975 
Q 2488 2216 2034 2216 
z
M 1403 2484 
Q 997 2584 770 2862 
Q 544 3141 544 3541 
Q 544 4100 942 4425 
Q 1341 4750 2034 4750 
Q 2731 4750 3128 4425 
Q 3525 4100 3525 3541 
Q 3525 3141 3298 2862 
Q 3072 2584 2669 2484 
Q 3125 2378 3379 2068 
Q 3634 1759 3634 1313 
Q 3634 634 3220 271 
Q 2806 -91 2034 -91 
Q 1263 -91 848 271 
Q 434 634 434 1313 
Q 434 1759 690 2068 
Q 947 2378 1403 2484 
z
M 1172 3481 
Q 1172 3119 1398 2916 
Q 1625 2713 2034 2713 
Q 2441 2713 2670 2916 
Q 2900 3119 2900 3481 
Q 2900 3844 2670 4047 
Q 2441 4250 2034 4250 
Q 1625 4250 1398 4047 
Q 1172 3844 1172 3481 
z
" transform="scale(0.015625)"/>
       </defs>
       <use xlink:href="#DejaVuSans-31"/>
       <use xlink:href="#DejaVuSans-38" transform="translate(63.623047 0)"/>
       <use xlink:href="#DejaVuSans-3a" transform="translate(127.246094 0)"/>
       <use xlink:href="#DejaVuSans-30" transform="translate(160.9375 0)"/>
       <use xlink:href="#DejaVuSans-30" transform="translate(224.560547 0)"/>
      </g>
     </g>
    </g>
    <g id="xtick_3">
     <g id="line2d_3">
      <g>
       <use xlink:href="#mf2cd1c5733" x="251.194584" y="284.4" style="fill: #262626; stroke: #262626; stroke-width: 1.25"/>
      </g>
     </g>
     <g id="text_3">
      <!-- 18:10 -->
      <g style="fill: #262626" transform="translate(239.667084 299.97875) scale(0.08 -0.08)">
       <use xlink:href="#DejaVuSans-31"/>
       <use xlink:href="#DejaVuSans-38" transform="translate(63.623047 0)"/>
       <use xlink:href="#DejaVuSans-3a" transform="translate(127.246094 0)"/>
       <use xlink:href="#DejaVuSans-31" transform="translate(160.9375 0)"/>
       <use xlink:href="#DejaVuSans-30" transform="translate(224.560547 0)"/>
      </g>
     </g>
    </g>
    <g id="xtick_4">
     <g id="line2d_4">
      <g>
       <use xlink:href="#mf2cd1c5733" x="337.538878" y="284.4" style="fill: #262626; stroke: #262626; stroke-width: 1.25"/>
      </g>
     </g>
     <g id="text_4">
      <!-- 18:20 -->
      <g style="fill: #262626" transform="translate(326.011378 299.97875) scale(0.08 -0.08)">
       <defs>
        <path id="DejaVuSans-32" d="M 1228 531 
L 3431 531 
L 3431 0 
L 469 0 
L 469 531 
Q 828 903 1448 1529 
Q 2069 2156 2228 2338 
Q 2531 2678 2651 2914 
Q 2772 3150 2772 3378 
Q 2772 3750 2511 3984 
Q 2250 4219 1831 4219 
Q 1534 4219 1204 4116 
Q 875 4013 500 3803 
L 500 4441 
Q 881 4594 1212 4672 
Q 1544 4750 1819 4750 
Q 2544 4750 2975 4387 
Q 3406 4025 3406 3419 
Q 3406 3131 3298 2873 
Q 3191 2616 2906 2266 
Q 2828 2175 2409 1742 
Q 1991 1309 1228 531 
z
" transform="scale(0.015625)"/>
       </defs>
       <use xlink:href="#DejaVuSans-31"/>
       <use xlink:href="#DejaVuSans-38" transform="translate(63.623047 0)"/>
       <use xlink:href="#DejaVuSans-3a" transform="translate(127.246094 0)"/>
       <use xlink:href="#DejaVuSans-32" transform="translate(160.9375 0)"/>
       <use xlink:href="#DejaVuSans-30" transform="translate(224.560547 0)"/>
      </g>
     </g>
    </g>
    <g id="xtick_5">
     <g id="line2d_5">
      <g>
       <use xlink:href="#mf2cd1c5733" x="423.883172" y="284.4" style="fill: #262626; stroke: #262626; stroke-width: 1.25"/>
      </g>
     </g>
     <g id="text_5">
      <!-- 18:30 -->
      <g style="fill: #262626" transform="translate(412.355672 299.97875) scale(0.08 -0.08)">
       <defs>
        <path id="DejaVuSans-33" d="M 2597 2516 
Q 3050 2419 3304 2112 
Q 3559 1806 3559 1356 
Q 3559 666 3084 287 
Q 2609 -91 1734 -91 
Q 1441 -91 1130 -33 
Q 819 25 488 141 
L 488 750 
Q 750 597 1062 519 
Q 1375 441 1716 441 
Q 2309 441 2620 675 
Q 2931 909 2931 1356 
Q 2931 1769 2642 2001 
Q 2353 2234 1838 2234 
L 1294 2234 
L 1294 2753 
L 1863 2753 
Q 2328 2753 2575 2939 
Q 2822 3125 2822 3475 
Q 2822 3834 2567 4026 
Q 2313 4219 1838 4219 
Q 1578 4219 1281 4162 
Q 984 4106 628 3988 
L 628 4550 
Q 988 4650 1302 4700 
Q 1616 4750 1894 4750 
Q 2613 4750 3031 4423 
Q 3450 4097 3450 3541 
Q 3450 3153 3228 2886 
Q 3006 2619 2597 2516 
z
" transform="scale(0.015625)"/>
       </defs>
       <use xlink:href="#DejaVuSans-31"/>
       <use xlink:href="#DejaVuSans-38" transform="translate(63.623047 0)"/>
       <use xlink:href="#DejaVuSans-3a" transform="translate(127.246094 0)"/>
       <use xlink:href="#DejaVuSans-33" transform="translate(160.9375 0)"/>
       <use xlink:href="#DejaVuSans-30" transform="translate(224.560547 0)"/>
      </g>
     </g>
    </g>
    <g id="xtick_6">
     <g id="line2d_6">
      <g>
       <use xlink:href="#mf2cd1c5733" x="510.227466" y="284.4" style="fill: #262626; stroke: #262626; stroke-width: 1.25"/>
      </g>
     </g>
     <g id="text_6">
      <!-- 18:40 -->
      <g style="fill: #262626" transform="translate(498.699966 299.97875) scale(0.08 -0.08)">
       <defs>
        <path id="DejaVuSans-34" d="M 2419 4116 
L 825 1625 
L 2419 1625 
L 2419 4116 
z
M 2253 4666 
L 3047 4666 
L 3047 1625 
L 3713 1625 
L 3713 1100 
L 3047 1100 
L 3047 0 
L 2419 0 
L 2419 1100 
L 313 1100 
L 313 1709 
L 2253 4666 
z
" transform="scale(0.015625)"/>
       </defs>
       <use xlink:href="#DejaVuSans-31"/>
       <use xlink:href="#DejaVuSans-38" transform="translate(63.623047 0)"/>
       <use xlink:href="#DejaVuSans-3a" transform="translate(127.246094 0)"/>
       <use xlink:href="#DejaVuSans-34" transform="translate(160.9375 0)"/>
       <use xlink:href="#DejaVuSans-30" transform="translate(224.560547 0)"/>
      </g>
     </g>
    </g>
    <g id="xtick_7">
     <g id="line2d_7">
      <g>
       <use xlink:href="#mf2cd1c5733" x="596.57176" y="284.4" style="fill: #262626; stroke: #262626; stroke-width: 1.25"/>
      </g>
     </g>
     <g id="text_7">
      <!-- 18:50 -->
      <g style="fill: #262626" transform="translate(585.04426 299.97875) scale(0.08 -0.08)">
       <use xlink:href="#DejaVuSans-31"/>
       <use xlink:href="#DejaVuSans-38" transform="translate(63.623047 0)"/>
       <use xlink:href="#DejaVuSans-3a" transform="translate(127.246094 0)"/>
       <use xlink:href="#DejaVuSans-35" transform="translate(160.9375 0)"/>
       <use xlink:href="#DejaVuSans-30" transform="translate(224.560547 0)"/>
      </g>
     </g>
    </g>
   </g>
   <g id="matplotlib.axis_2"/>
   <g id="FillBetweenPolyCollection_1"/>
   <g id="FillBetweenPolyCollection_2"/>
   <g id="line2d_8">
    <path d="M 37.636364 82.8 
L 128.297872 82.8 
L 132.615087 19.8 
L 594.55706 19.8 
L 594.55706 19.8 
" clip-path="url(#p4dbfb77e78)" style="fill: none; stroke: #12711c; stroke-width: 2; stroke-linecap: round"/>
   </g>
   <g id="line2d_9">
    <path d="M 46.270793 271.8 
L 128.297872 271.8 
L 132.615087 204.409091 
L 136.932302 201.545455 
L 141.249516 204.775 
L 145.566731 202.15 
L 149.883946 205.084615 
L 154.201161 202.661538 
L 158.518375 205.35 
L 162.83559 203.1 
L 167.152805 205.58 
L 171.470019 203.48 
L 175.787234 205.78125 
L 180.104449 203.8125 
L 184.421663 205.958824 
L 188.738878 204.105882 
L 193.056093 206.116667 
L 197.373308 204.366667 
L 201.690522 206.257895 
L 206.007737 204.6 
L 210.324952 206.385 
L 214.642166 204.81 
L 218.959381 206.5 
L 223.276596 205 
L 227.59381 206.604545 
L 231.911025 205.172727 
L 236.22824 206.7 
L 240.545455 205.330435 
L 244.862669 206.7875 
L 249.179884 205.475 
L 253.497099 206.868 
L 257.814313 205.608 
L 262.131528 206.942308 
L 266.448743 205.730769 
L 270.765957 207.011111 
L 275.083172 205.844444 
L 279.400387 207.075 
L 283.717602 205.95 
L 288.034816 206.627586 
L 378.696325 206.627586 
L 383.01354 271.8 
L 646.363636 271.8 
L 646.363636 271.8 
" clip-path="url(#p4dbfb77e78)" style="fill: none; stroke: #001c7f; stroke-opacity: 0; stroke-width: 2; stroke-linecap: round"/>
   </g>
   <g id="patch_3">
    <path d="M 7.2 284.4 
L 7.2 7.2 
" style="fill: none; stroke: #262626; stroke-width: 1.25; stroke-linejoin: miter; stroke-linecap: square"/>
   </g>
   <g id="patch_4">
    <path d="M 676.8 284.4 
L 676.8 7.2 
" style="fill: none; stroke: #262626; stroke-width: 1.25; stroke-linejoin: miter; stroke-linecap: square"/>
   </g>
   <g id="patch_5">
    <path d="M 7.2 284.4 
L 676.8 284.4 
" style="fill: none; stroke: #262626; stroke-width: 1.25; stroke-linejoin: miter; stroke-linecap: square"/>
   </g>
   <g id="patch_6">
    <path d="M 7.2 7.2 
L 676.8 7.2 
" style="fill: none; stroke: #262626; stroke-width: 1.25; stroke-linejoin: miter; stroke-linecap: square"/>
   </g>
   <g id="legend_1">
    <g id="patch_7">
     <path d="M 14.9 31.754062 
L 96.312031 31.754062 
Q 98.512031 31.754062 98.512031 29.554062 
L 98.512031 14.9 
Q 98.512031 12.7 96.312031 12.7 
L 14.9 12.7 
Q 12.7 12.7 12.7 14.9 
L 12.7 29.554062 
Q 12.7 31.754062 14.9 31.754062 
z
" style="fill: #ffffff; opacity: 0.8; stroke: #cccccc; stroke-linejoin: miter"/>
    </g>
    <g id="line2d_10">
     <path d="M 17.1 21.221562 
L 28.1 21.221562 
L 39.1 21.221562 
" style="fill: none; stroke: #12711c; stroke-width: 2; stroke-linecap: round"/>
    </g>
    <g id="text_8">
     <!-- counter -->
     <g style="fill: #262626" transform="translate(47.9 25.071562) scale(0.11 -0.11)">
      <defs>
       <path id="LiberationMono-63" d="M 406 1694 
Q 406 2538 809 2991 
Q 1213 3444 1975 3444 
Q 2544 3444 2912 3170 
Q 3281 2897 3369 2434 
L 2769 2391 
Q 2719 2675 2519 2839 
Q 2319 3003 1950 3003 
Q 1456 3003 1226 2697 
Q 997 2391 997 1706 
Q 997 1013 1226 692 
Q 1456 372 1947 372 
Q 2284 372 2506 537 
Q 2728 703 2781 1044 
L 3375 1006 
Q 3334 706 3148 461 
Q 2963 216 2656 76 
Q 2350 -63 1972 -63 
Q 1206 -63 806 387 
Q 406 838 406 1694 
z
" transform="scale(0.015625)"/>
       <path id="LiberationMono-6f" d="M 3428 1694 
Q 3428 841 3036 389 
Q 2644 -63 1903 -63 
Q 1178 -63 792 393 
Q 406 850 406 1694 
Q 406 2566 801 3005 
Q 1197 3444 1922 3444 
Q 2684 3444 3056 3009 
Q 3428 2575 3428 1694 
z
M 2838 1694 
Q 2838 2366 2623 2697 
Q 2409 3028 1931 3028 
Q 1447 3028 1222 2690 
Q 997 2353 997 1694 
Q 997 1038 1222 695 
Q 1447 353 1897 353 
Q 2394 353 2616 687 
Q 2838 1022 2838 1694 
z
" transform="scale(0.015625)"/>
       <path id="LiberationMono-75" d="M 1141 3381 
L 1141 1238 
Q 1141 750 1294 561 
Q 1447 372 1841 372 
Q 2244 372 2478 647 
Q 2713 922 2713 1422 
L 2713 3381 
L 3278 3381 
L 3278 722 
Q 3278 131 3297 0 
L 2766 0 
Q 2763 16 2759 84 
Q 2756 153 2751 242 
Q 2747 331 2741 578 
L 2731 578 
Q 2538 228 2283 82 
Q 2028 -63 1650 -63 
Q 1094 -63 836 214 
Q 578 491 578 1128 
L 578 3381 
L 1141 3381 
z
" transform="scale(0.015625)"/>
       <path id="LiberationMono-6e" d="M 2713 0 
L 2713 2172 
Q 2713 2597 2548 2803 
Q 2384 3009 2025 3009 
Q 1638 3009 1389 2726 
Q 1141 2444 1141 1959 
L 1141 0 
L 578 0 
L 578 2659 
Q 578 3250 559 3381 
L 1091 3381 
Q 1094 3366 1097 3297 
Q 1100 3228 1104 3139 
Q 1109 3050 1116 2803 
L 1125 2803 
Q 1453 3444 2206 3444 
Q 2747 3444 3012 3151 
Q 3278 2859 3278 2253 
L 3278 0 
L 2713 0 
z
" transform="scale(0.015625)"/>
       <path id="LiberationMono-74" d="M 594 2938 
L 594 3381 
L 1125 3381 
L 1306 4263 
L 1681 4263 
L 1681 3381 
L 3031 3381 
L 3031 2938 
L 1681 2938 
L 1681 900 
Q 1681 653 1814 534 
Q 1947 416 2250 416 
Q 2669 416 3178 522 
L 3178 94 
Q 2650 -50 2131 -50 
Q 1625 -50 1372 164 
Q 1119 378 1119 841 
L 1119 2938 
L 594 2938 
z
" transform="scale(0.015625)"/>
       <path id="LiberationMono-65" d="M 1006 1572 
Q 1006 1003 1257 681 
Q 1509 359 1947 359 
Q 2269 359 2511 498 
Q 2753 638 2834 878 
L 3328 738 
Q 3191 350 2823 143 
Q 2456 -63 1947 -63 
Q 1209 -63 812 396 
Q 416 856 416 1713 
Q 416 2547 805 2995 
Q 1194 3444 1928 3444 
Q 2663 3444 3041 2997 
Q 3419 2550 3419 1647 
L 3419 1572 
L 1006 1572 
z
M 1934 3028 
Q 1516 3028 1272 2754 
Q 1028 2481 1013 2003 
L 2838 2003 
Q 2750 3028 1934 3028 
z
" transform="scale(0.015625)"/>
       <path id="LiberationMono-72" d="M 3266 2869 
Q 2916 2928 2603 2928 
Q 2100 2928 1790 2550 
Q 1481 2172 1481 1588 
L 1481 0 
L 919 0 
L 919 2191 
Q 919 2428 876 2750 
Q 834 3072 756 3381 
L 1291 3381 
Q 1416 2950 1441 2600 
L 1456 2600 
Q 1613 2950 1763 3114 
Q 1913 3278 2119 3361 
Q 2325 3444 2622 3444 
Q 2947 3444 3266 3391 
L 3266 2869 
z
" transform="scale(0.015625)"/>
      </defs>
      <use xlink:href="#LiberationMono-63"/>
      <use xlink:href="#LiberationMono-6f" transform="translate(60.009766 0)"/>
      <use xlink:href="#LiberationMono-75" transform="translate(120.019531 0)"/>
      <use xlink:href="#LiberationMono-6e" transform="translate(180.029297 0)"/>
      <use xlink:href="#LiberationMono-74" transform="translate(240.039062 0)"/>
      <use xlink:href="#LiberationMono-65" transform="translate(300.048828 0)"/>
      <use xlink:href="#LiberationMono-72" transform="translate(360.058594 0)"/>
     </g>
    </g>
   </g>
  </g>
 </g>
 <defs>
  <clipPath id="p4dbfb77e78">
   <rect x="7.2" y="7.2" width="669.6" height="277.2"/>
  </clipPath>
 </defs>
</svg>
