<svg version="1.1" xmlns="http://www.w3.org/2000/svg" xmlns:xlink="http://www.w3.org/1999/xlink" width="1200" height="800"><defs/><g transform="scale(2,2)"><g id="background-1621a23a"><rect fill="white" stroke="none" x="0" y="0" width="600" height="400" class="dcg-svg-background"/></g><g id="graphpaper-1621a23a"><g id="grid-1621a23a"><g><path fill="none" stroke="rgb(0,0,0)" class="dcg-svg-minor-gridline" paint-order="fill stroke markers" d=" M 4.5 0 L 4.5 400" stroke-opacity="0.2" stroke-miterlimit="10" stroke-dasharray=""/><path fill="none" stroke="rgb(0,0,0)" class="dcg-svg-minor-gridline" paint-order="fill stroke markers" d=" M 32.5 0 L 32.5 400" stroke-opacity="0.2" stroke-miterlimit="10" stroke-dasharray=""/><path fill="none" stroke="rgb(0,0,0)" class="dcg-svg-minor-gridline" paint-order="fill stroke markers" d=" M 59.5 0 L 59.5 400" stroke-opacity="0.2" stroke-miterlimit="10" stroke-dasharray=""/><path fill="none" stroke="rgb(0,0,0)" class="dcg-svg-minor-gridline" paint-order="fill stroke markers" d=" M 87.5 0 L 87.5 400" stroke-opacity="0.2" stroke-miterlimit="10" stroke-dasharray=""/><path fill="none" stroke="rgb(0,0,0)" class="dcg-svg-minor-gridline" paint-order="fill stroke markers" d=" M 114.5 0 L 114.5 400" stroke-opacity="0.2" stroke-miterlimit="10" stroke-dasharray=""/><path fill="none" stroke="rgb(0,0,0)" class="dcg-svg-minor-gridline" paint-order="fill stroke markers" d=" M 142.5 0 L 142.5 400" stroke-opacity="0.2" stroke-miterlimit="10" stroke-dasharray=""/><path fill="none" stroke="rgb(0,0,0)" class="dcg-svg-minor-gridline" paint-order="fill stroke markers" d=" M 197.5 0 L 197.5 400" stroke-opacity="0.2" stroke-miterlimit="10" stroke-dasharray=""/><path fill="none" stroke="rgb(0,0,0)" class="dcg-svg-minor-gridline" paint-order="fill stroke markers" d=" M 224.5 0 L 224.5 400" stroke-opacity="0.2" stroke-miterlimit="10" stroke-dasharray=""/><path fill="none" stroke="rgb(0,0,0)" class="dcg-svg-minor-gridline" paint-order="fill stroke markers" d=" M 252.5 0 L 252.5 400" stroke-opacity="0.2" stroke-miterlimit="10" stroke-dasharray=""/><path fill="none" stroke="rgb(0,0,0)" class="dcg-svg-minor-gridline" paint-order="fill stroke markers" d=" M 279.5 0 L 279.5 400" stroke-opacity="0.2" stroke-miterlimit="10" stroke-dasharray=""/><path fill="none" stroke="rgb(0,0,0)" class="dcg-svg-minor-gridline" paint-order="fill stroke markers" d=" M 307.5 0 L 307.5 400" stroke-opacity="0.2" stroke-miterlimit="10" stroke-dasharray=""/><path fill="none" stroke="rgb(0,0,0)" class="dcg-svg-minor-gridline" paint-order="fill stroke markers" d=" M 334.5 0 L 334.5 400" stroke-opacity="0.2" stroke-miterlimit="10" stroke-dasharray=""/><path fill="none" stroke="rgb(0,0,0)" class="dcg-svg-minor-gridline" paint-order="fill stroke markers" d=" M 362.5 0 L 362.5 400" stroke-opacity="0.2" stroke-miterlimit="10" stroke-dasharray=""/><path fill="none" stroke="rgb(0,0,0)" class="dcg-svg-minor-gridline" paint-order="fill stroke markers" d=" M 389.5 0 L 389.5 400" stroke-opacity="0.2" stroke-miterlimit="10" stroke-dasharray=""/><path fill="none" stroke="rgb(0,0,0)" class="dcg-svg-minor-gridline" paint-order="fill stroke markers" d=" M 417.5 0 L 417.5 400" stroke-opacity="0.2" stroke-miterlimit="10" stroke-dasharray=""/><path fill="none" stroke="rgb(0,0,0)" class="dcg-svg-minor-gridline" paint-order="fill stroke markers" d=" M 444.5 0 L 444.5 400" stroke-opacity="0.2" stroke-miterlimit="10" stroke-dasharray=""/><path fill="none" stroke="rgb(0,0,0)" class="dcg-svg-minor-gridline" paint-order="fill stroke markers" d=" M 472.5 0 L 472.5 400" stroke-opacity="0.2" stroke-miterlimit="10" stroke-dasharray=""/><path fill="none" stroke="rgb(0,0,0)" class="dcg-svg-minor-gridline" paint-order="fill stroke markers" d=" M 499.5 0 L 499.5 400" stroke-opacity="0.2" stroke-miterlimit="10" stroke-dasharray=""/><path fill="none" stroke="rgb(0,0,0)" class="dcg-svg-minor-gridline" paint-order="fill stroke markers" d=" M 527.5 0 L 527.5 400" stroke-opacity="0.2" stroke-miterlimit="10" stroke-dasharray=""/><path fill="none" stroke="rgb(0,0,0)" class="dcg-svg-minor-gridline" paint-order="fill stroke markers" d=" M 554.5 0 L 554.5 400" stroke-opacity="0.2" stroke-miterlimit="10" stroke-dasharray=""/><path fill="none" stroke="rgb(0,0,0)" class="dcg-svg-minor-gridline" paint-order="fill stroke markers" d=" M 582.5 0 L 582.5 400" stroke-opacity="0.2" stroke-miterlimit="10" stroke-dasharray=""/><path fill="none" stroke="rgb(0,0,0)" class="dcg-svg-minor-gridline" paint-order="fill stroke markers" d=" M 0 389.5 L 600 389.5" stroke-opacity="0.2" stroke-miterlimit="10" stroke-dasharray=""/><path fill="none" stroke="rgb(0,0,0)" class="dcg-svg-minor-gridline" paint-order="fill stroke markers" d=" M 0 361.5 L 600 361.5" stroke-opacity="0.2" stroke-miterlimit="10" stroke-dasharray=""/><path fill="none" stroke="rgb(0,0,0)" class="dcg-svg-minor-gridline" paint-order="fill stroke markers" d=" M 0 334.5 L 600 334.5" stroke-opacity="0.2" stroke-miterlimit="10" stroke-dasharray=""/><path fill="none" stroke="rgb(0,0,0)" class="dcg-svg-minor-gridline" paint-order="fill stroke markers" d=" M 0 306.5 L 600 306.5" stroke-opacity="0.2" stroke-miterlimit="10" stroke-dasharray=""/><path fill="none" stroke="rgb(0,0,0)" class="dcg-svg-minor-gridline" paint-order="fill stroke markers" d=" M 0 251.5 L 600 251.5" stroke-opacity="0.2" stroke-miterlimit="10" stroke-dasharray=""/><path fill="none" stroke="rgb(0,0,0)" class="dcg-svg-minor-gridline" paint-order="fill stroke markers" d=" M 0 224.5 L 600 224.5" stroke-opacity="0.2" stroke-miterlimit="10" stroke-dasharray=""/><path fill="none" stroke="rgb(0,0,0)" class="dcg-svg-minor-gridline" paint-order="fill stroke markers" d=" M 0 196.5 L 600 196.5" stroke-opacity="0.2" stroke-miterlimit="10" stroke-dasharray=""/><path fill="none" stroke="rgb(0,0,0)" class="dcg-svg-minor-gridline" paint-order="fill stroke markers" d=" M 0 169.5 L 600 169.5" stroke-opacity="0.2" stroke-miterlimit="10" stroke-dasharray=""/><path fill="none" stroke="rgb(0,0,0)" class="dcg-svg-minor-gridline" paint-order="fill stroke markers" d=" M 0 141.5 L 600 141.5" stroke-opacity="0.2" stroke-miterlimit="10" stroke-dasharray=""/><path fill="none" stroke="rgb(0,0,0)" class="dcg-svg-minor-gridline" paint-order="fill stroke markers" d=" M 0 114.5 L 600 114.5" stroke-opacity="0.2" stroke-miterlimit="10" stroke-dasharray=""/><path fill="none" stroke="rgb(0,0,0)" class="dcg-svg-minor-gridline" paint-order="fill stroke markers" d=" M 0 86.5 L 600 86.5" stroke-opacity="0.2" stroke-miterlimit="10" stroke-dasharray=""/><path fill="none" stroke="rgb(0,0,0)" class="dcg-svg-minor-gridline" paint-order="fill stroke markers" d=" M 0 59.5 L 600 59.5" stroke-opacity="0.2" stroke-miterlimit="10" stroke-dasharray=""/><path fill="none" stroke="rgb(0,0,0)" class="dcg-svg-minor-gridline" paint-order="fill stroke markers" d=" M 0 31.5 L 600 31.5" stroke-opacity="0.2" stroke-miterlimit="10" stroke-dasharray=""/><path fill="none" stroke="rgb(0,0,0)" class="dcg-svg-minor-gridline" paint-order="fill stroke markers" d=" M 0 4.5 L 600 4.5" stroke-opacity="0.2" stroke-miterlimit="10" stroke-dasharray=""/><path fill="none" stroke="rgb(0,0,0)" class="dcg-svg-major-gridline" paint-order="fill stroke markers" d=" M 59.5 0 L 59.5 400" stroke-opacity="0.2500000000000001" stroke-miterlimit="10" stroke-dasharray=""/><path fill="none" stroke="rgb(0,0,0)" class="dcg-svg-major-gridline" paint-order="fill stroke markers" d=" M 279.5 0 L 279.5 400" stroke-opacity="0.2500000000000001" stroke-miterlimit="10" stroke-dasharray=""/><path fill="none" stroke="rgb(0,0,0)" class="dcg-svg-major-gridline" paint-order="fill stroke markers" d=" M 389.5 0 L 389.5 400" stroke-opacity="0.2500000000000001" stroke-miterlimit="10" stroke-dasharray=""/><path fill="none" stroke="rgb(0,0,0)" class="dcg-svg-major-gridline" paint-order="fill stroke markers" d=" M 499.5 0 L 499.5 400" stroke-opacity="0.2500000000000001" stroke-miterlimit="10" stroke-dasharray=""/><path fill="none" stroke="rgb(0,0,0)" class="dcg-svg-major-gridline" paint-order="fill stroke markers" d=" M 0 389.5 L 600 389.5" stroke-opacity="0.2500000000000001" stroke-miterlimit="10" stroke-dasharray=""/><path fill="none" stroke="rgb(0,0,0)" class="dcg-svg-major-gridline" paint-order="fill stroke markers" d=" M 0 169.5 L 600 169.5" stroke-opacity="0.2500000000000001" stroke-miterlimit="10" stroke-dasharray=""/><path fill="none" stroke="rgb(0,0,0)" class="dcg-svg-major-gridline" paint-order="fill stroke markers" d=" M 0 59.5 L 600 59.5" stroke-opacity="0.2500000000000001" stroke-miterlimit="10" stroke-dasharray=""/></g></g><g id="axis-1621a23a"><g id="yaxis-1621a23a"><title>Y axis</title><g><path fill="none" stroke="rgb(0,0,0)" class="dcg-svg-axis-line" paint-order="fill stroke markers" d=" M 170 0 L 170 400" stroke-opacity="0.9" stroke-miterlimit="10" stroke-width="1.5" stroke-dasharray=""/></g></g><g id="xaxis-1621a23a"><title>X axis</title><g><path fill="none" stroke="rgb(0,0,0)" class="dcg-svg-axis-line" paint-order="fill stroke markers" d=" M 0 279 L 600 279" stroke-opacity="0.9" stroke-miterlimit="10" stroke-width="1.5" stroke-dasharray=""/></g></g><g><g class="dcg-svg-axis-value"><text fill="none" stroke="#ffffff" font-family="Arial" font-size="14px" font-style="normal" font-weight="normal" text-decoration="normal" x="160.8287382385546" y="295.20872177645066" text-anchor="middle" stroke-miterlimit="2" stroke-width="3" stroke-dasharray="">0</text><text fill="#000000" stroke="none" font-family="Arial" font-size="14px" font-style="normal" font-weight="normal" text-decoration="normal" x="160.8287382385546" y="295.20872177645066" text-anchor="middle">0</text></g><g class="dcg-svg-axis-value"><text fill="none" stroke="#ffffff" font-family="Arial" font-size="14px" font-style="normal" font-weight="normal" text-decoration="normal" x="57.374925359571876" y="295.20872177645066" text-anchor="middle" stroke-miterlimit="2" stroke-width="3" stroke-dasharray="">-2</text><text fill="#000000" stroke="none" font-family="Arial" font-size="14px" font-style="normal" font-weight="normal" text-decoration="normal" x="57.374925359571876" y="295.20872177645066" text-anchor="middle">-2</text></g><g class="dcg-svg-axis-value"><text fill="none" stroke="#ffffff" font-family="Arial" font-size="14px" font-style="normal" font-weight="normal" text-decoration="normal" x="279.732551165221" y="295.20872177645066" text-anchor="middle" stroke-miterlimit="2" stroke-width="3" stroke-dasharray="">2</text><text fill="#000000" stroke="none" font-family="Arial" font-size="14px" font-style="normal" font-weight="normal" text-decoration="normal" x="279.732551165221" y="295.20872177645066" text-anchor="middle">2</text></g><g class="dcg-svg-axis-value"><text fill="none" stroke="#ffffff" font-family="Arial" font-size="14px" font-style="normal" font-weight="normal" text-decoration="normal" x="389.74469744111536" y="295.20872177645066" text-anchor="middle" stroke-miterlimit="2" stroke-width="3" stroke-dasharray="">4</text><text fill="#000000" stroke="none" font-family="Arial" font-size="14px" font-style="normal" font-weight="normal" text-decoration="normal" x="389.74469744111536" y="295.20872177645066" text-anchor="middle">4</text></g><g class="dcg-svg-axis-value"><text fill="none" stroke="#ffffff" font-family="Arial" font-size="14px" font-style="normal" font-weight="normal" text-decoration="normal" x="499.7568437170097" y="295.20872177645066" text-anchor="middle" stroke-miterlimit="2" stroke-width="3" stroke-dasharray="">6</text><text fill="#000000" stroke="none" font-family="Arial" font-size="14px" font-style="normal" font-weight="normal" text-decoration="normal" x="499.7568437170097" y="295.20872177645066" text-anchor="middle">6</text></g><g class="dcg-svg-axis-value"><text fill="none" stroke="#ffffff" font-family="Arial" font-size="14px" font-style="normal" font-weight="normal" text-decoration="normal" x="158.49540498469412" y="393.220868052345" text-anchor="middle" stroke-miterlimit="2" stroke-width="3" stroke-dasharray="">-2</text><text fill="#000000" stroke="none" font-family="Arial" font-size="14px" font-style="normal" font-weight="normal" text-decoration="normal" x="158.49540498469412" y="393.220868052345" text-anchor="middle">-2</text></g><g class="dcg-svg-axis-value"><text fill="none" stroke="#ffffff" font-family="Arial" font-size="14px" font-style="normal" font-weight="normal" text-decoration="normal" x="160.8287382385546" y="173.19657550055632" text-anchor="middle" stroke-miterlimit="2" stroke-width="3" stroke-dasharray="">2</text><text fill="#000000" stroke="none" font-family="Arial" font-size="14px" font-style="normal" font-weight="normal" text-decoration="normal" x="160.8287382385546" y="173.19657550055632" text-anchor="middle">2</text></g><g class="dcg-svg-axis-value"><text fill="none" stroke="#ffffff" font-family="Arial" font-size="14px" font-style="normal" font-weight="normal" text-decoration="normal" x="160.8287382385546" y="63.18442922466196" text-anchor="middle" stroke-miterlimit="2" stroke-width="3" stroke-dasharray="">4</text><text fill="#000000" stroke="none" font-family="Arial" font-size="14px" font-style="normal" font-weight="normal" text-decoration="normal" x="160.8287382385546" y="63.18442922466196" text-anchor="middle">4</text></g></g></g></g><g id="expressions-1621a23a"><g id="sketch-1621a23a"><title>Expression 1</title><path fill="#c74440" stroke="none" paint-order="stroke fill markers" d="" fill-opacity="0.4"/><g><path fill="none" stroke="#c74440" class="dcg-svg-curve" paint-order="fill stroke markers" d=" M 2.842170943040401e-14 363.64191587927365 L 2.842170943040401e-14 363.64191587927365 L 60.791015625000014 363.0424769341093 L 103.564453125 362.37353564957255 L 134.765625 361.6377575892638 L 158.34960937500003 360.8323160429446 L 176.66015625 359.9552448912108 L 191.16210937500003 359.00664326276035 L 202.734375 357.9978268908282 L 212.25585937500003 356.91423676515694 L 220.166015625 355.75830484358363 L 226.904296875 354.5107276252801 L 232.6171875 353.1864635771569 L 237.59765625 351.75586345310137 L 241.9921875 350.20224538602173 L 245.80078125 348.55842230897383 L 249.31640625 346.7141547068298 L 252.5390625 344.6583259714913 L 255.46875 342.3891834437482 L 258.251953125 339.768717986861 L 260.7421875 336.92236922758497 L 262.939453125 333.9030428205058 L 264.990234375 330.54041617874526 L 266.89453125 326.8322335259134 L 268.798828125 322.43314299839295 L 270.703125 317.20505799429975 L 272.607421875 311.01456907687594 L 274.51171875 303.7737146025079 L 276.708984375 294.15427795464205 L 279.78515625 279.1376983572341 L 283.59375 260.83358687686115 L 285.791015625 251.71137164084593 L 287.841796875 244.4603905876039 L 289.74609375 238.78238101019716 L 291.650390625 234.0003114410938 L 293.701171875 229.6926664650937 L 295.751953125 226.09856655122135 L 297.94921875 222.88157942711604 L 300.29296875 220.02223156980267 L 302.9296875 217.35601316093027 L 305.859375 214.9193377605643 L 309.08203125 212.7239961079422 L 312.451171875 210.83924627561572 L 316.11328125 209.149871310938 L 320.21484375 207.59300890238524 L 324.755859375 206.17954290136424 L 329.8828125 204.87564794061558 L 335.888671875 203.63853540031937 L 342.7734375 202.50075098061944 L 350.9765625 201.42464142358367 L 360.64453125 200.43071473434898 L 372.36328125 199.49967911867037 L 386.71875 198.6337580362686 L 404.443359375 197.83715113571017 L 426.85546875 197.10285966241224 L 455.712890625 196.43155853105773 L 493.65234374999994 195.8236817200904 L 544.921875 195.27796930835007 L 600 194.8861049018542" stroke-linecap="round" stroke-linejoin="round" stroke-miterlimit="10" stroke-width="2.5" stroke-dasharray=""/></g></g><g id="sketch-1621a23a"><title>Expression 3</title><path fill="#2d70b3" stroke="none" paint-order="stroke fill markers" d="" fill-opacity="0.4"/><g><path fill="none" stroke="#2d70b3" class="dcg-svg-curve" paint-order="fill stroke markers" d=" M 2.842170943040401e-14 278.9759998114514 L 2.842170943040401e-14 278.9759998114514 L 72.94921875000003 278.6244686468667 L 114.99023437500003 278.1797117785272 L 142.529296875 277.64381023159245 L 162.158203125 277.01372922956125 L 176.80664062500003 276.29416656022613 L 188.232421875 275.48162996762005 L 197.4609375 274.5694099608071 L 204.931640625 273.5776213185877 L 211.23046875 272.48567137622695 L 216.650390625 271.2829430151207 L 221.337890625 269.9738252066975 L 225.439453125 268.55401311560144 L 229.248046875 266.93270078753517 L 232.6171875 265.18129830959066 L 235.83984375 263.14457747974626 L 238.76953125 260.89816308709914 L 241.552734375 258.3166057020389 L 244.189453125 255.35600802847526 L 246.533203125 252.18899328201357 L 248.73046875 248.64172865057463 L 250.78125 244.69902699110702 L 252.685546875 240.35860831710607 L 254.58984375 235.2068832915794 L 256.34765625 229.5623940917473 L 258.10546875 222.86466295648688 L 259.86328125 214.86973854844388 L 261.474609375 206.14466875189245 L 263.0859375 195.79616281916395 L 264.697265625 183.49949643816203 L 266.30859375 168.9001237998742 L 267.919921875 151.6551212933673 L 269.677734375 129.5487711855759 L 271.728515625 99.56502725243135 L 276.708984375 23.686181907223983 L 277.734375 13.153918183235248 L 278.466796875 7.963600685306858 L 279.052734375 5.416587877007146 L 279.4921875 4.501585061627566 L 279.78515625 4.376644555227358 L 280.078125 4.6414705916988055 L 280.517578125 5.763714040322725 L 281.103515625 8.57625675559973 L 281.8359375 14.069753689851439 L 282.71484375 23.19828210421889 L 283.88671875 38.6927259370957 L 285.9375 70.74769336102995 L 289.16015625 120.82521239398591 L 291.064453125 145.95703166212166 L 292.822265625 165.55071698189664 L 294.580078125 181.92375297809417 L 296.337890625 195.50696596969743 L 298.095703125 206.76062102674456 L 299.853515625 216.10485934509268 L 301.611328125 223.89696676204102 L 303.369140625 230.43016820473352 L 305.2734375 236.3601338220181 L 307.177734375 241.32756158106065 L 309.228515625 245.8137126240662 L 311.279296875 249.58051785890612 L 313.4765625 252.97663692830758 L 315.8203125 256.0150835571401 L 318.45703125 258.86155367424806 L 321.38671875 261.4673730806327 L 324.462890625 263.71330850753566 L 327.685546875 265.6491015432528 L 331.201171875 267.3843046209744 L 335.009765625 268.9222058463443 L 339.2578125 270.3168110136538 L 343.9453125 271.55820798445535 L 349.365234375 272.7029786178942 L 355.6640625 273.7462005853214 L 362.98828125 274.68100259505013 L 371.77734375 275.5272228903416 L 382.470703125 276.28293028349185 L 395.80078125 276.95193453773464 L 412.939453125 277.53753523942635 L 435.64453125 278.0381918225054 L 467.28515625 278.4576949489677 L 514.013671875 278.79561673001484 L 589.453125 279.0541651351927 L 600 279.0765880766203" stroke-linecap="round" stroke-linejoin="round" stroke-miterlimit="10" stroke-width="2.5" stroke-dasharray=""/></g></g></g><g id="labels-1621a23a"/><g id="labels-1621a23a"/></g></svg>