<svg version="1.1" xmlns="http://www.w3.org/2000/svg" xmlns:xlink="http://www.w3.org/1999/xlink" width="800" height="800"><defs/><g transform="scale(2,2)"><g id="background-b1bbf2e9"><rect fill="white" stroke="none" x="0" y="0" width="400" height="400" class="dcg-svg-background"/></g><g id="graphpaper-b1bbf2e9"><g id="grid-b1bbf2e9"><g><path fill="none" stroke="rgb(0,0,0)" class="dcg-svg-minor-gridline" paint-order="fill stroke markers" d=" M 23.5 0 L 23.5 400" stroke-opacity="0.2" stroke-miterlimit="10" stroke-dasharray=""/><path fill="none" stroke="rgb(0,0,0)" class="dcg-svg-minor-gridline" paint-order="fill stroke markers" d=" M 47.5 0 L 47.5 400" stroke-opacity="0.2" stroke-miterlimit="10" stroke-dasharray=""/><path fill="none" stroke="rgb(0,0,0)" class="dcg-svg-minor-gridline" paint-order="fill stroke markers" d=" M 71.5 0 L 71.5 400" stroke-opacity="0.2" stroke-miterlimit="10" stroke-dasharray=""/><path fill="none" stroke="rgb(0,0,0)" class="dcg-svg-minor-gridline" paint-order="fill stroke markers" d=" M 119.5 0 L 119.5 400" stroke-opacity="0.2" stroke-miterlimit="10" stroke-dasharray=""/><path fill="none" stroke="rgb(0,0,0)" class="dcg-svg-minor-gridline" paint-order="fill stroke markers" d=" M 143.5 0 L 143.5 400" stroke-opacity="0.2" stroke-miterlimit="10" stroke-dasharray=""/><path fill="none" stroke="rgb(0,0,0)" class="dcg-svg-minor-gridline" paint-order="fill stroke markers" d=" M 167.5 0 L 167.5 400" stroke-opacity="0.2" stroke-miterlimit="10" stroke-dasharray=""/><path fill="none" stroke="rgb(0,0,0)" class="dcg-svg-minor-gridline" paint-order="fill stroke markers" d=" M 191.5 0 L 191.5 400" stroke-opacity="0.2" stroke-miterlimit="10" stroke-dasharray=""/><path fill="none" stroke="rgb(0,0,0)" class="dcg-svg-minor-gridline" paint-order="fill stroke markers" d=" M 215.5 0 L 215.5 400" stroke-opacity="0.2" stroke-miterlimit="10" stroke-dasharray=""/><path fill="none" stroke="rgb(0,0,0)" class="dcg-svg-minor-gridline" paint-order="fill stroke markers" d=" M 239.5 0 L 239.5 400" stroke-opacity="0.2" stroke-miterlimit="10" stroke-dasharray=""/><path fill="none" stroke="rgb(0,0,0)" class="dcg-svg-minor-gridline" paint-order="fill stroke markers" d=" M 263.5 0 L 263.5 400" stroke-opacity="0.2" stroke-miterlimit="10" stroke-dasharray=""/><path fill="none" stroke="rgb(0,0,0)" class="dcg-svg-minor-gridline" paint-order="fill stroke markers" d=" M 287.5 0 L 287.5 400" stroke-opacity="0.2" stroke-miterlimit="10" stroke-dasharray=""/><path fill="none" stroke="rgb(0,0,0)" class="dcg-svg-minor-gridline" paint-order="fill stroke markers" d=" M 311.5 0 L 311.5 400" stroke-opacity="0.2" stroke-miterlimit="10" stroke-dasharray=""/><path fill="none" stroke="rgb(0,0,0)" class="dcg-svg-minor-gridline" paint-order="fill stroke markers" d=" M 335.5 0 L 335.5 400" stroke-opacity="0.2" stroke-miterlimit="10" stroke-dasharray=""/><path fill="none" stroke="rgb(0,0,0)" class="dcg-svg-minor-gridline" paint-order="fill stroke markers" d=" M 359.5 0 L 359.5 400" stroke-opacity="0.2" stroke-miterlimit="10" stroke-dasharray=""/><path fill="none" stroke="rgb(0,0,0)" class="dcg-svg-minor-gridline" paint-order="fill stroke markers" d=" M 383.5 0 L 383.5 400" stroke-opacity="0.2" stroke-miterlimit="10" stroke-dasharray=""/><path fill="none" stroke="rgb(0,0,0)" class="dcg-svg-minor-gridline" paint-order="fill stroke markers" d=" M 0 395.5 L 400 395.5" stroke-opacity="0.2" stroke-miterlimit="10" stroke-dasharray=""/><path fill="none" stroke="rgb(0,0,0)" class="dcg-svg-minor-gridline" paint-order="fill stroke markers" d=" M 0 371.5 L 400 371.5" stroke-opacity="0.2" stroke-miterlimit="10" stroke-dasharray=""/><path fill="none" stroke="rgb(0,0,0)" class="dcg-svg-minor-gridline" paint-order="fill stroke markers" d=" M 0 347.5 L 400 347.5" stroke-opacity="0.2" stroke-miterlimit="10" stroke-dasharray=""/><path fill="none" stroke="rgb(0,0,0)" class="dcg-svg-minor-gridline" paint-order="fill stroke markers" d=" M 0 323.5 L 400 323.5" stroke-opacity="0.2" stroke-miterlimit="10" stroke-dasharray=""/><path fill="none" stroke="rgb(0,0,0)" class="dcg-svg-minor-gridline" paint-order="fill stroke markers" d=" M 0 299.5 L 400 299.5" stroke-opacity="0.2" stroke-miterlimit="10" stroke-dasharray=""/><path fill="none" stroke="rgb(0,0,0)" class="dcg-svg-minor-gridline" paint-order="fill stroke markers" d=" M 0 275.5 L 400 275.5" stroke-opacity="0.2" stroke-miterlimit="10" stroke-dasharray=""/><path fill="none" stroke="rgb(0,0,0)" class="dcg-svg-minor-gridline" paint-order="fill stroke markers" d=" M 0 251.5 L 400 251.5" stroke-opacity="0.2" stroke-miterlimit="10" stroke-dasharray=""/><path fill="none" stroke="rgb(0,0,0)" class="dcg-svg-minor-gridline" paint-order="fill stroke markers" d=" M 0 227.5 L 400 227.5" stroke-opacity="0.2" stroke-miterlimit="10" stroke-dasharray=""/><path fill="none" stroke="rgb(0,0,0)" class="dcg-svg-minor-gridline" paint-order="fill stroke markers" d=" M 0 203.5 L 400 203.5" stroke-opacity="0.2" stroke-miterlimit="10" stroke-dasharray=""/><path fill="none" stroke="rgb(0,0,0)" class="dcg-svg-minor-gridline" paint-order="fill stroke markers" d=" M 0 180.5 L 400 180.5" stroke-opacity="0.2" stroke-miterlimit="10" stroke-dasharray=""/><path fill="none" stroke="rgb(0,0,0)" class="dcg-svg-minor-gridline" paint-order="fill stroke markers" d=" M 0 156.5 L 400 156.5" stroke-opacity="0.2" stroke-miterlimit="10" stroke-dasharray=""/><path fill="none" stroke="rgb(0,0,0)" class="dcg-svg-minor-gridline" paint-order="fill stroke markers" d=" M 0 132.5 L 400 132.5" stroke-opacity="0.2" stroke-miterlimit="10" stroke-dasharray=""/><path fill="none" stroke="rgb(0,0,0)" class="dcg-svg-minor-gridline" paint-order="fill stroke markers" d=" M 0 108.5 L 400 108.5" stroke-opacity="0.2" stroke-miterlimit="10" stroke-dasharray=""/><path fill="none" stroke="rgb(0,0,0)" class="dcg-svg-minor-gridline" paint-order="fill stroke markers" d=" M 0 84.5 L 400 84.5" stroke-opacity="0.2" stroke-miterlimit="10" stroke-dasharray=""/><path fill="none" stroke="rgb(0,0,0)" class="dcg-svg-minor-gridline" paint-order="fill stroke markers" d=" M 0 60.5 L 400 60.5" stroke-opacity="0.2" stroke-miterlimit="10" stroke-dasharray=""/><path fill="none" stroke="rgb(0,0,0)" class="dcg-svg-minor-gridline" paint-order="fill stroke markers" d=" M 0 36.5 L 400 36.5" stroke-opacity="0.2" stroke-miterlimit="10" stroke-dasharray=""/><path fill="none" stroke="rgb(0,0,0)" class="dcg-svg-minor-gridline" paint-order="fill stroke markers" d=" M 0 12.5 L 400 12.5" stroke-opacity="0.2" stroke-miterlimit="10" stroke-dasharray=""/><path fill="none" stroke="rgb(0,0,0)" class="dcg-svg-major-gridline" paint-order="fill stroke markers" d=" M 215.5 0 L 215.5 400" stroke-opacity="0.2500000000000001" stroke-miterlimit="10" stroke-dasharray=""/><path fill="none" stroke="rgb(0,0,0)" class="dcg-svg-major-gridline" paint-order="fill stroke markers" d=" M 335.5 0 L 335.5 400" stroke-opacity="0.2500000000000001" stroke-miterlimit="10" stroke-dasharray=""/><path fill="none" stroke="rgb(0,0,0)" class="dcg-svg-major-gridline" paint-order="fill stroke markers" d=" M 0 347.5 L 400 347.5" stroke-opacity="0.2500000000000001" stroke-miterlimit="10" stroke-dasharray=""/><path fill="none" stroke="rgb(0,0,0)" class="dcg-svg-major-gridline" paint-order="fill stroke markers" d=" M 0 227.5 L 400 227.5" stroke-opacity="0.2500000000000001" stroke-miterlimit="10" stroke-dasharray=""/><path fill="none" stroke="rgb(0,0,0)" class="dcg-svg-major-gridline" paint-order="fill stroke markers" d=" M 0 108.5 L 400 108.5" stroke-opacity="0.2500000000000001" stroke-miterlimit="10" stroke-dasharray=""/></g></g><g id="axis-b1bbf2e9"><g id="yaxis-b1bbf2e9"><title>Y axis</title><g><path fill="none" stroke="rgb(0,0,0)" class="dcg-svg-axis-line" paint-order="fill stroke markers" d=" M 96 0 L 96 400" stroke-opacity="0.9" stroke-miterlimit="10" stroke-width="1.5" stroke-dasharray=""/></g></g><g><g class="dcg-svg-axis-value"><text fill="none" stroke="#ffffff" font-family="Arial" font-size="14px" font-style="normal" font-weight="normal" text-decoration="normal" x="84.70377194111691" y="351.7379522941626" text-anchor="middle" stroke-miterlimit="2" stroke-width="3" stroke-dasharray="">-5</text><text fill="#000000" stroke="none" font-family="Arial" font-size="14px" font-style="normal" font-weight="normal" text-decoration="normal" x="84.70377194111691" y="351.7379522941626" text-anchor="middle">-5</text></g><g class="dcg-svg-axis-value"><text fill="none" stroke="#ffffff" font-family="Arial" font-size="14px" font-style="normal" font-weight="normal" text-decoration="normal" x="87.03710519497739" y="231.79166323166254" text-anchor="middle" stroke-miterlimit="2" stroke-width="3" stroke-dasharray="">0</text><text fill="#000000" stroke="none" font-family="Arial" font-size="14px" font-style="normal" font-weight="normal" text-decoration="normal" x="87.03710519497739" y="231.79166323166254" text-anchor="middle">0</text></g><g class="dcg-svg-axis-value"><text fill="none" stroke="#ffffff" font-family="Arial" font-size="14px" font-style="normal" font-weight="normal" text-decoration="normal" x="87.03710519497739" y="111.84537416916248" text-anchor="middle" stroke-miterlimit="2" stroke-width="3" stroke-dasharray="">5</text><text fill="#000000" stroke="none" font-family="Arial" font-size="14px" font-style="normal" font-weight="normal" text-decoration="normal" x="87.03710519497739" y="111.84537416916248" text-anchor="middle">5</text></g></g></g></g><g id="expressions-b1bbf2e9"><g id="sketch-b1bbf2e9"><title>Expression 1</title><path fill="#c74440" stroke="none" paint-order="stroke fill markers" d="" fill-opacity="0.4"/><g><path fill="none" stroke="#c74440" class="dcg-svg-curve" paint-order="fill stroke markers" d=" M 0 264.8663984721763 L 0 264.8663984721763 L 47.55859374999999 264.472300220419 L 74.60937499999999 264.00764759264365 L 91.60156249999999 263.4715771456559 L 102.9296875 262.8698557840079 L 110.9375 262.19925459844615 L 116.89453125 261.4490421146038 L 121.38671874999999 260.630437042034 L 124.90234374999999 259.7336970302122 L 127.734375 258.74765121622215 L 130.078125 257.65483958061566 L 132.03125 256.45534574377723 L 133.69140625 255.13290899094315 L 135.25390625 253.52129363151144 L 136.62109375 251.69654424904977 L 137.890625 249.51704494674112 L 139.0625 246.94154995156046 L 140.13671875 243.96233113631237 L 141.2109375 240.2662305999691 L 142.3828125 235.36402058077604 L 144.04296875 227.30543759718645 L 145.8984375 218.54682744026385 L 147.0703125 214.00137054416538 L 148.14453125 210.62911907928554 L 149.21875 207.92479975880562 L 150.390625 205.58470418691257 L 151.66015625 203.5953977490548 L 153.22265625 201.7110165224967 L 154.8828125 200.18761530054664 L 156.73828125 198.88548667796167 L 158.7890625 197.78311100972434 L 161.23046875 196.78305253148187 L 164.16015625 195.88154917705907 L 167.7734375 195.0605901188189 L 172.265625 194.32201344739866 L 178.02734375 193.65274340317336 L 185.64453125 193.04702820593076 L 195.8984375 192.5089515788659 L 210.25390625 192.03319231479054 L 231.24999999999997 191.61786403589838 L 263.4765625 191.26350498353716 L 316.40625 190.96848560603038 L 400 190.75080709713026" stroke-linecap="round" stroke-linejoin="round" stroke-miterlimit="10" stroke-width="2.5" stroke-dasharray=""/></g></g><g id="sketch-b1bbf2e9"><title>Expression 3</title><path fill="#2d70b3" stroke="none" paint-order="stroke fill markers" d="" fill-opacity="0.4"/><g><path fill="none" stroke="#2d70b3" class="dcg-svg-curve" paint-order="fill stroke markers" d=" M 0 227.85048526314552 L 0 227.85048526314552 L 57.6171875 227.61399006381947 L 81.4453125 227.2801145730231 L 94.7265625 226.85288638656047 L 103.3203125 226.3306350737301 L 109.375 225.71209340898312 L 113.8671875 225.00007921736753 L 117.3828125 224.18347882545459 L 120.21484375 223.25861289370914 L 122.55859375 222.21681005235988 L 124.51171875 221.06723656322316 L 126.26953125 219.71964654577192 L 127.83203125 218.17284934179986 L 129.296875 216.30805463444997 L 130.6640625 214.06705063530796 L 131.8359375 211.62038017551743 L 132.91015625 208.80360896069274 L 133.88671875 205.61420013297484 L 134.86328125 201.64076795080138 L 135.7421875 197.19825313519306 L 136.62109375 191.70509574909943 L 137.5 184.89060442042265 L 138.37890625 176.45386487658357 L 139.2578125 166.1271464492292 L 140.234375 152.35741156598434 L 142.87109375 113.38272801113253 L 143.359375 109.58152002164077 L 143.65234375 108.3750945868985 L 143.84765625 108.05589982193248 L 143.9453125 108.04490781216766 L 144.140625 108.32040672450418 L 144.43359375 109.46355802623107 L 144.82421875 112.26393727416175 L 145.3125 117.51359221221901 L 146.09375 128.66390210508325 L 148.6328125 167.0996234069482 L 149.609375 178.26403486552192 L 150.5859375 187.15349140982136 L 151.5625 194.15576494185984 L 152.5390625 199.67261672361312 L 153.515625 204.04486992452425 L 154.4921875 207.54015942965378 L 155.56640625 210.61334423018306 L 156.73828125 213.2699220694529 L 158.0078125 215.5375891886622 L 159.47265625 217.57624416507272 L 161.03515625 219.25662411161275 L 162.79296875 220.71167488650968 L 164.6484375 221.89143087912413 L 166.796875 222.93553076605286 L 169.3359375 223.8603922003317 L 172.36328125 224.66808690464404 L 176.07421875 225.3732740500893 L 180.76171875 225.98471140415583 L 186.9140625 226.50919666248333 L 195.3125 226.94780753491904 L 207.51953125 227.3051857529389 L 226.7578125 227.58276336167864 L 261.03515625 227.78273921796242 L 335.9375 227.90883417250026 L 400 227.9415776258686" stroke-linecap="round" stroke-linejoin="round" stroke-miterlimit="10" stroke-width="2.5" stroke-dasharray=""/></g></g></g><g id="labels-b1bbf2e9"/><g id="labels-b1bbf2e9"/></g></svg>