<?xml version="1.0" encoding="utf-8" standalone="no"?>
<!DOCTYPE svg PUBLIC "-//W3C//DTD SVG 1.1//EN"
  "http://www.w3.org/Graphics/SVG/1.1/DTD/svg11.dtd">
<svg xmlns:xlink="http://www.w3.org/1999/xlink" width="688.448227pt" height="308.8425pt" viewBox="0 0 688.448227 308.8425" xmlns="http://www.w3.org/2000/svg" version="1.1">
 <metadata>
  <rdf:RDF xmlns:dc="http://purl.org/dc/elements/1.1/" xmlns:cc="http://creativecommons.org/ns#" xmlns:rdf="http://www.w3.org/1999/02/22-rdf-syntax-ns#">
   <cc:Work>
    <dc:type rdf:resource="http://purl.org/dc/dcmitype/StillImage"/>
    <dc:date>2026-05-07T05:01:40.999231</dc:date>
    <dc:format>image/svg+xml</dc:format>
    <dc:creator>
     <cc:Agent>
      <dc:title>Matplotlib v3.10.9, https://matplotlib.org/</dc:title>
     </cc:Agent>
    </dc:creator>
   </cc:Work>
  </rdf:RDF>
 </metadata>
 <defs>
  <style type="text/css">*{stroke-linejoin: round; stroke-linecap: butt}</style>
 </defs>
 <g id="figure_1">
  <g id="patch_1">
   <path d="M 0 308.8425 
L 688.448227 308.8425 
L 688.448227 0 
L 0 0 
z
" style="fill: #f2f2f2"/>
  </g>
  <g id="axes_1">
   <g id="patch_2">
    <path d="M 7.2 284.4 
L 676.8 284.4 
L 676.8 7.2 
L 7.2 7.2 
z
" style="fill: #f2f2f2"/>
   </g>
   <g id="matplotlib.axis_1">
    <g id="xtick_1">
     <g id="line2d_1">
      <defs>
       <path id="m62e5568074" d="M 0 0 
L 0 6 
" style="stroke: #262626; stroke-width: 1.25"/>
      </defs>
      <g>
       <use xlink:href="#m62e5568074" x="20.411636" y="284.4" style="fill: #262626; stroke: #262626; stroke-width: 1.25"/>
      </g>
     </g>
     <g id="text_1">
      <!-- 17:00 -->
      <g style="fill: #262626" transform="translate(8.884136 299.97875) scale(0.08 -0.08)">
       <defs>
        <path id="DejaVuSans-31" d="M 794 531 
L 1825 531 
L 1825 4091 
L 703 3866 
L 703 4441 
L 1819 4666 
L 2450 4666 
L 2450 531 
L 3481 531 
L 3481 0 
L 794 0 
L 794 531 
z
" transform="scale(0.015625)"/>
        <path id="DejaVuSans-37" d="M 525 4666 
L 3525 4666 
L 3525 4397 
L 1831 0 
L 1172 0 
L 2766 4134 
L 525 4134 
L 525 4666 
z
" transform="scale(0.015625)"/>
        <path id="DejaVuSans-3a" d="M 750 794 
L 1409 794 
L 1409 0 
L 750 0 
L 750 794 
z
M 750 3309 
L 1409 3309 
L 1409 2516 
L 750 2516 
L 750 3309 
z
" transform="scale(0.015625)"/>
        <path id="DejaVuSans-30" d="M 2034 4250 
Q 1547 4250 1301 3770 
Q 1056 3291 1056 2328 
Q 1056 1369 1301 889 
Q 1547 409 2034 409 
Q 2525 409 2770 889 
Q 3016 1369 3016 2328 
Q 3016 3291 2770 3770 
Q 2525 4250 2034 4250 
z
M 2034 4750 
Q 2819 4750 3233 4129 
Q 3647 3509 3647 2328 
Q 3647 1150 3233 529 
Q 2819 -91 2034 -91 
Q 1250 -91 836 529 
Q 422 1150 422 2328 
Q 422 3509 836 4129 
Q 1250 4750 2034 4750 
z
" transform="scale(0.015625)"/>
       </defs>
       <use xlink:href="#DejaVuSans-31"/>
       <use xlink:href="#DejaVuSans-37" transform="translate(63.623047 0)"/>
       <use xlink:href="#DejaVuSans-3a" transform="translate(127.246094 0)"/>
       <use xlink:href="#DejaVuSans-30" transform="translate(160.9375 0)"/>
       <use xlink:href="#DejaVuSans-30" transform="translate(224.560547 0)"/>
      </g>
     </g>
    </g>
    <g id="xtick_2">
     <g id="line2d_2">
      <g>
       <use xlink:href="#m62e5568074" x="101.575273" y="284.4" style="fill: #262626; stroke: #262626; stroke-width: 1.25"/>
      </g>
     </g>
     <g id="text_2">
      <!-- 17:15 -->
      <g style="fill: #262626" transform="translate(90.047773 299.97875) scale(0.08 -0.08)">
       <defs>
        <path id="DejaVuSans-35" d="M 691 4666 
L 3169 4666 
L 3169 4134 
L 1269 4134 
L 1269 2991 
Q 1406 3038 1543 3061 
Q 1681 3084 1819 3084 
Q 2600 3084 3056 2656 
Q 3513 2228 3513 1497 
Q 3513 744 3044 326 
Q 2575 -91 1722 -91 
Q 1428 -91 1123 -41 
Q 819 9 494 109 
L 494 744 
Q 775 591 1075 516 
Q 1375 441 1709 441 
Q 2250 441 2565 725 
Q 2881 1009 2881 1497 
Q 2881 1984 2565 2268 
Q 2250 2553 1709 2553 
Q 1456 2553 1204 2497 
Q 953 2441 691 2322 
L 691 4666 
z
" transform="scale(0.015625)"/>
       </defs>
       <use xlink:href="#DejaVuSans-31"/>
       <use xlink:href="#DejaVuSans-37" transform="translate(63.623047 0)"/>
       <use xlink:href="#DejaVuSans-3a" transform="translate(127.246094 0)"/>
       <use xlink:href="#DejaVuSans-31" transform="translate(160.9375 0)"/>
       <use xlink:href="#DejaVuSans-35" transform="translate(224.560547 0)"/>
      </g>
     </g>
    </g>
    <g id="xtick_3">
     <g id="line2d_3">
      <g>
       <use xlink:href="#m62e5568074" x="182.738909" y="284.4" style="fill: #262626; stroke: #262626; stroke-width: 1.25"/>
      </g>
     </g>
     <g id="text_3">
      <!-- 17:30 -->
      <g style="fill: #262626" transform="translate(171.211409 299.97875) scale(0.08 -0.08)">
       <defs>
        <path id="DejaVuSans-33" d="M 2597 2516 
Q 3050 2419 3304 2112 
Q 3559 1806 3559 1356 
Q 3559 666 3084 287 
Q 2609 -91 1734 -91 
Q 1441 -91 1130 -33 
Q 819 25 488 141 
L 488 750 
Q 750 597 1062 519 
Q 1375 441 1716 441 
Q 2309 441 2620 675 
Q 2931 909 2931 1356 
Q 2931 1769 2642 2001 
Q 2353 2234 1838 2234 
L 1294 2234 
L 1294 2753 
L 1863 2753 
Q 2328 2753 2575 2939 
Q 2822 3125 2822 3475 
Q 2822 3834 2567 4026 
Q 2313 4219 1838 4219 
Q 1578 4219 1281 4162 
Q 984 4106 628 3988 
L 628 4550 
Q 988 4650 1302 4700 
Q 1616 4750 1894 4750 
Q 2613 4750 3031 4423 
Q 3450 4097 3450 3541 
Q 3450 3153 3228 2886 
Q 3006 2619 2597 2516 
z
" transform="scale(0.015625)"/>
       </defs>
       <use xlink:href="#DejaVuSans-31"/>
       <use xlink:href="#DejaVuSans-37" transform="translate(63.623047 0)"/>
       <use xlink:href="#DejaVuSans-3a" transform="translate(127.246094 0)"/>
       <use xlink:href="#DejaVuSans-33" transform="translate(160.9375 0)"/>
       <use xlink:href="#DejaVuSans-30" transform="translate(224.560547 0)"/>
      </g>
     </g>
    </g>
    <g id="xtick_4">
     <g id="line2d_4">
      <g>
       <use xlink:href="#m62e5568074" x="263.902545" y="284.4" style="fill: #262626; stroke: #262626; stroke-width: 1.25"/>
      </g>
     </g>
     <g id="text_4">
      <!-- 17:45 -->
      <g style="fill: #262626" transform="translate(252.375045 299.97875) scale(0.08 -0.08)">
       <defs>
        <path id="DejaVuSans-34" d="M 2419 4116 
L 825 1625 
L 2419 1625 
L 2419 4116 
z
M 2253 4666 
L 3047 4666 
L 3047 1625 
L 3713 1625 
L 3713 1100 
L 3047 1100 
L 3047 0 
L 2419 0 
L 2419 1100 
L 313 1100 
L 313 1709 
L 2253 4666 
z
" transform="scale(0.015625)"/>
       </defs>
       <use xlink:href="#DejaVuSans-31"/>
       <use xlink:href="#DejaVuSans-37" transform="translate(63.623047 0)"/>
       <use xlink:href="#DejaVuSans-3a" transform="translate(127.246094 0)"/>
       <use xlink:href="#DejaVuSans-34" transform="translate(160.9375 0)"/>
       <use xlink:href="#DejaVuSans-35" transform="translate(224.560547 0)"/>
      </g>
     </g>
    </g>
    <g id="xtick_5">
     <g id="line2d_5">
      <g>
       <use xlink:href="#m62e5568074" x="345.066182" y="284.4" style="fill: #262626; stroke: #262626; stroke-width: 1.25"/>
      </g>
     </g>
     <g id="text_5">
      <!-- 18:00 -->
      <g style="fill: #262626" transform="translate(333.538682 299.97875) scale(0.08 -0.08)">
       <defs>
        <path id="DejaVuSans-38" d="M 2034 2216 
Q 1584 2216 1326 1975 
Q 1069 1734 1069 1313 
Q 1069 891 1326 650 
Q 1584 409 2034 409 
Q 2484 409 2743 651 
Q 3003 894 3003 1313 
Q 3003 1734 2745 1975 
Q 2488 2216 2034 2216 
z
M 1403 2484 
Q 997 2584 770 2862 
Q 544 3141 544 3541 
Q 544 4100 942 4425 
Q 1341 4750 2034 4750 
Q 2731 4750 3128 4425 
Q 3525 4100 3525 3541 
Q 3525 3141 3298 2862 
Q 3072 2584 2669 2484 
Q 3125 2378 3379 2068 
Q 3634 1759 3634 1313 
Q 3634 634 3220 271 
Q 2806 -91 2034 -91 
Q 1263 -91 848 271 
Q 434 634 434 1313 
Q 434 1759 690 2068 
Q 947 2378 1403 2484 
z
M 1172 3481 
Q 1172 3119 1398 2916 
Q 1625 2713 2034 2713 
Q 2441 2713 2670 2916 
Q 2900 3119 2900 3481 
Q 2900 3844 2670 4047 
Q 2441 4250 2034 4250 
Q 1625 4250 1398 4047 
Q 1172 3844 1172 3481 
z
" transform="scale(0.015625)"/>
       </defs>
       <use xlink:href="#DejaVuSans-31"/>
       <use xlink:href="#DejaVuSans-38" transform="translate(63.623047 0)"/>
       <use xlink:href="#DejaVuSans-3a" transform="translate(127.246094 0)"/>
       <use xlink:href="#DejaVuSans-30" transform="translate(160.9375 0)"/>
       <use xlink:href="#DejaVuSans-30" transform="translate(224.560547 0)"/>
      </g>
     </g>
    </g>
    <g id="xtick_6">
     <g id="line2d_6">
      <g>
       <use xlink:href="#m62e5568074" x="426.229818" y="284.4" style="fill: #262626; stroke: #262626; stroke-width: 1.25"/>
      </g>
     </g>
     <g id="text_6">
      <!-- 18:15 -->
      <g style="fill: #262626" transform="translate(414.702318 299.97875) scale(0.08 -0.08)">
       <use xlink:href="#DejaVuSans-31"/>
       <use xlink:href="#DejaVuSans-38" transform="translate(63.623047 0)"/>
       <use xlink:href="#DejaVuSans-3a" transform="translate(127.246094 0)"/>
       <use xlink:href="#DejaVuSans-31" transform="translate(160.9375 0)"/>
       <use xlink:href="#DejaVuSans-35" transform="translate(224.560547 0)"/>
      </g>
     </g>
    </g>
    <g id="xtick_7">
     <g id="line2d_7">
      <g>
       <use xlink:href="#m62e5568074" x="507.393455" y="284.4" style="fill: #262626; stroke: #262626; stroke-width: 1.25"/>
      </g>
     </g>
     <g id="text_7">
      <!-- 18:30 -->
      <g style="fill: #262626" transform="translate(495.865955 299.97875) scale(0.08 -0.08)">
       <use xlink:href="#DejaVuSans-31"/>
       <use xlink:href="#DejaVuSans-38" transform="translate(63.623047 0)"/>
       <use xlink:href="#DejaVuSans-3a" transform="translate(127.246094 0)"/>
       <use xlink:href="#DejaVuSans-33" transform="translate(160.9375 0)"/>
       <use xlink:href="#DejaVuSans-30" transform="translate(224.560547 0)"/>
      </g>
     </g>
    </g>
    <g id="xtick_8">
     <g id="line2d_8">
      <g>
       <use xlink:href="#m62e5568074" x="588.557091" y="284.4" style="fill: #262626; stroke: #262626; stroke-width: 1.25"/>
      </g>
     </g>
     <g id="text_8">
      <!-- 18:45 -->
      <g style="fill: #262626" transform="translate(577.029591 299.97875) scale(0.08 -0.08)">
       <use xlink:href="#DejaVuSans-31"/>
       <use xlink:href="#DejaVuSans-38" transform="translate(63.623047 0)"/>
       <use xlink:href="#DejaVuSans-3a" transform="translate(127.246094 0)"/>
       <use xlink:href="#DejaVuSans-34" transform="translate(160.9375 0)"/>
       <use xlink:href="#DejaVuSans-35" transform="translate(224.560547 0)"/>
      </g>
     </g>
    </g>
    <g id="xtick_9">
     <g id="line2d_9">
      <g>
       <use xlink:href="#m62e5568074" x="669.720727" y="284.4" style="fill: #262626; stroke: #262626; stroke-width: 1.25"/>
      </g>
     </g>
     <g id="text_9">
      <!-- 19:00 -->
      <g style="fill: #262626" transform="translate(658.193227 299.97875) scale(0.08 -0.08)">
       <defs>
        <path id="DejaVuSans-39" d="M 703 97 
L 703 672 
Q 941 559 1184 500 
Q 1428 441 1663 441 
Q 2288 441 2617 861 
Q 2947 1281 2994 2138 
Q 2813 1869 2534 1725 
Q 2256 1581 1919 1581 
Q 1219 1581 811 2004 
Q 403 2428 403 3163 
Q 403 3881 828 4315 
Q 1253 4750 1959 4750 
Q 2769 4750 3195 4129 
Q 3622 3509 3622 2328 
Q 3622 1225 3098 567 
Q 2575 -91 1691 -91 
Q 1453 -91 1209 -44 
Q 966 3 703 97 
z
M 1959 2075 
Q 2384 2075 2632 2365 
Q 2881 2656 2881 3163 
Q 2881 3666 2632 3958 
Q 2384 4250 1959 4250 
Q 1534 4250 1286 3958 
Q 1038 3666 1038 3163 
Q 1038 2656 1286 2365 
Q 1534 2075 1959 2075 
z
" transform="scale(0.015625)"/>
       </defs>
       <use xlink:href="#DejaVuSans-31"/>
       <use xlink:href="#DejaVuSans-39" transform="translate(63.623047 0)"/>
       <use xlink:href="#DejaVuSans-3a" transform="translate(127.246094 0)"/>
       <use xlink:href="#DejaVuSans-30" transform="translate(160.9375 0)"/>
       <use xlink:href="#DejaVuSans-30" transform="translate(224.560547 0)"/>
      </g>
     </g>
    </g>
   </g>
   <g id="matplotlib.axis_2"/>
   <g id="FillBetweenPolyCollection_1"/>
   <g id="FillBetweenPolyCollection_2"/>
   <g id="line2d_10">
    <path d="M 37.636364 101.91236 
L 45.752727 101.91236 
L 48.458182 99.080899 
L 51.163636 99.080899 
L 53.869091 96.249438 
L 56.574545 96.249438 
L 59.28 93.417978 
L 61.985455 93.417978 
L 64.690909 90.586517 
L 67.396364 90.586517 
L 70.101818 87.755056 
L 72.807273 87.755056 
L 75.512727 84.923596 
L 78.218182 84.923596 
L 80.923636 82.092135 
L 83.629091 82.092135 
L 86.334545 79.260674 
L 89.04 79.260674 
L 91.745455 76.429213 
L 94.450909 76.429213 
L 97.156364 73.597753 
L 99.861818 73.597753 
L 102.567273 70.766292 
L 105.272727 70.766292 
L 107.978182 67.934831 
L 110.683636 67.934831 
L 113.389091 65.103371 
L 116.094545 65.103371 
L 118.8 62.27191 
L 121.505455 62.27191 
L 124.210909 59.440449 
L 126.916364 59.440449 
L 129.621818 56.608989 
L 132.327273 56.608989 
L 135.032727 53.777528 
L 137.738182 53.777528 
L 140.443636 50.946067 
L 143.149091 50.946067 
L 145.854545 48.114607 
L 148.56 48.114607 
L 151.265455 45.283146 
L 153.970909 45.283146 
L 156.676364 42.451685 
L 159.381818 42.451685 
L 162.087273 39.620225 
L 164.792727 39.620225 
L 167.498182 36.788764 
L 170.203636 36.788764 
L 172.909091 33.957303 
L 175.614545 33.957303 
L 178.32 31.125843 
L 181.025455 31.125843 
L 183.730909 28.294382 
L 186.436364 28.294382 
L 189.141818 25.462921 
L 191.847273 25.462921 
L 194.552727 22.631461 
L 197.258182 22.631461 
L 199.963636 19.8 
L 202.669091 19.8 
L 205.374545 271.8 
L 208.08 271.8 
L 210.785455 268.968539 
L 213.490909 268.968539 
L 216.196364 266.137079 
L 218.901818 266.137079 
L 221.607273 263.305618 
L 224.312727 263.305618 
L 227.018182 260.474157 
L 229.723636 260.474157 
L 232.429091 257.642697 
L 235.134545 257.642697 
L 237.84 254.811236 
L 240.545455 254.811236 
L 243.250909 251.979775 
L 245.956364 251.979775 
L 248.661818 249.148315 
L 251.367273 249.148315 
L 254.072727 246.316854 
L 256.778182 246.316854 
L 259.483636 243.485393 
L 262.189091 243.485393 
L 264.894545 240.653933 
L 267.6 240.653933 
L 270.305455 237.822472 
L 273.010909 237.822472 
L 275.716364 234.991011 
L 278.421818 234.991011 
L 281.127273 232.159551 
L 283.832727 232.159551 
L 286.538182 229.32809 
L 289.243636 229.32809 
L 291.949091 226.496629 
L 294.654545 226.496629 
L 297.36 223.665169 
L 300.065455 223.665169 
L 302.770909 220.833708 
L 305.476364 220.833708 
L 308.181818 218.002247 
L 310.887273 218.002247 
L 313.592727 215.170787 
L 316.298182 215.170787 
L 319.003636 212.339326 
L 321.709091 212.339326 
L 324.414545 209.507865 
L 327.12 209.507865 
L 329.825455 206.676404 
L 332.530909 206.676404 
L 335.236364 203.844944 
L 337.941818 203.844944 
L 340.647273 201.013483 
L 343.352727 201.013483 
L 346.058182 198.182022 
L 348.763636 198.182022 
L 351.469091 195.350562 
L 354.174545 195.350562 
L 356.88 192.519101 
L 359.585455 192.519101 
L 362.290909 189.68764 
L 364.996364 189.68764 
L 367.701818 186.85618 
L 370.407273 186.85618 
L 373.112727 184.024719 
L 375.818182 184.024719 
L 378.523636 181.193258 
L 381.229091 181.193258 
L 383.934545 178.361798 
L 386.64 178.361798 
L 389.345455 175.530337 
L 392.050909 175.530337 
L 394.756364 172.698876 
L 397.461818 172.698876 
L 400.167273 169.867416 
L 402.872727 169.867416 
L 405.578182 167.035955 
L 408.283636 167.035955 
L 410.989091 164.204494 
L 413.694545 164.204494 
L 416.4 161.373034 
L 419.105455 161.373034 
L 421.810909 158.541573 
L 424.516364 158.541573 
L 427.221818 271.8 
L 429.927273 271.8 
L 432.632727 268.968539 
L 435.338182 268.968539 
L 438.043636 266.137079 
L 440.749091 266.137079 
L 443.454545 263.305618 
L 446.16 263.305618 
L 448.865455 260.474157 
L 451.570909 260.474157 
L 454.276364 257.642697 
L 456.981818 257.642697 
L 459.687273 254.811236 
L 462.392727 254.811236 
L 465.098182 251.979775 
L 467.803636 251.979775 
L 470.509091 249.148315 
L 473.214545 249.148315 
L 475.92 246.316854 
L 478.625455 246.316854 
L 481.330909 243.485393 
L 484.036364 243.485393 
L 486.741818 240.653933 
L 489.447273 240.653933 
L 492.152727 237.822472 
L 494.858182 237.822472 
L 497.563636 234.991011 
L 500.269091 234.991011 
L 502.974545 232.159551 
L 505.68 232.159551 
L 508.385455 229.32809 
L 511.090909 229.32809 
L 513.796364 226.496629 
L 516.501818 226.496629 
L 519.207273 223.665169 
L 521.912727 223.665169 
L 524.618182 220.833708 
L 527.323636 220.833708 
L 530.029091 218.002247 
L 532.734545 218.002247 
L 535.44 215.170787 
L 538.145455 215.170787 
L 540.850909 212.339326 
L 543.556364 212.339326 
L 546.261818 209.507865 
L 548.967273 209.507865 
L 551.672727 206.676404 
L 554.378182 206.676404 
L 557.083636 203.844944 
L 559.789091 203.844944 
L 562.494545 201.013483 
L 565.2 201.013483 
L 567.905455 198.182022 
L 570.610909 198.182022 
L 573.316364 195.350562 
L 576.021818 195.350562 
L 578.727273 192.519101 
L 581.432727 192.519101 
L 584.138182 189.68764 
L 586.843636 189.68764 
L 589.549091 186.85618 
L 613.898182 186.85618 
L 613.898182 186.85618 
" clip-path="url(#p46f4ebdeaf)" style="fill: none; stroke: #12711c; stroke-opacity: 0.1; stroke-width: 5; stroke-linecap: round"/>
   </g>
   <g id="line2d_11">
    <path d="M 43.047273 271.8 
L 45.752727 271.8 
L 48.458182 268.001124 
L 51.163636 267.293258 
L 53.869091 264.847191 
L 56.574545 263.903371 
L 59.28 261.854494 
L 61.985455 260.792697 
L 64.690909 258.926292 
L 67.396364 257.793708 
L 70.101818 256.030337 
L 72.807273 254.850562 
L 75.512727 253.152809 
L 78.218182 251.939326 
L 80.923636 250.286798 
L 83.629091 249.048034 
L 86.334545 247.428464 
L 89.04 246.170037 
L 91.745455 244.575506 
L 94.450909 243.301348 
L 97.156364 241.726456 
L 99.861818 240.439428 
L 102.567273 238.880337 
L 105.272727 237.582584 
L 107.978182 236.036474 
L 110.683636 234.729646 
L 113.389091 233.194382 
L 116.094545 231.879775 
L 118.8 230.353708 
L 121.505455 229.03236 
L 124.210909 227.514185 
L 126.916364 226.186938 
L 129.621818 224.675611 
L 132.327273 223.343159 
L 135.032727 221.837828 
L 137.738182 220.500749 
L 140.443636 219.00071 
L 143.149091 217.659491 
L 145.854545 216.164157 
L 148.56 214.819213 
L 151.265455 213.32809 
L 153.970909 211.979775 
L 156.676364 210.492441 
L 159.381818 209.141062 
L 162.087273 207.657157 
L 164.792727 206.30298 
L 170.203636 203.465449 
L 178.32 199.153068 
L 186.436364 194.955556 
L 191.847273 192.119663 
L 194.552727 189.785277 
L 197.258182 189.785277 
L 199.963636 186.85618 
L 202.669091 186.85618 
L 205.374545 189.785277 
L 359.585455 189.785277 
L 362.290909 189.168539 
L 364.996364 187.752809 
L 367.701818 186.85618 
L 424.516364 186.85618 
L 427.221818 189.785277 
L 581.432727 189.785277 
L 584.138182 189.168539 
L 586.843636 187.752809 
L 589.549091 186.85618 
L 592.254545 186.85618 
L 594.96 189.785277 
L 597.665455 189.785277 
L 600.370909 192.714374 
L 603.076364 192.714374 
L 605.781818 195.643472 
L 608.487273 195.643472 
L 611.192727 198.572569 
L 613.898182 198.572569 
L 616.603636 200.649438 
L 619.309091 201.862921 
L 622.014545 203.500624 
L 624.72 204.706617 
L 627.425455 206.353328 
L 630.130909 207.551253 
L 632.836364 209.20773 
L 635.541818 210.396944 
L 638.247273 212.064045 
L 640.952727 213.24382 
L 643.658182 214.922521 
L 646.363636 216.092037 
L 646.363636 216.092037 
" clip-path="url(#p46f4ebdeaf)" style="fill: none; stroke: #001c7f; stroke-width: 5; stroke-linecap: round"/>
   </g>
   <g id="patch_3">
    <path d="M 7.2 284.4 
L 7.2 7.2 
" style="fill: none; stroke: #262626; stroke-width: 1.25; stroke-linejoin: miter; stroke-linecap: square"/>
   </g>
   <g id="patch_4">
    <path d="M 676.8 284.4 
L 676.8 7.2 
" style="fill: none; stroke: #262626; stroke-width: 1.25; stroke-linejoin: miter; stroke-linecap: square"/>
   </g>
   <g id="patch_5">
    <path d="M 7.2 284.4 
L 676.8 284.4 
" style="fill: none; stroke: #262626; stroke-width: 1.25; stroke-linejoin: miter; stroke-linecap: square"/>
   </g>
   <g id="patch_6">
    <path d="M 7.2 7.2 
L 676.8 7.2 
" style="fill: none; stroke: #262626; stroke-width: 1.25; stroke-linejoin: miter; stroke-linecap: square"/>
   </g>
  </g>
 </g>
 <defs>
  <clipPath id="p46f4ebdeaf">
   <rect x="7.2" y="7.2" width="669.6" height="277.2"/>
  </clipPath>
 </defs>
</svg>
