<?xml version="1.0" encoding="utf-8" standalone="no"?>
<!DOCTYPE svg PUBLIC "-//W3C//DTD SVG 1.1//EN"
  "http://www.w3.org/Graphics/SVG/1.1/DTD/svg11.dtd">
<svg xmlns:xlink="http://www.w3.org/1999/xlink" width="684pt" height="308.8425pt" viewBox="0 0 684 308.8425" xmlns="http://www.w3.org/2000/svg" version="1.1">
 <metadata>
  <rdf:RDF xmlns:dc="http://purl.org/dc/elements/1.1/" xmlns:cc="http://creativecommons.org/ns#" xmlns:rdf="http://www.w3.org/1999/02/22-rdf-syntax-ns#">
   <cc:Work>
    <dc:type rdf:resource="http://purl.org/dc/dcmitype/StillImage"/>
    <dc:date>2026-05-07T06:17:54.604943</dc:date>
    <dc:format>image/svg+xml</dc:format>
    <dc:creator>
     <cc:Agent>
      <dc:title>Matplotlib v3.10.9, https://matplotlib.org/</dc:title>
     </cc:Agent>
    </dc:creator>
   </cc:Work>
  </rdf:RDF>
 </metadata>
 <defs>
  <style type="text/css">*{stroke-linejoin: round; stroke-linecap: butt}</style>
 </defs>
 <g id="figure_1">
  <g id="patch_1">
   <path d="M 0 308.8425 
L 684 308.8425 
L 684 0 
L 0 0 
z
" style="fill: #f2f2f2"/>
  </g>
  <g id="axes_1">
   <g id="patch_2">
    <path d="M 7.2 284.4 
L 676.8 284.4 
L 676.8 7.2 
L 7.2 7.2 
z
" style="fill: #f2f2f2"/>
   </g>
   <g id="matplotlib.axis_1">
    <g id="xtick_1">
     <g id="line2d_1">
      <defs>
       <path id="mbb8949b3f5" d="M 0 0 
L 0 6 
" style="stroke: #262626; stroke-width: 1.25"/>
      </defs>
      <g>
       <use xlink:href="#mbb8949b3f5" x="93.009686" y="284.4" style="fill: #262626; stroke: #262626; stroke-width: 1.25"/>
      </g>
     </g>
     <g id="text_1">
      <!-- 16:30 -->
      <g style="fill: #262626" transform="translate(81.482186 299.97875) scale(0.08 -0.08)">
       <defs>
        <path id="DejaVuSans-31" d="M 794 531 
L 1825 531 
L 1825 4091 
L 703 3866 
L 703 4441 
L 1819 4666 
L 2450 4666 
L 2450 531 
L 3481 531 
L 3481 0 
L 794 0 
L 794 531 
z
" transform="scale(0.015625)"/>
        <path id="DejaVuSans-36" d="M 2113 2584 
Q 1688 2584 1439 2293 
Q 1191 2003 1191 1497 
Q 1191 994 1439 701 
Q 1688 409 2113 409 
Q 2538 409 2786 701 
Q 3034 994 3034 1497 
Q 3034 2003 2786 2293 
Q 2538 2584 2113 2584 
z
M 3366 4563 
L 3366 3988 
Q 3128 4100 2886 4159 
Q 2644 4219 2406 4219 
Q 1781 4219 1451 3797 
Q 1122 3375 1075 2522 
Q 1259 2794 1537 2939 
Q 1816 3084 2150 3084 
Q 2853 3084 3261 2657 
Q 3669 2231 3669 1497 
Q 3669 778 3244 343 
Q 2819 -91 2113 -91 
Q 1303 -91 875 529 
Q 447 1150 447 2328 
Q 447 3434 972 4092 
Q 1497 4750 2381 4750 
Q 2619 4750 2861 4703 
Q 3103 4656 3366 4563 
z
" transform="scale(0.015625)"/>
        <path id="DejaVuSans-3a" d="M 750 794 
L 1409 794 
L 1409 0 
L 750 0 
L 750 794 
z
M 750 3309 
L 1409 3309 
L 1409 2516 
L 750 2516 
L 750 3309 
z
" transform="scale(0.015625)"/>
        <path id="DejaVuSans-33" d="M 2597 2516 
Q 3050 2419 3304 2112 
Q 3559 1806 3559 1356 
Q 3559 666 3084 287 
Q 2609 -91 1734 -91 
Q 1441 -91 1130 -33 
Q 819 25 488 141 
L 488 750 
Q 750 597 1062 519 
Q 1375 441 1716 441 
Q 2309 441 2620 675 
Q 2931 909 2931 1356 
Q 2931 1769 2642 2001 
Q 2353 2234 1838 2234 
L 1294 2234 
L 1294 2753 
L 1863 2753 
Q 2328 2753 2575 2939 
Q 2822 3125 2822 3475 
Q 2822 3834 2567 4026 
Q 2313 4219 1838 4219 
Q 1578 4219 1281 4162 
Q 984 4106 628 3988 
L 628 4550 
Q 988 4650 1302 4700 
Q 1616 4750 1894 4750 
Q 2613 4750 3031 4423 
Q 3450 4097 3450 3541 
Q 3450 3153 3228 2886 
Q 3006 2619 2597 2516 
z
" transform="scale(0.015625)"/>
        <path id="DejaVuSans-30" d="M 2034 4250 
Q 1547 4250 1301 3770 
Q 1056 3291 1056 2328 
Q 1056 1369 1301 889 
Q 1547 409 2034 409 
Q 2525 409 2770 889 
Q 3016 1369 3016 2328 
Q 3016 3291 2770 3770 
Q 2525 4250 2034 4250 
z
M 2034 4750 
Q 2819 4750 3233 4129 
Q 3647 3509 3647 2328 
Q 3647 1150 3233 529 
Q 2819 -91 2034 -91 
Q 1250 -91 836 529 
Q 422 1150 422 2328 
Q 422 3509 836 4129 
Q 1250 4750 2034 4750 
z
" transform="scale(0.015625)"/>
       </defs>
       <use xlink:href="#DejaVuSans-31"/>
       <use xlink:href="#DejaVuSans-36" transform="translate(63.623047 0)"/>
       <use xlink:href="#DejaVuSans-3a" transform="translate(127.246094 0)"/>
       <use xlink:href="#DejaVuSans-33" transform="translate(160.9375 0)"/>
       <use xlink:href="#DejaVuSans-30" transform="translate(224.560547 0)"/>
      </g>
     </g>
    </g>
    <g id="xtick_2">
     <g id="line2d_2">
      <g>
       <use xlink:href="#mbb8949b3f5" x="206.790484" y="284.4" style="fill: #262626; stroke: #262626; stroke-width: 1.25"/>
      </g>
     </g>
     <g id="text_2">
      <!-- 17:00 -->
      <g style="fill: #262626" transform="translate(195.262984 299.97875) scale(0.08 -0.08)">
       <defs>
        <path id="DejaVuSans-37" d="M 525 4666 
L 3525 4666 
L 3525 4397 
L 1831 0 
L 1172 0 
L 2766 4134 
L 525 4134 
L 525 4666 
z
" transform="scale(0.015625)"/>
       </defs>
       <use xlink:href="#DejaVuSans-31"/>
       <use xlink:href="#DejaVuSans-37" transform="translate(63.623047 0)"/>
       <use xlink:href="#DejaVuSans-3a" transform="translate(127.246094 0)"/>
       <use xlink:href="#DejaVuSans-30" transform="translate(160.9375 0)"/>
       <use xlink:href="#DejaVuSans-30" transform="translate(224.560547 0)"/>
      </g>
     </g>
    </g>
    <g id="xtick_3">
     <g id="line2d_3">
      <g>
       <use xlink:href="#mbb8949b3f5" x="320.571283" y="284.4" style="fill: #262626; stroke: #262626; stroke-width: 1.25"/>
      </g>
     </g>
     <g id="text_3">
      <!-- 17:30 -->
      <g style="fill: #262626" transform="translate(309.043783 299.97875) scale(0.08 -0.08)">
       <use xlink:href="#DejaVuSans-31"/>
       <use xlink:href="#DejaVuSans-37" transform="translate(63.623047 0)"/>
       <use xlink:href="#DejaVuSans-3a" transform="translate(127.246094 0)"/>
       <use xlink:href="#DejaVuSans-33" transform="translate(160.9375 0)"/>
       <use xlink:href="#DejaVuSans-30" transform="translate(224.560547 0)"/>
      </g>
     </g>
    </g>
    <g id="xtick_4">
     <g id="line2d_4">
      <g>
       <use xlink:href="#mbb8949b3f5" x="434.352082" y="284.4" style="fill: #262626; stroke: #262626; stroke-width: 1.25"/>
      </g>
     </g>
     <g id="text_4">
      <!-- 18:00 -->
      <g style="fill: #262626" transform="translate(422.824582 299.97875) scale(0.08 -0.08)">
       <defs>
        <path id="DejaVuSans-38" d="M 2034 2216 
Q 1584 2216 1326 1975 
Q 1069 1734 1069 1313 
Q 1069 891 1326 650 
Q 1584 409 2034 409 
Q 2484 409 2743 651 
Q 3003 894 3003 1313 
Q 3003 1734 2745 1975 
Q 2488 2216 2034 2216 
z
M 1403 2484 
Q 997 2584 770 2862 
Q 544 3141 544 3541 
Q 544 4100 942 4425 
Q 1341 4750 2034 4750 
Q 2731 4750 3128 4425 
Q 3525 4100 3525 3541 
Q 3525 3141 3298 2862 
Q 3072 2584 2669 2484 
Q 3125 2378 3379 2068 
Q 3634 1759 3634 1313 
Q 3634 634 3220 271 
Q 2806 -91 2034 -91 
Q 1263 -91 848 271 
Q 434 634 434 1313 
Q 434 1759 690 2068 
Q 947 2378 1403 2484 
z
M 1172 3481 
Q 1172 3119 1398 2916 
Q 1625 2713 2034 2713 
Q 2441 2713 2670 2916 
Q 2900 3119 2900 3481 
Q 2900 3844 2670 4047 
Q 2441 4250 2034 4250 
Q 1625 4250 1398 4047 
Q 1172 3844 1172 3481 
z
" transform="scale(0.015625)"/>
       </defs>
       <use xlink:href="#DejaVuSans-31"/>
       <use xlink:href="#DejaVuSans-38" transform="translate(63.623047 0)"/>
       <use xlink:href="#DejaVuSans-3a" transform="translate(127.246094 0)"/>
       <use xlink:href="#DejaVuSans-30" transform="translate(160.9375 0)"/>
       <use xlink:href="#DejaVuSans-30" transform="translate(224.560547 0)"/>
      </g>
     </g>
    </g>
    <g id="xtick_5">
     <g id="line2d_5">
      <g>
       <use xlink:href="#mbb8949b3f5" x="548.13288" y="284.4" style="fill: #262626; stroke: #262626; stroke-width: 1.25"/>
      </g>
     </g>
     <g id="text_5">
      <!-- 18:30 -->
      <g style="fill: #262626" transform="translate(536.60538 299.97875) scale(0.08 -0.08)">
       <use xlink:href="#DejaVuSans-31"/>
       <use xlink:href="#DejaVuSans-38" transform="translate(63.623047 0)"/>
       <use xlink:href="#DejaVuSans-3a" transform="translate(127.246094 0)"/>
       <use xlink:href="#DejaVuSans-33" transform="translate(160.9375 0)"/>
       <use xlink:href="#DejaVuSans-30" transform="translate(224.560547 0)"/>
      </g>
     </g>
    </g>
    <g id="xtick_6">
     <g id="line2d_6">
      <g>
       <use xlink:href="#mbb8949b3f5" x="661.913679" y="284.4" style="fill: #262626; stroke: #262626; stroke-width: 1.25"/>
      </g>
     </g>
     <g id="text_6">
      <!-- 19:00 -->
      <g style="fill: #262626" transform="translate(650.386179 299.97875) scale(0.08 -0.08)">
       <defs>
        <path id="DejaVuSans-39" d="M 703 97 
L 703 672 
Q 941 559 1184 500 
Q 1428 441 1663 441 
Q 2288 441 2617 861 
Q 2947 1281 2994 2138 
Q 2813 1869 2534 1725 
Q 2256 1581 1919 1581 
Q 1219 1581 811 2004 
Q 403 2428 403 3163 
Q 403 3881 828 4315 
Q 1253 4750 1959 4750 
Q 2769 4750 3195 4129 
Q 3622 3509 3622 2328 
Q 3622 1225 3098 567 
Q 2575 -91 1691 -91 
Q 1453 -91 1209 -44 
Q 966 3 703 97 
z
M 1959 2075 
Q 2384 2075 2632 2365 
Q 2881 2656 2881 3163 
Q 2881 3666 2632 3958 
Q 2384 4250 1959 4250 
Q 1534 4250 1286 3958 
Q 1038 3666 1038 3163 
Q 1038 2656 1286 2365 
Q 1534 2075 1959 2075 
z
" transform="scale(0.015625)"/>
       </defs>
       <use xlink:href="#DejaVuSans-31"/>
       <use xlink:href="#DejaVuSans-39" transform="translate(63.623047 0)"/>
       <use xlink:href="#DejaVuSans-3a" transform="translate(127.246094 0)"/>
       <use xlink:href="#DejaVuSans-30" transform="translate(160.9375 0)"/>
       <use xlink:href="#DejaVuSans-30" transform="translate(224.560547 0)"/>
      </g>
     </g>
    </g>
   </g>
   <g id="matplotlib.axis_2"/>
   <g id="FillBetweenPolyCollection_1"/>
   <g id="FillBetweenPolyCollection_2"/>
   <g id="FillBetweenPolyCollection_3"/>
   <g id="FillBetweenPolyCollection_4"/>
   <g id="line2d_7">
    <path d="M 37.636364 112.222164 
L 157.106202 112.222164 
L 159.002549 111.557256 
L 160.898896 111.557256 
L 162.795242 110.892348 
L 164.691589 110.892348 
L 166.587935 110.227441 
L 168.484282 110.227441 
L 170.380629 109.562533 
L 172.276975 109.562533 
L 174.173322 108.897625 
L 176.069669 108.897625 
L 177.966015 108.232718 
L 179.862362 108.232718 
L 181.758709 107.56781 
L 183.655055 107.56781 
L 185.551402 106.902902 
L 187.447749 106.902902 
L 189.344095 106.237995 
L 191.240442 106.237995 
L 193.136788 105.573087 
L 195.033135 105.573087 
L 196.929482 104.908179 
L 198.825828 104.908179 
L 200.722175 104.243272 
L 202.618522 104.243272 
L 204.514868 103.578364 
L 206.411215 103.578364 
L 208.307562 102.913456 
L 210.203908 102.913456 
L 212.100255 102.248549 
L 213.996602 102.248549 
L 215.892948 101.583641 
L 217.789295 101.583641 
L 219.685641 100.918734 
L 221.581988 100.918734 
L 223.478335 100.253826 
L 225.374681 100.253826 
L 227.271028 99.588918 
L 229.167375 99.588918 
L 231.063721 98.924011 
L 232.960068 98.924011 
L 234.856415 98.259103 
L 236.752761 98.259103 
L 238.649108 97.594195 
L 240.545455 97.594195 
L 242.441801 96.929288 
L 244.338148 96.929288 
L 246.234494 96.26438 
L 248.130841 96.26438 
L 250.027188 95.599472 
L 251.923534 95.599472 
L 253.819881 94.934565 
L 255.716228 94.934565 
L 257.612574 94.269657 
L 259.508921 94.269657 
L 261.405268 93.604749 
L 263.301614 93.604749 
L 265.197961 92.939842 
L 270.887001 92.939842 
L 272.783348 90.945119 
L 274.679694 90.945119 
L 276.576041 88.950396 
L 278.472387 88.950396 
L 280.368734 86.955673 
L 282.265081 86.955673 
L 284.161427 84.96095 
L 286.057774 84.96095 
L 287.954121 82.966227 
L 289.850467 82.966227 
L 291.746814 80.971504 
L 293.643161 80.971504 
L 295.539507 78.976781 
L 297.435854 78.976781 
L 299.332201 76.982058 
L 301.228547 76.982058 
L 303.124894 74.987335 
L 308.813934 74.987335 
L 310.71028 70.997889 
L 312.606627 70.997889 
L 314.502974 67.008443 
L 316.39932 67.008443 
L 318.295667 63.018997 
L 320.192014 63.018997 
L 322.08836 59.029551 
L 323.984707 59.029551 
L 325.881054 55.040106 
L 327.7774 55.040106 
L 329.673747 51.05066 
L 331.570093 51.05066 
L 333.46644 47.061214 
L 335.362787 47.061214 
L 337.259133 43.071768 
L 339.15548 43.071768 
L 341.051827 39.082322 
L 346.740867 39.082322 
L 348.637213 38.417414 
L 350.53356 38.417414 
L 352.429907 37.752507 
L 354.326253 37.752507 
L 356.2226 37.087599 
L 358.118946 37.087599 
L 360.015293 36.422691 
L 361.91164 36.422691 
L 363.807986 35.757784 
L 365.704333 35.757784 
L 367.60068 35.092876 
L 369.497026 35.092876 
L 371.393373 34.427968 
L 373.28972 34.427968 
L 375.186066 33.763061 
L 377.082413 33.763061 
L 378.97876 33.098153 
L 380.875106 33.098153 
L 382.771453 32.433245 
L 384.6678 32.433245 
L 386.564146 31.768338 
L 388.460493 31.768338 
L 390.356839 31.10343 
L 392.253186 31.10343 
L 394.149533 30.438522 
L 396.045879 30.438522 
L 397.942226 29.773615 
L 399.838573 29.773615 
L 401.734919 29.108707 
L 403.631266 29.108707 
L 405.527613 28.443799 
L 407.423959 28.443799 
L 409.320306 27.778892 
L 411.216653 27.778892 
L 413.112999 27.113984 
L 415.009346 27.113984 
L 416.905692 26.449077 
L 418.802039 26.449077 
L 420.698386 25.784169 
L 422.594732 25.784169 
L 424.491079 25.119261 
L 426.387426 25.119261 
L 428.283772 24.454354 
L 430.180119 24.454354 
L 432.076466 23.789446 
L 433.972812 23.789446 
L 435.869159 23.124538 
L 437.765506 23.124538 
L 439.661852 22.459631 
L 441.558199 22.459631 
L 443.454545 21.794723 
L 445.350892 21.794723 
L 447.247239 21.129815 
L 449.143585 21.129815 
L 451.039932 20.464908 
L 452.936279 20.464908 
L 454.832625 19.8 
L 623.607477 19.8 
L 623.607477 19.8 
" clip-path="url(#p610bb15546)" style="fill: none; stroke: #12711c; stroke-opacity: 0.1; stroke-width: 2; stroke-linecap: round"/>
   </g>
   <g id="line2d_8">
    <path d="M 41.429057 271.8 
L 157.106202 271.8 
L 159.002549 271.112164 
L 160.898896 271.112164 
L 162.795242 270.424329 
L 164.691589 270.424329 
L 166.587935 269.736493 
L 168.484282 269.736493 
L 170.380629 269.048658 
L 172.276975 269.048658 
L 174.173322 268.360822 
L 176.069669 268.360822 
L 177.966015 267.672987 
L 179.862362 267.672987 
L 181.758709 266.985151 
L 183.655055 266.985151 
L 185.551402 266.297316 
L 187.447749 266.297316 
L 189.344095 265.60948 
L 191.240442 265.60948 
L 193.136788 264.921645 
L 195.033135 264.921645 
L 196.929482 264.233809 
L 198.825828 264.233809 
L 200.722175 263.545974 
L 202.618522 263.545974 
L 204.514868 262.858138 
L 206.411215 262.858138 
L 208.307562 262.170303 
L 210.203908 262.170303 
L 212.100255 261.482467 
L 213.996602 261.482467 
L 215.892948 260.794632 
L 217.789295 260.794632 
L 219.685641 260.106796 
L 221.581988 260.106796 
L 223.478335 259.418961 
L 225.374681 259.418961 
L 227.271028 258.731125 
L 229.167375 258.731125 
L 231.063721 258.04329 
L 232.960068 258.04329 
L 234.856415 257.355454 
L 236.752761 257.355454 
L 238.649108 256.667619 
L 240.545455 256.667619 
L 242.441801 255.979783 
L 244.338148 255.979783 
L 246.234494 255.291948 
L 248.130841 255.291948 
L 250.027188 254.604112 
L 251.923534 254.604112 
L 253.819881 253.916277 
L 255.716228 253.916277 
L 257.612574 253.228441 
L 259.508921 253.228441 
L 261.405268 252.540606 
L 263.301614 252.540606 
L 265.197961 251.85277 
L 267.094308 251.85277 
L 268.990654 252.540606 
L 270.887001 252.540606 
L 272.783348 251.164935 
L 274.679694 251.164935 
L 276.576041 249.789264 
L 278.472387 249.789264 
L 280.368734 248.413593 
L 282.265081 248.413593 
L 284.161427 247.037922 
L 286.057774 247.037922 
L 287.954121 245.662251 
L 289.850467 245.662251 
L 291.746814 244.28658 
L 293.643161 244.28658 
L 295.539507 242.910909 
L 297.435854 242.910909 
L 299.332201 241.535238 
L 301.228547 241.535238 
L 303.124894 240.159567 
L 305.02124 240.159567 
L 306.917587 240.847402 
L 308.813934 240.847402 
L 310.71028 237.408225 
L 312.606627 237.408225 
L 314.502974 233.969047 
L 316.39932 233.969047 
L 318.295667 230.52987 
L 320.192014 230.52987 
L 322.08836 227.090692 
L 323.984707 227.090692 
L 325.881054 223.651515 
L 327.7774 223.651515 
L 329.673747 220.212337 
L 331.570093 220.212337 
L 333.46644 216.77316 
L 335.362787 216.77316 
L 337.259133 213.333982 
L 339.15548 213.333982 
L 341.051827 209.894805 
L 342.948173 209.894805 
L 344.84452 210.58264 
L 377.082413 210.58264 
L 378.97876 209.894805 
L 380.875106 209.894805 
L 382.771453 211.270476 
L 384.6678 211.270476 
L 386.564146 212.646147 
L 388.460493 212.646147 
L 390.356839 214.021818 
L 392.253186 214.021818 
L 394.149533 215.397489 
L 396.045879 215.397489 
L 397.942226 216.77316 
L 399.838573 216.77316 
L 401.734919 218.148831 
L 403.631266 218.148831 
L 405.527613 219.524502 
L 407.423959 219.524502 
L 409.320306 220.900173 
L 411.216653 220.900173 
L 413.112999 222.275844 
L 415.009346 222.275844 
L 416.905692 221.588008 
L 418.802039 221.588008 
L 420.698386 225.027186 
L 422.594732 225.027186 
L 424.491079 228.466363 
L 426.387426 228.466363 
L 428.283772 231.905541 
L 430.180119 231.905541 
L 432.076466 235.344718 
L 433.972812 235.344718 
L 435.869159 238.783896 
L 437.765506 238.783896 
L 439.661852 242.223073 
L 441.558199 242.223073 
L 443.454545 245.662251 
L 445.350892 245.662251 
L 447.247239 249.101428 
L 449.143585 249.101428 
L 451.039932 252.540606 
L 452.936279 252.540606 
L 454.832625 251.85277 
L 456.728972 251.85277 
L 458.625319 252.540606 
L 460.521665 252.540606 
L 462.418012 253.228441 
L 464.314359 253.228441 
L 466.210705 253.916277 
L 468.107052 253.916277 
L 470.003398 254.604112 
L 471.899745 254.604112 
L 473.796092 255.291948 
L 475.692438 255.291948 
L 477.588785 255.979783 
L 479.485132 255.979783 
L 481.381478 256.667619 
L 483.277825 256.667619 
L 485.174172 257.355454 
L 487.070518 257.355454 
L 488.966865 258.04329 
L 490.863212 258.04329 
L 492.759558 258.731125 
L 494.655905 258.731125 
L 496.552251 259.418961 
L 498.448598 259.418961 
L 500.344945 260.106796 
L 502.241291 260.106796 
L 504.137638 260.794632 
L 506.033985 260.794632 
L 507.930331 261.482467 
L 509.826678 261.482467 
L 511.723025 262.170303 
L 513.619371 262.170303 
L 515.515718 262.858138 
L 517.412065 262.858138 
L 519.308411 263.545974 
L 521.204758 263.545974 
L 523.101105 264.233809 
L 524.997451 264.233809 
L 526.893798 264.921645 
L 528.790144 264.921645 
L 530.686491 265.60948 
L 532.582838 265.60948 
L 534.479184 266.297316 
L 536.375531 266.297316 
L 538.271878 266.985151 
L 540.168224 266.985151 
L 542.064571 267.672987 
L 543.960918 267.672987 
L 545.857264 268.360822 
L 547.753611 268.360822 
L 549.649958 269.048658 
L 551.546304 269.048658 
L 553.442651 269.736493 
L 555.338997 269.736493 
L 557.235344 270.424329 
L 559.131691 270.424329 
L 561.028037 271.112164 
L 562.924384 271.112164 
L 564.820731 271.8 
L 646.363636 271.8 
L 646.363636 271.8 
" clip-path="url(#p610bb15546)" style="fill: none; stroke: #001c7f; stroke-opacity: 0.1; stroke-width: 2; stroke-linecap: round"/>
   </g>
   <g id="line2d_9">
    <path d="M 41.429057 271.8 
L 157.106202 271.8 
L 159.002549 271.116392 
L 160.898896 271.106003 
L 162.795242 270.433917 
L 164.691589 270.413768 
L 166.587935 269.752476 
L 168.484282 269.723141 
L 170.380629 269.071979 
L 172.276975 269.033984 
L 174.173322 268.392348 
L 176.069669 268.346174 
L 177.966015 267.713514 
L 179.862362 267.659602 
L 181.758709 267.035412 
L 183.655055 266.97417 
L 185.551402 266.357987 
L 187.447749 266.289791 
L 189.344095 265.681187 
L 191.240442 265.606385 
L 193.136788 265.004968 
L 195.033135 264.923882 
L 196.929482 264.329288 
L 198.825828 264.242216 
L 200.722175 263.654108 
L 202.618522 263.56133 
L 204.514868 262.979396 
L 206.411215 262.881171 
L 208.307562 262.305119 
L 210.203908 262.201689 
L 212.100255 261.631249 
L 213.996602 261.52284 
L 215.892948 260.957761 
L 217.789295 260.844585 
L 219.685641 260.284631 
L 221.581988 260.166887 
L 223.478335 259.611836 
L 225.374681 259.48971 
L 227.271028 258.939356 
L 229.167375 258.813024 
L 231.063721 258.267174 
L 232.960068 258.1368 
L 234.856415 257.595271 
L 236.752761 257.461011 
L 238.649108 256.923632 
L 240.545455 256.785632 
L 242.441801 256.252243 
L 244.338148 256.110642 
L 246.234494 255.581089 
L 248.130841 255.436018 
L 250.027188 254.910158 
L 251.923534 254.761741 
L 253.819881 254.239439 
L 255.716228 254.087793 
L 257.612574 253.56892 
L 259.508921 253.414157 
L 261.405268 252.898591 
L 263.301614 252.740817 
L 265.197961 252.228443 
L 267.094308 252.067757 
L 268.990654 252.233185 
L 270.887001 252.075133 
L 272.783348 250.214095 
L 274.679694 250.042506 
L 276.576041 248.195778 
L 278.472387 248.011082 
L 280.368734 246.178199 
L 282.265081 245.980805 
L 284.161427 244.161323 
L 286.057774 243.951622 
L 287.954121 242.145119 
L 289.850467 241.923483 
L 291.746814 240.129555 
L 293.643161 239.896342 
L 295.539507 238.114605 
L 297.435854 237.870154 
L 299.332201 236.100241 
L 301.228547 235.844878 
L 303.124894 234.086438 
L 305.02124 233.820475 
L 306.917587 234.093181 
L 308.813934 233.830964 
L 310.71028 230.060422 
L 312.606627 229.774142 
L 314.502974 226.02885 
L 316.39932 225.719167 
L 318.295667 221.998417 
L 320.192014 221.665963 
L 322.08836 217.969077 
L 323.984707 217.614459 
L 325.881054 213.940786 
L 327.7774 213.564588 
L 329.673747 209.913504 
L 331.570093 209.516287 
L 333.46644 205.887193 
L 335.362787 205.469495 
L 337.259133 201.861815 
L 339.15548 201.424154 
L 341.051827 197.837335 
L 342.948173 197.380211 
L 344.84452 197.847493 
L 346.740867 197.396013 
L 348.637213 197.185199 
L 350.53356 196.73517 
L 352.429907 196.522841 
L 354.326253 196.074228 
L 356.2226 195.860422 
L 358.118946 195.413193 
L 360.015293 195.197945 
L 361.91164 194.752066 
L 363.807986 194.535411 
L 365.704333 194.090851 
L 367.60068 193.872823 
L 369.497026 193.429551 
L 371.393373 193.210182 
L 373.28972 192.76817 
L 375.186066 192.54749 
L 377.082413 192.106709 
L 378.97876 191.884749 
L 380.875106 191.445172 
L 382.771453 191.221961 
L 384.6678 190.78356 
L 386.564146 190.559126 
L 388.460493 190.121877 
L 390.356839 189.896246 
L 392.253186 189.460124 
L 394.149533 189.233324 
L 396.045879 188.798305 
L 397.942226 188.57036 
L 399.838573 188.13642 
L 401.734919 187.907355 
L 403.631266 187.474472 
L 405.527613 187.244311 
L 407.423959 186.812464 
L 409.320306 186.581229 
L 411.216653 186.150396 
L 413.112999 185.91811 
L 415.009346 185.488271 
L 416.905692 185.254955 
L 418.802039 184.82609 
L 420.698386 184.591766 
L 422.594732 184.163855 
L 424.491079 183.928543 
L 426.387426 183.501568 
L 428.283772 183.265287 
L 430.180119 182.839229 
L 432.076466 182.601999 
L 433.972812 182.176842 
L 435.869159 181.938681 
L 437.765506 181.514406 
L 439.661852 181.275332 
L 441.558199 180.851924 
L 443.454545 180.611955 
L 445.350892 180.189397 
L 447.247239 179.948549 
L 449.143585 179.526825 
L 451.039932 179.285115 
L 452.936279 178.864211 
L 454.832625 178.621655 
L 456.728972 178.201554 
L 458.625319 178.628468 
L 460.521665 178.212151 
L 462.418012 178.635158 
L 464.314359 178.222559 
L 466.210705 178.641731 
L 468.107052 178.232783 
L 470.003398 178.648188 
L 471.899745 178.242827 
L 473.796092 178.654533 
L 475.692438 178.252697 
L 477.588785 178.660768 
L 479.485132 178.262397 
L 481.381478 178.666897 
L 483.277825 178.27193 
L 485.174172 178.672922 
L 487.070518 178.281302 
L 488.966865 178.678845 
L 490.863212 178.290517 
L 492.759558 178.68467 
L 494.655905 178.299578 
L 496.552251 178.690399 
L 498.448598 178.308489 
L 500.344945 178.696034 
L 502.241291 178.317254 
L 504.137638 178.701577 
L 506.033985 178.325877 
L 507.930331 178.70703 
L 509.826678 178.33436 
L 511.723025 178.712397 
L 513.619371 178.342708 
L 515.515718 178.717678 
L 517.412065 178.350923 
L 519.308411 178.722876 
L 521.204758 178.359009 
L 523.101105 178.727993 
L 524.997451 178.366969 
L 526.893798 178.733031 
L 528.790144 178.374805 
L 530.686491 178.737991 
L 532.582838 178.382521 
L 534.479184 178.742875 
L 536.375531 178.390119 
L 538.271878 178.747685 
L 540.168224 178.397601 
L 542.064571 178.752423 
L 543.960918 178.404972 
L 545.857264 178.757091 
L 547.753611 178.412232 
L 549.649958 178.761689 
L 551.546304 178.419384 
L 553.442651 178.766219 
L 555.338997 178.426432 
L 557.235344 178.770684 
L 559.131691 178.433376 
L 561.028037 178.775083 
L 562.924384 178.44022 
L 564.820731 178.712929 
L 625.503823 178.641138 
L 627.40017 178.976001 
L 629.296517 178.635761 
L 631.192863 178.973068 
L 633.08921 178.630304 
L 634.985556 178.970092 
L 636.881903 178.624767 
L 638.77825 178.967071 
L 640.674596 178.619147 
L 642.570943 178.964006 
L 644.46729 178.613443 
L 646.363636 178.960894 
L 646.363636 178.960894 
" clip-path="url(#p610bb15546)" style="fill: none; stroke: #b1400d; stroke-width: 2; stroke-linecap: round"/>
   </g>
   <g id="line2d_10">
    <path d="M 41.429057 271.8 
L 157.106202 271.8 
L 159.002549 271.116392 
L 160.898896 271.106003 
L 162.795242 270.433917 
L 164.691589 270.413768 
L 166.587935 269.752476 
L 168.484282 269.723141 
L 170.380629 269.071979 
L 172.276975 269.033984 
L 174.173322 268.392348 
L 176.069669 268.346174 
L 177.966015 267.713514 
L 179.862362 267.659602 
L 181.758709 267.035412 
L 183.655055 266.97417 
L 185.551402 266.357987 
L 187.447749 266.289791 
L 189.344095 265.681187 
L 191.240442 265.606385 
L 193.136788 265.004968 
L 195.033135 264.923882 
L 196.929482 264.329288 
L 198.825828 264.242216 
L 200.722175 263.654108 
L 202.618522 263.56133 
L 204.514868 262.979396 
L 206.411215 262.881171 
L 208.307562 262.305119 
L 210.203908 262.201689 
L 212.100255 261.631249 
L 213.996602 261.52284 
L 215.892948 260.957761 
L 217.789295 260.844585 
L 219.685641 260.284631 
L 221.581988 260.166887 
L 223.478335 259.611836 
L 225.374681 259.48971 
L 227.271028 258.939356 
L 229.167375 258.813024 
L 231.063721 258.267174 
L 232.960068 258.1368 
L 234.856415 257.595271 
L 236.752761 257.461011 
L 238.649108 256.923632 
L 240.545455 256.785632 
L 242.441801 256.252243 
L 244.338148 256.110642 
L 246.234494 255.581089 
L 248.130841 255.436018 
L 250.027188 254.910158 
L 251.923534 254.761741 
L 253.819881 254.239439 
L 255.716228 254.087793 
L 257.612574 253.56892 
L 259.508921 253.414157 
L 261.405268 252.898591 
L 263.301614 252.740817 
L 265.197961 252.228443 
L 267.094308 252.067757 
L 268.990654 252.233185 
L 270.887001 252.075133 
L 272.783348 250.214095 
L 274.679694 250.042506 
L 276.576041 248.195778 
L 278.472387 248.011082 
L 280.368734 246.178199 
L 282.265081 245.980805 
L 284.161427 244.161323 
L 286.057774 243.951622 
L 287.954121 242.145119 
L 289.850467 241.923483 
L 291.746814 240.129555 
L 293.643161 239.896342 
L 295.539507 238.114605 
L 297.435854 237.870154 
L 299.332201 236.100241 
L 301.228547 235.844878 
L 303.124894 234.086438 
L 305.02124 233.820475 
L 306.917587 234.093181 
L 308.813934 233.830964 
L 310.71028 230.060422 
L 312.606627 229.774142 
L 314.502974 226.02885 
L 316.39932 225.719167 
L 318.295667 221.998417 
L 320.192014 221.665963 
L 322.08836 217.969077 
L 323.984707 217.614459 
L 325.881054 213.940786 
L 327.7774 213.564588 
L 329.673747 209.913504 
L 331.570093 209.516287 
L 333.46644 205.887193 
L 335.362787 205.469495 
L 337.259133 201.861815 
L 339.15548 201.424154 
L 341.051827 197.837335 
L 342.948173 197.380211 
L 344.84452 197.847493 
L 346.740867 197.396013 
L 348.637213 197.185199 
L 350.53356 196.73517 
L 352.429907 196.522841 
L 354.326253 196.074228 
L 356.2226 195.860422 
L 358.118946 195.413193 
L 360.015293 195.197945 
L 361.91164 194.752066 
L 363.807986 194.535411 
L 365.704333 194.090851 
L 367.60068 193.872823 
L 369.497026 193.429551 
L 371.393373 193.210182 
L 373.28972 192.76817 
L 375.186066 192.54749 
L 377.082413 192.106709 
L 378.97876 191.884749 
L 380.875106 191.445172 
L 382.771453 191.221961 
L 384.6678 190.78356 
L 386.564146 190.559126 
L 388.460493 190.121877 
L 390.356839 189.896246 
L 392.253186 189.460124 
L 394.149533 189.233324 
L 396.045879 188.798305 
L 397.942226 188.57036 
L 399.838573 188.13642 
L 401.734919 187.907355 
L 403.631266 187.474472 
L 405.527613 187.244311 
L 407.423959 186.812464 
L 409.320306 186.581229 
L 411.216653 186.150396 
L 413.112999 185.91811 
L 415.009346 185.488271 
L 416.905692 185.254955 
L 418.802039 184.82609 
L 420.698386 184.591766 
L 422.594732 184.163855 
L 424.491079 183.928543 
L 426.387426 183.501568 
L 428.283772 183.265287 
L 430.180119 182.839229 
L 432.076466 182.601999 
L 433.972812 182.176842 
L 435.869159 181.938681 
L 437.765506 181.514406 
L 439.661852 181.275332 
L 441.558199 180.851924 
L 443.454545 180.611955 
L 445.350892 180.189397 
L 447.247239 179.948549 
L 449.143585 179.526825 
L 451.039932 179.285115 
L 452.936279 178.864211 
L 454.832625 178.621655 
L 456.728972 178.201554 
L 458.625319 178.628468 
L 460.521665 178.212151 
L 462.418012 178.635158 
L 464.314359 178.222559 
L 466.210705 178.641731 
L 468.107052 178.232783 
L 470.003398 178.648188 
L 471.899745 178.242827 
L 473.796092 178.654533 
L 475.692438 178.252697 
L 477.588785 178.660768 
L 479.485132 178.262397 
L 481.381478 178.666897 
L 483.277825 178.27193 
L 485.174172 178.672922 
L 487.070518 178.281302 
L 488.966865 178.678845 
L 490.863212 178.290517 
L 492.759558 178.68467 
L 494.655905 178.299578 
L 496.552251 178.690399 
L 498.448598 178.308489 
L 500.344945 178.696034 
L 502.241291 178.317254 
L 504.137638 178.701577 
L 506.033985 178.325877 
L 507.930331 178.70703 
L 509.826678 178.33436 
L 511.723025 178.712397 
L 513.619371 178.342708 
L 515.515718 178.717678 
L 517.412065 178.350923 
L 519.308411 178.722876 
L 521.204758 178.359009 
L 523.101105 178.727993 
L 524.997451 178.366969 
L 526.893798 178.733031 
L 528.790144 178.374805 
L 530.686491 178.737991 
L 532.582838 178.382521 
L 534.479184 178.742875 
L 536.375531 178.390119 
L 538.271878 178.747685 
L 540.168224 178.397601 
L 542.064571 178.752423 
L 543.960918 178.404972 
L 545.857264 178.757091 
L 547.753611 178.412232 
L 549.649958 178.761689 
L 551.546304 178.419384 
L 553.442651 178.766219 
L 555.338997 178.426432 
L 557.235344 178.770684 
L 559.131691 178.433376 
L 561.028037 178.775083 
L 562.924384 178.44022 
L 564.820731 178.712929 
L 625.503823 178.641138 
L 627.40017 178.976001 
L 629.296517 178.635761 
L 631.192863 178.973068 
L 633.08921 178.630304 
L 634.985556 178.970092 
L 636.881903 178.624767 
L 638.77825 178.967071 
L 640.674596 178.619147 
L 642.570943 178.964006 
L 644.46729 178.613443 
L 646.363636 178.960894 
L 646.363636 178.960894 
" clip-path="url(#p610bb15546)" style="fill: none; stroke: #591e71; stroke-opacity: 0; stroke-width: 2; stroke-linecap: round"/>
   </g>
   <g id="patch_3">
    <path d="M 7.2 284.4 
L 7.2 7.2 
" style="fill: none; stroke: #262626; stroke-width: 1.25; stroke-linejoin: miter; stroke-linecap: square"/>
   </g>
   <g id="patch_4">
    <path d="M 676.8 284.4 
L 676.8 7.2 
" style="fill: none; stroke: #262626; stroke-width: 1.25; stroke-linejoin: miter; stroke-linecap: square"/>
   </g>
   <g id="patch_5">
    <path d="M 7.2 284.4 
L 676.8 284.4 
" style="fill: none; stroke: #262626; stroke-width: 1.25; stroke-linejoin: miter; stroke-linecap: square"/>
   </g>
   <g id="patch_6">
    <path d="M 7.2 7.2 
L 676.8 7.2 
" style="fill: none; stroke: #262626; stroke-width: 1.25; stroke-linejoin: miter; stroke-linecap: square"/>
   </g>
  </g>
 </g>
 <defs>
  <clipPath id="p610bb15546">
   <rect x="7.2" y="7.2" width="669.6" height="277.2"/>
  </clipPath>
 </defs>
</svg>
