<?xml version="1.0" encoding="utf-8" standalone="no"?>
<!DOCTYPE svg PUBLIC "-//W3C//DTD SVG 1.1//EN"
  "http://www.w3.org/Graphics/SVG/1.1/DTD/svg11.dtd">
<svg xmlns:xlink="http://www.w3.org/1999/xlink" width="685.926246pt" height="308.8425pt" viewBox="0 0 685.926246 308.8425" xmlns="http://www.w3.org/2000/svg" version="1.1">
 <metadata>
  <rdf:RDF xmlns:dc="http://purl.org/dc/elements/1.1/" xmlns:cc="http://creativecommons.org/ns#" xmlns:rdf="http://www.w3.org/1999/02/22-rdf-syntax-ns#">
   <cc:Work>
    <dc:type rdf:resource="http://purl.org/dc/dcmitype/StillImage"/>
    <dc:date>2026-05-08T15:46:02.366758</dc:date>
    <dc:format>image/svg+xml</dc:format>
    <dc:creator>
     <cc:Agent>
      <dc:title>Matplotlib v3.10.9, https://matplotlib.org/</dc:title>
     </cc:Agent>
    </dc:creator>
   </cc:Work>
  </rdf:RDF>
 </metadata>
 <defs>
  <style type="text/css">*{stroke-linejoin: round; stroke-linecap: butt}</style>
 </defs>
 <g id="figure_1">
  <g id="patch_1">
   <path d="M 0 308.8425 
L 685.926246 308.8425 
L 685.926246 0 
L 0 0 
z
" style="fill: #f2f2f2"/>
  </g>
  <g id="axes_1">
   <g id="patch_2">
    <path d="M 7.2 284.4 
L 676.8 284.4 
L 676.8 7.2 
L 7.2 7.2 
z
" style="fill: #f2f2f2"/>
   </g>
   <g id="matplotlib.axis_1">
    <g id="xtick_1">
     <g id="line2d_1">
      <defs>
       <path id="m27e1c9b130" d="M 0 0 
L 0 6 
" style="stroke: #262626; stroke-width: 1.25"/>
      </defs>
      <g>
       <use xlink:href="#m27e1c9b130" x="37.480878" y="284.4" style="fill: #262626; stroke: #262626; stroke-width: 1.25"/>
      </g>
     </g>
     <g id="text_1">
      <!-- 16:45 -->
      <g style="fill: #262626" transform="translate(25.953378 299.97875) scale(0.08 -0.08)">
       <defs>
        <path id="DejaVuSans-31" d="M 794 531 
L 1825 531 
L 1825 4091 
L 703 3866 
L 703 4441 
L 1819 4666 
L 2450 4666 
L 2450 531 
L 3481 531 
L 3481 0 
L 794 0 
L 794 531 
z
" transform="scale(0.015625)"/>
        <path id="DejaVuSans-36" d="M 2113 2584 
Q 1688 2584 1439 2293 
Q 1191 2003 1191 1497 
Q 1191 994 1439 701 
Q 1688 409 2113 409 
Q 2538 409 2786 701 
Q 3034 994 3034 1497 
Q 3034 2003 2786 2293 
Q 2538 2584 2113 2584 
z
M 3366 4563 
L 3366 3988 
Q 3128 4100 2886 4159 
Q 2644 4219 2406 4219 
Q 1781 4219 1451 3797 
Q 1122 3375 1075 2522 
Q 1259 2794 1537 2939 
Q 1816 3084 2150 3084 
Q 2853 3084 3261 2657 
Q 3669 2231 3669 1497 
Q 3669 778 3244 343 
Q 2819 -91 2113 -91 
Q 1303 -91 875 529 
Q 447 1150 447 2328 
Q 447 3434 972 4092 
Q 1497 4750 2381 4750 
Q 2619 4750 2861 4703 
Q 3103 4656 3366 4563 
z
" transform="scale(0.015625)"/>
        <path id="DejaVuSans-3a" d="M 750 794 
L 1409 794 
L 1409 0 
L 750 0 
L 750 794 
z
M 750 3309 
L 1409 3309 
L 1409 2516 
L 750 2516 
L 750 3309 
z
" transform="scale(0.015625)"/>
        <path id="DejaVuSans-34" d="M 2419 4116 
L 825 1625 
L 2419 1625 
L 2419 4116 
z
M 2253 4666 
L 3047 4666 
L 3047 1625 
L 3713 1625 
L 3713 1100 
L 3047 1100 
L 3047 0 
L 2419 0 
L 2419 1100 
L 313 1100 
L 313 1709 
L 2253 4666 
z
" transform="scale(0.015625)"/>
        <path id="DejaVuSans-35" d="M 691 4666 
L 3169 4666 
L 3169 4134 
L 1269 4134 
L 1269 2991 
Q 1406 3038 1543 3061 
Q 1681 3084 1819 3084 
Q 2600 3084 3056 2656 
Q 3513 2228 3513 1497 
Q 3513 744 3044 326 
Q 2575 -91 1722 -91 
Q 1428 -91 1123 -41 
Q 819 9 494 109 
L 494 744 
Q 775 591 1075 516 
Q 1375 441 1709 441 
Q 2250 441 2565 725 
Q 2881 1009 2881 1497 
Q 2881 1984 2565 2268 
Q 2250 2553 1709 2553 
Q 1456 2553 1204 2497 
Q 953 2441 691 2322 
L 691 4666 
z
" transform="scale(0.015625)"/>
       </defs>
       <use xlink:href="#DejaVuSans-31"/>
       <use xlink:href="#DejaVuSans-36" transform="translate(63.623047 0)"/>
       <use xlink:href="#DejaVuSans-3a" transform="translate(127.246094 0)"/>
       <use xlink:href="#DejaVuSans-34" transform="translate(160.9375 0)"/>
       <use xlink:href="#DejaVuSans-35" transform="translate(224.560547 0)"/>
      </g>
     </g>
    </g>
    <g id="xtick_2">
     <g id="line2d_2">
      <g>
       <use xlink:href="#m27e1c9b130" x="107.44953" y="284.4" style="fill: #262626; stroke: #262626; stroke-width: 1.25"/>
      </g>
     </g>
     <g id="text_2">
      <!-- 17:00 -->
      <g style="fill: #262626" transform="translate(95.92203 299.97875) scale(0.08 -0.08)">
       <defs>
        <path id="DejaVuSans-37" d="M 525 4666 
L 3525 4666 
L 3525 4397 
L 1831 0 
L 1172 0 
L 2766 4134 
L 525 4134 
L 525 4666 
z
" transform="scale(0.015625)"/>
        <path id="DejaVuSans-30" d="M 2034 4250 
Q 1547 4250 1301 3770 
Q 1056 3291 1056 2328 
Q 1056 1369 1301 889 
Q 1547 409 2034 409 
Q 2525 409 2770 889 
Q 3016 1369 3016 2328 
Q 3016 3291 2770 3770 
Q 2525 4250 2034 4250 
z
M 2034 4750 
Q 2819 4750 3233 4129 
Q 3647 3509 3647 2328 
Q 3647 1150 3233 529 
Q 2819 -91 2034 -91 
Q 1250 -91 836 529 
Q 422 1150 422 2328 
Q 422 3509 836 4129 
Q 1250 4750 2034 4750 
z
" transform="scale(0.015625)"/>
       </defs>
       <use xlink:href="#DejaVuSans-31"/>
       <use xlink:href="#DejaVuSans-37" transform="translate(63.623047 0)"/>
       <use xlink:href="#DejaVuSans-3a" transform="translate(127.246094 0)"/>
       <use xlink:href="#DejaVuSans-30" transform="translate(160.9375 0)"/>
       <use xlink:href="#DejaVuSans-30" transform="translate(224.560547 0)"/>
      </g>
     </g>
    </g>
    <g id="xtick_3">
     <g id="line2d_3">
      <g>
       <use xlink:href="#m27e1c9b130" x="177.418182" y="284.4" style="fill: #262626; stroke: #262626; stroke-width: 1.25"/>
      </g>
     </g>
     <g id="text_3">
      <!-- 17:15 -->
      <g style="fill: #262626" transform="translate(165.890682 299.97875) scale(0.08 -0.08)">
       <use xlink:href="#DejaVuSans-31"/>
       <use xlink:href="#DejaVuSans-37" transform="translate(63.623047 0)"/>
       <use xlink:href="#DejaVuSans-3a" transform="translate(127.246094 0)"/>
       <use xlink:href="#DejaVuSans-31" transform="translate(160.9375 0)"/>
       <use xlink:href="#DejaVuSans-35" transform="translate(224.560547 0)"/>
      </g>
     </g>
    </g>
    <g id="xtick_4">
     <g id="line2d_4">
      <g>
       <use xlink:href="#m27e1c9b130" x="247.386834" y="284.4" style="fill: #262626; stroke: #262626; stroke-width: 1.25"/>
      </g>
     </g>
     <g id="text_4">
      <!-- 17:30 -->
      <g style="fill: #262626" transform="translate(235.859334 299.97875) scale(0.08 -0.08)">
       <defs>
        <path id="DejaVuSans-33" d="M 2597 2516 
Q 3050 2419 3304 2112 
Q 3559 1806 3559 1356 
Q 3559 666 3084 287 
Q 2609 -91 1734 -91 
Q 1441 -91 1130 -33 
Q 819 25 488 141 
L 488 750 
Q 750 597 1062 519 
Q 1375 441 1716 441 
Q 2309 441 2620 675 
Q 2931 909 2931 1356 
Q 2931 1769 2642 2001 
Q 2353 2234 1838 2234 
L 1294 2234 
L 1294 2753 
L 1863 2753 
Q 2328 2753 2575 2939 
Q 2822 3125 2822 3475 
Q 2822 3834 2567 4026 
Q 2313 4219 1838 4219 
Q 1578 4219 1281 4162 
Q 984 4106 628 3988 
L 628 4550 
Q 988 4650 1302 4700 
Q 1616 4750 1894 4750 
Q 2613 4750 3031 4423 
Q 3450 4097 3450 3541 
Q 3450 3153 3228 2886 
Q 3006 2619 2597 2516 
z
" transform="scale(0.015625)"/>
       </defs>
       <use xlink:href="#DejaVuSans-31"/>
       <use xlink:href="#DejaVuSans-37" transform="translate(63.623047 0)"/>
       <use xlink:href="#DejaVuSans-3a" transform="translate(127.246094 0)"/>
       <use xlink:href="#DejaVuSans-33" transform="translate(160.9375 0)"/>
       <use xlink:href="#DejaVuSans-30" transform="translate(224.560547 0)"/>
      </g>
     </g>
    </g>
    <g id="xtick_5">
     <g id="line2d_5">
      <g>
       <use xlink:href="#m27e1c9b130" x="317.355486" y="284.4" style="fill: #262626; stroke: #262626; stroke-width: 1.25"/>
      </g>
     </g>
     <g id="text_5">
      <!-- 17:45 -->
      <g style="fill: #262626" transform="translate(305.827986 299.97875) scale(0.08 -0.08)">
       <use xlink:href="#DejaVuSans-31"/>
       <use xlink:href="#DejaVuSans-37" transform="translate(63.623047 0)"/>
       <use xlink:href="#DejaVuSans-3a" transform="translate(127.246094 0)"/>
       <use xlink:href="#DejaVuSans-34" transform="translate(160.9375 0)"/>
       <use xlink:href="#DejaVuSans-35" transform="translate(224.560547 0)"/>
      </g>
     </g>
    </g>
    <g id="xtick_6">
     <g id="line2d_6">
      <g>
       <use xlink:href="#m27e1c9b130" x="387.324138" y="284.4" style="fill: #262626; stroke: #262626; stroke-width: 1.25"/>
      </g>
     </g>
     <g id="text_6">
      <!-- 18:00 -->
      <g style="fill: #262626" transform="translate(375.796638 299.97875) scale(0.08 -0.08)">
       <defs>
        <path id="DejaVuSans-38" d="M 2034 2216 
Q 1584 2216 1326 1975 
Q 1069 1734 1069 1313 
Q 1069 891 1326 650 
Q 1584 409 2034 409 
Q 2484 409 2743 651 
Q 3003 894 3003 1313 
Q 3003 1734 2745 1975 
Q 2488 2216 2034 2216 
z
M 1403 2484 
Q 997 2584 770 2862 
Q 544 3141 544 3541 
Q 544 4100 942 4425 
Q 1341 4750 2034 4750 
Q 2731 4750 3128 4425 
Q 3525 4100 3525 3541 
Q 3525 3141 3298 2862 
Q 3072 2584 2669 2484 
Q 3125 2378 3379 2068 
Q 3634 1759 3634 1313 
Q 3634 634 3220 271 
Q 2806 -91 2034 -91 
Q 1263 -91 848 271 
Q 434 634 434 1313 
Q 434 1759 690 2068 
Q 947 2378 1403 2484 
z
M 1172 3481 
Q 1172 3119 1398 2916 
Q 1625 2713 2034 2713 
Q 2441 2713 2670 2916 
Q 2900 3119 2900 3481 
Q 2900 3844 2670 4047 
Q 2441 4250 2034 4250 
Q 1625 4250 1398 4047 
Q 1172 3844 1172 3481 
z
" transform="scale(0.015625)"/>
       </defs>
       <use xlink:href="#DejaVuSans-31"/>
       <use xlink:href="#DejaVuSans-38" transform="translate(63.623047 0)"/>
       <use xlink:href="#DejaVuSans-3a" transform="translate(127.246094 0)"/>
       <use xlink:href="#DejaVuSans-30" transform="translate(160.9375 0)"/>
       <use xlink:href="#DejaVuSans-30" transform="translate(224.560547 0)"/>
      </g>
     </g>
    </g>
    <g id="xtick_7">
     <g id="line2d_7">
      <g>
       <use xlink:href="#m27e1c9b130" x="457.29279" y="284.4" style="fill: #262626; stroke: #262626; stroke-width: 1.25"/>
      </g>
     </g>
     <g id="text_7">
      <!-- 18:15 -->
      <g style="fill: #262626" transform="translate(445.76529 299.97875) scale(0.08 -0.08)">
       <use xlink:href="#DejaVuSans-31"/>
       <use xlink:href="#DejaVuSans-38" transform="translate(63.623047 0)"/>
       <use xlink:href="#DejaVuSans-3a" transform="translate(127.246094 0)"/>
       <use xlink:href="#DejaVuSans-31" transform="translate(160.9375 0)"/>
       <use xlink:href="#DejaVuSans-35" transform="translate(224.560547 0)"/>
      </g>
     </g>
    </g>
    <g id="xtick_8">
     <g id="line2d_8">
      <g>
       <use xlink:href="#m27e1c9b130" x="527.261442" y="284.4" style="fill: #262626; stroke: #262626; stroke-width: 1.25"/>
      </g>
     </g>
     <g id="text_8">
      <!-- 18:30 -->
      <g style="fill: #262626" transform="translate(515.733942 299.97875) scale(0.08 -0.08)">
       <use xlink:href="#DejaVuSans-31"/>
       <use xlink:href="#DejaVuSans-38" transform="translate(63.623047 0)"/>
       <use xlink:href="#DejaVuSans-3a" transform="translate(127.246094 0)"/>
       <use xlink:href="#DejaVuSans-33" transform="translate(160.9375 0)"/>
       <use xlink:href="#DejaVuSans-30" transform="translate(224.560547 0)"/>
      </g>
     </g>
    </g>
    <g id="xtick_9">
     <g id="line2d_9">
      <g>
       <use xlink:href="#m27e1c9b130" x="597.230094" y="284.4" style="fill: #262626; stroke: #262626; stroke-width: 1.25"/>
      </g>
     </g>
     <g id="text_9">
      <!-- 18:45 -->
      <g style="fill: #262626" transform="translate(585.702594 299.97875) scale(0.08 -0.08)">
       <use xlink:href="#DejaVuSans-31"/>
       <use xlink:href="#DejaVuSans-38" transform="translate(63.623047 0)"/>
       <use xlink:href="#DejaVuSans-3a" transform="translate(127.246094 0)"/>
       <use xlink:href="#DejaVuSans-34" transform="translate(160.9375 0)"/>
       <use xlink:href="#DejaVuSans-35" transform="translate(224.560547 0)"/>
      </g>
     </g>
    </g>
    <g id="xtick_10">
     <g id="line2d_10">
      <g>
       <use xlink:href="#m27e1c9b130" x="667.198746" y="284.4" style="fill: #262626; stroke: #262626; stroke-width: 1.25"/>
      </g>
     </g>
     <g id="text_10">
      <!-- 19:00 -->
      <g style="fill: #262626" transform="translate(655.671246 299.97875) scale(0.08 -0.08)">
       <defs>
        <path id="DejaVuSans-39" d="M 703 97 
L 703 672 
Q 941 559 1184 500 
Q 1428 441 1663 441 
Q 2288 441 2617 861 
Q 2947 1281 2994 2138 
Q 2813 1869 2534 1725 
Q 2256 1581 1919 1581 
Q 1219 1581 811 2004 
Q 403 2428 403 3163 
Q 403 3881 828 4315 
Q 1253 4750 1959 4750 
Q 2769 4750 3195 4129 
Q 3622 3509 3622 2328 
Q 3622 1225 3098 567 
Q 2575 -91 1691 -91 
Q 1453 -91 1209 -44 
Q 966 3 703 97 
z
M 1959 2075 
Q 2384 2075 2632 2365 
Q 2881 2656 2881 3163 
Q 2881 3666 2632 3958 
Q 2384 4250 1959 4250 
Q 1534 4250 1286 3958 
Q 1038 3666 1038 3163 
Q 1038 2656 1286 2365 
Q 1534 2075 1959 2075 
z
" transform="scale(0.015625)"/>
       </defs>
       <use xlink:href="#DejaVuSans-31"/>
       <use xlink:href="#DejaVuSans-39" transform="translate(63.623047 0)"/>
       <use xlink:href="#DejaVuSans-3a" transform="translate(127.246094 0)"/>
       <use xlink:href="#DejaVuSans-30" transform="translate(160.9375 0)"/>
       <use xlink:href="#DejaVuSans-30" transform="translate(224.560547 0)"/>
      </g>
     </g>
    </g>
   </g>
   <g id="matplotlib.axis_2"/>
   <g id="FillBetweenPolyCollection_1"/>
   <g id="FillBetweenPolyCollection_2"/>
   <g id="FillBetweenPolyCollection_3"/>
   <g id="FillBetweenPolyCollection_4"/>
   <g id="line2d_11">
    <path d="M 37.636364 134.345455 
L 86.61442 134.345455 
L 88.946708 105.709091 
L 133.260188 105.709091 
L 135.592476 77.072727 
L 319.84326 77.072727 
L 322.175549 48.436364 
L 459.780564 48.436364 
L 462.112853 19.8 
L 618.376176 19.8 
L 618.376176 19.8 
" clip-path="url(#pb4ec29c8dc)" style="fill: none; stroke: #12711c; stroke-opacity: 0.2; stroke-width: 2; stroke-linecap: round"/>
   </g>
   <g id="line2d_12">
    <path d="M 42.30094 271.8 
L 86.61442 271.8 
L 88.946708 241.775207 
L 91.278997 240.473554 
L 93.611285 241.890909 
L 95.943574 240.697727 
L 98.275862 241.988811 
L 100.60815 240.887413 
L 102.940439 242.072727 
L 105.272727 241.05 
L 107.605016 242.145455 
L 109.937304 241.190909 
L 112.269592 242.209091 
L 114.601881 241.314205 
L 116.934169 242.265241 
L 119.266458 241.422995 
L 121.598746 242.315152 
L 123.931034 241.519697 
L 126.263323 242.359809 
L 128.595611 241.60622 
L 130.9279 242.4 
L 133.260188 241.684091 
L 135.592476 213.072727 
L 137.924765 211.709091 
L 140.257053 213.138843 
L 142.589342 211.83719 
L 144.92163 213.199209 
L 147.253918 211.95415 
L 149.586207 213.254545 
L 151.918495 212.061364 
L 154.250784 213.305455 
L 156.583072 212.16 
L 158.91536 213.352448 
L 161.247649 212.251049 
L 163.579937 213.39596 
L 165.912226 212.335354 
L 168.244514 213.436364 
L 170.576802 212.413636 
L 172.909091 212.552351 
L 221.887147 212.552351 
L 224.219436 242.176176 
L 268.532915 242.176176 
L 270.865204 271.8 
L 319.84326 271.8 
L 322.175549 242.176176 
L 455.115987 242.176176 
L 457.448276 271.8 
L 459.780564 271.8 
L 462.112853 242.176176 
L 595.053291 242.176176 
L 597.38558 271.8 
L 646.363636 271.8 
L 646.363636 271.8 
" clip-path="url(#pb4ec29c8dc)" style="fill: none; stroke: #001c7f; stroke-width: 2; stroke-linecap: round"/>
   </g>
   <g id="line2d_13">
    <path d="M 42.30094 271.8 
L 86.61442 271.8 
L 88.946708 241.775207 
L 91.278997 240.473554 
L 93.611285 241.890909 
L 95.943574 240.697727 
L 98.275862 241.988811 
L 100.60815 240.887413 
L 102.940439 242.072727 
L 105.272727 241.05 
L 107.605016 242.145455 
L 109.937304 241.190909 
L 112.269592 242.209091 
L 114.601881 241.314205 
L 116.934169 242.265241 
L 119.266458 241.422995 
L 121.598746 242.315152 
L 123.931034 241.519697 
L 126.263323 242.359809 
L 128.595611 241.60622 
L 130.9279 242.4 
L 133.260188 241.684091 
L 135.592476 213.072727 
L 137.924765 211.709091 
L 140.257053 213.138843 
L 142.589342 211.83719 
L 144.92163 213.199209 
L 147.253918 211.95415 
L 149.586207 213.254545 
L 151.918495 212.061364 
L 154.250784 213.305455 
L 156.583072 212.16 
L 158.91536 213.352448 
L 161.247649 212.251049 
L 163.579937 213.39596 
L 165.912226 212.335354 
L 168.244514 213.436364 
L 170.576802 212.413636 
L 172.909091 212.552351 
L 221.887147 212.552351 
L 224.219436 242.176176 
L 268.532915 242.176176 
L 270.865204 271.8 
L 319.84326 271.8 
L 322.175549 242.176176 
L 455.115987 242.176176 
L 457.448276 271.8 
L 459.780564 271.8 
L 462.112853 242.176176 
L 595.053291 242.176176 
L 597.38558 271.8 
L 646.363636 271.8 
L 646.363636 271.8 
" clip-path="url(#pb4ec29c8dc)" style="fill: none; stroke: #b1400d; stroke-opacity: 0; stroke-width: 2; stroke-linecap: round"/>
   </g>
   <g id="line2d_14">
    <path d="M 42.30094 271.8 
L 86.61442 271.8 
L 88.946708 241.775207 
L 91.278997 240.473554 
L 93.611285 241.890909 
L 95.943574 240.697727 
L 98.275862 241.988811 
L 100.60815 240.887413 
L 102.940439 242.072727 
L 105.272727 241.05 
L 107.605016 242.145455 
L 109.937304 241.190909 
L 112.269592 242.209091 
L 114.601881 241.314205 
L 116.934169 242.265241 
L 119.266458 241.422995 
L 121.598746 242.315152 
L 123.931034 241.519697 
L 126.263323 242.359809 
L 128.595611 241.60622 
L 130.9279 242.4 
L 133.260188 241.684091 
L 135.592476 213.072727 
L 137.924765 211.709091 
L 140.257053 213.138843 
L 142.589342 211.83719 
L 144.92163 213.199209 
L 147.253918 211.95415 
L 149.586207 213.254545 
L 151.918495 212.061364 
L 154.250784 213.305455 
L 156.583072 212.16 
L 158.91536 213.352448 
L 161.247649 212.251049 
L 163.579937 213.39596 
L 165.912226 212.335354 
L 168.244514 213.436364 
L 170.576802 212.413636 
L 172.909091 212.552351 
L 221.887147 212.552351 
L 224.219436 242.176176 
L 268.532915 242.176176 
L 270.865204 271.8 
L 319.84326 271.8 
L 322.175549 242.176176 
L 455.115987 242.176176 
L 457.448276 271.8 
L 459.780564 271.8 
L 462.112853 242.176176 
L 595.053291 242.176176 
L 597.38558 271.8 
L 646.363636 271.8 
L 646.363636 271.8 
" clip-path="url(#pb4ec29c8dc)" style="fill: none; stroke: #591e71; stroke-opacity: 0; stroke-width: 2; stroke-linecap: round"/>
   </g>
   <g id="patch_3">
    <path d="M 7.2 284.4 
L 7.2 7.2 
" style="fill: none; stroke: #262626; stroke-width: 1.25; stroke-linejoin: miter; stroke-linecap: square"/>
   </g>
   <g id="patch_4">
    <path d="M 676.8 284.4 
L 676.8 7.2 
" style="fill: none; stroke: #262626; stroke-width: 1.25; stroke-linejoin: miter; stroke-linecap: square"/>
   </g>
   <g id="patch_5">
    <path d="M 7.2 284.4 
L 676.8 284.4 
" style="fill: none; stroke: #262626; stroke-width: 1.25; stroke-linejoin: miter; stroke-linecap: square"/>
   </g>
   <g id="patch_6">
    <path d="M 7.2 7.2 
L 676.8 7.2 
" style="fill: none; stroke: #262626; stroke-width: 1.25; stroke-linejoin: miter; stroke-linecap: square"/>
   </g>
   <g id="legend_1">
    <g id="patch_7">
     <path d="M 14.9 47.508125 
L 215.142969 47.508125 
Q 217.342969 47.508125 217.342969 45.308125 
L 217.342969 14.9 
Q 217.342969 12.7 215.142969 12.7 
L 14.9 12.7 
Q 12.7 12.7 12.7 14.9 
L 12.7 45.308125 
Q 12.7 47.508125 14.9 47.508125 
z
" style="fill: #ffffff; opacity: 0.8; stroke: #cccccc; stroke-linejoin: miter"/>
    </g>
    <g id="line2d_15">
     <path d="M 17.1 21.221562 
L 28.1 21.221562 
L 39.1 21.221562 
" style="fill: none; stroke: #12711c; stroke-opacity: 0.2; stroke-width: 2; stroke-linecap: round"/>
    </g>
    <g id="text_11">
     <!-- counter -->
     <g style="fill: #262626" transform="translate(47.9 25.071562) scale(0.11 -0.11)">
      <defs>
       <path id="LiberationMono-Bold-63" d="M 1950 -63 
Q 1181 -63 762 395 
Q 344 853 344 1672 
Q 344 2509 766 2976 
Q 1188 3444 1963 3444 
Q 2559 3444 2950 3144 
Q 3341 2844 3441 2316 
L 2556 2272 
Q 2519 2531 2369 2686 
Q 2219 2841 1944 2841 
Q 1266 2841 1266 1706 
Q 1266 538 1956 538 
Q 2206 538 2375 695 
Q 2544 853 2584 1166 
L 3466 1125 
Q 3419 778 3217 506 
Q 3016 234 2687 85 
Q 2359 -63 1950 -63 
z
" transform="scale(0.015625)"/>
       <path id="LiberationMono-Bold-6f" d="M 3553 1694 
Q 3553 853 3128 395 
Q 2703 -63 1906 -63 
Q 1138 -63 713 395 
Q 288 853 288 1694 
Q 288 2531 709 2987 
Q 1131 3444 1925 3444 
Q 3553 3444 3553 1694 
z
M 2634 1694 
Q 2634 2294 2475 2567 
Q 2316 2841 1938 2841 
Q 1550 2841 1379 2566 
Q 1209 2291 1209 1694 
Q 1209 1091 1382 814 
Q 1556 538 1897 538 
Q 2284 538 2459 811 
Q 2634 1084 2634 1694 
z
" transform="scale(0.015625)"/>
       <path id="LiberationMono-Bold-75" d="M 1300 3381 
L 1300 1484 
Q 1300 1053 1439 823 
Q 1578 594 1838 594 
Q 2119 594 2301 870 
Q 2484 1147 2484 1569 
L 2484 3381 
L 3363 3381 
L 3363 756 
Q 3363 325 3388 0 
L 2550 0 
Q 2513 450 2513 672 
L 2497 672 
Q 2163 -63 1472 -63 
Q 959 -63 690 264 
Q 422 591 422 1234 
L 422 3381 
L 1300 3381 
z
" transform="scale(0.015625)"/>
       <path id="LiberationMono-Bold-6e" d="M 2575 0 
L 2575 1934 
Q 2575 2375 2454 2581 
Q 2334 2788 2041 2788 
Q 1716 2788 1520 2511 
Q 1325 2234 1325 1813 
L 1325 0 
L 447 0 
L 447 2625 
Q 447 2897 439 3070 
Q 431 3244 422 3381 
L 1259 3381 
Q 1269 3322 1284 3064 
Q 1300 2806 1300 2709 
L 1313 2709 
Q 1491 3097 1759 3272 
Q 2028 3447 2400 3447 
Q 3450 3447 3450 2147 
L 3450 0 
L 2575 0 
z
" transform="scale(0.015625)"/>
       <path id="LiberationMono-Bold-74" d="M 1025 2788 
L 503 2788 
L 503 3381 
L 1069 3381 
L 1344 4263 
L 1894 4263 
L 1894 3381 
L 3097 3381 
L 3097 2788 
L 1894 2788 
L 1894 1131 
Q 1894 856 1945 761 
Q 1997 666 2112 611 
Q 2228 556 2438 556 
Q 2825 556 3234 641 
L 3234 59 
Q 2791 -13 2606 -27 
Q 2422 -41 2222 -41 
Q 1825 -41 1558 67 
Q 1291 175 1155 404 
Q 1019 634 1019 1050 
L 1025 2788 
z
" transform="scale(0.015625)"/>
       <path id="LiberationMono-Bold-65" d="M 1956 -63 
Q 1169 -63 741 401 
Q 313 866 313 1706 
Q 313 2269 514 2656 
Q 716 3044 1087 3244 
Q 1459 3444 1969 3444 
Q 2709 3444 3118 2950 
Q 3528 2456 3528 1547 
L 3528 1522 
L 1234 1522 
Q 1234 1063 1439 794 
Q 1644 525 2000 525 
Q 2231 525 2409 623 
Q 2588 722 2650 928 
L 3478 856 
Q 3306 416 2906 176 
Q 2506 -63 1956 -63 
z
M 1956 2891 
Q 1634 2891 1443 2673 
Q 1253 2456 1241 2072 
L 2678 2072 
Q 2656 2447 2464 2669 
Q 2272 2891 1956 2891 
z
" transform="scale(0.015625)"/>
       <path id="LiberationMono-Bold-72" d="M 3378 2650 
Q 3028 2709 2716 2709 
Q 2228 2709 1942 2340 
Q 1656 1972 1656 1369 
L 1656 0 
L 781 0 
L 781 2191 
Q 781 2428 739 2750 
Q 697 3072 619 3381 
L 1466 3381 
Q 1578 2975 1609 2669 
L 1622 2669 
Q 1778 3094 2043 3269 
Q 2309 3444 2734 3444 
Q 3059 3444 3378 3391 
L 3378 2650 
z
" transform="scale(0.015625)"/>
      </defs>
      <use xlink:href="#LiberationMono-Bold-63"/>
      <use xlink:href="#LiberationMono-Bold-6f" transform="translate(60.009766 0)"/>
      <use xlink:href="#LiberationMono-Bold-75" transform="translate(120.019531 0)"/>
      <use xlink:href="#LiberationMono-Bold-6e" transform="translate(180.029297 0)"/>
      <use xlink:href="#LiberationMono-Bold-74" transform="translate(240.039062 0)"/>
      <use xlink:href="#LiberationMono-Bold-65" transform="translate(300.048828 0)"/>
      <use xlink:href="#LiberationMono-Bold-72" transform="translate(360.058594 0)"/>
     </g>
    </g>
    <g id="line2d_16">
     <path d="M 17.1 36.975625 
L 28.1 36.975625 
L 39.1 36.975625 
" style="fill: none; stroke: #001c7f; stroke-width: 2; stroke-linecap: round"/>
    </g>
    <g id="text_12">
     <!-- increase(counter[30m:1m]) -->
     <g style="fill: #262626" transform="translate(47.9 40.825625) scale(0.11 -0.11)">
      <defs>
       <path id="LiberationMono-Bold-69" d="M 2481 594 
L 3584 594 
L 3584 0 
L 369 0 
L 369 594 
L 1603 594 
L 1603 2788 
L 697 2788 
L 697 3381 
L 2481 3381 
L 2481 594 
z
M 1603 3991 
L 1603 4638 
L 2481 4638 
L 2481 3991 
L 1603 3991 
z
" transform="scale(0.015625)"/>
       <path id="LiberationMono-Bold-61" d="M 1372 -63 
Q 881 -63 606 204 
Q 331 472 331 956 
Q 331 1481 657 1754 
Q 984 2028 1634 2038 
L 2331 2050 
L 2331 2222 
Q 2331 2544 2222 2709 
Q 2113 2875 1869 2875 
Q 1641 2875 1533 2761 
Q 1425 2647 1400 2397 
L 484 2441 
Q 653 3444 1906 3444 
Q 2538 3444 2873 3134 
Q 3209 2825 3209 2225 
L 3209 1000 
Q 3209 716 3273 608 
Q 3338 500 3488 500 
Q 3588 500 3681 519 
L 3681 44 
Q 3603 25 3540 9 
Q 3478 -6 3415 -15 
Q 3353 -25 3283 -31 
Q 3213 -38 3119 -38 
Q 2788 -38 2630 125 
Q 2472 288 2441 603 
L 2422 603 
Q 2225 250 1973 93 
Q 1722 -63 1372 -63 
z
M 2331 1566 
L 1913 1559 
Q 1631 1553 1504 1501 
Q 1378 1450 1312 1336 
Q 1247 1222 1247 1025 
Q 1247 550 1622 550 
Q 1925 550 2128 789 
Q 2331 1028 2331 1394 
L 2331 1566 
z
" transform="scale(0.015625)"/>
       <path id="LiberationMono-Bold-73" d="M 3450 988 
Q 3450 497 3048 217 
Q 2647 -63 1938 -63 
Q 1241 -63 870 157 
Q 500 378 378 844 
L 1150 959 
Q 1216 719 1377 619 
Q 1538 519 1938 519 
Q 2306 519 2475 612 
Q 2644 706 2644 906 
Q 2644 1069 2508 1164 
Q 2372 1259 2047 1325 
Q 1303 1472 1043 1598 
Q 784 1725 648 1926 
Q 513 2128 513 2422 
Q 513 2906 886 3176 
Q 1259 3447 1944 3447 
Q 2547 3447 2914 3212 
Q 3281 2978 3372 2534 
L 2594 2453 
Q 2556 2659 2409 2761 
Q 2263 2863 1944 2863 
Q 1631 2863 1475 2783 
Q 1319 2703 1319 2516 
Q 1319 2369 1439 2283 
Q 1559 2197 1844 2141 
Q 2241 2059 2548 1973 
Q 2856 1888 3042 1769 
Q 3228 1650 3339 1464 
Q 3450 1278 3450 988 
z
" transform="scale(0.015625)"/>
       <path id="LiberationMono-Bold-28" d="M 2003 -1328 
Q 1513 -622 1294 81 
Q 1075 784 1075 1659 
Q 1075 2531 1294 3232 
Q 1513 3934 2003 4638 
L 2881 4638 
Q 2388 3925 2164 3219 
Q 1941 2513 1941 1656 
Q 1941 803 2162 101 
Q 2384 -600 2881 -1328 
L 2003 -1328 
z
" transform="scale(0.015625)"/>
       <path id="LiberationMono-Bold-5b" d="M 1166 -1328 
L 1166 4638 
L 3047 4638 
L 3047 4044 
L 1997 4044 
L 1997 -731 
L 3047 -731 
L 3047 -1328 
L 1166 -1328 
z
" transform="scale(0.015625)"/>
       <path id="LiberationMono-Bold-33" d="M 3516 1175 
Q 3516 584 3092 256 
Q 2669 -72 1922 -72 
Q 1203 -72 783 242 
Q 363 556 291 1150 
L 1184 1228 
Q 1263 641 1919 641 
Q 2247 641 2431 798 
Q 2616 956 2616 1228 
Q 2616 1500 2389 1644 
Q 2163 1788 1741 1788 
L 1434 1788 
L 1434 2497 
L 1722 2497 
Q 2103 2497 2308 2642 
Q 2513 2788 2513 3047 
Q 2513 3281 2342 3431 
Q 2172 3581 1888 3581 
Q 1619 3581 1444 3454 
Q 1269 3328 1244 3053 
L 366 3116 
Q 434 3675 839 3978 
Q 1244 4281 1903 4281 
Q 2366 4281 2705 4140 
Q 3044 4000 3223 3745 
Q 3403 3491 3403 3156 
Q 3403 2772 3159 2515 
Q 2916 2259 2463 2172 
L 2463 2159 
Q 2953 2103 3234 1839 
Q 3516 1575 3516 1175 
z
" transform="scale(0.015625)"/>
       <path id="LiberationMono-Bold-30" d="M 3472 2109 
Q 3472 1050 3072 493 
Q 2672 -63 1909 -63 
Q 1144 -63 755 492 
Q 366 1047 366 2109 
Q 366 3209 745 3745 
Q 1125 4281 1934 4281 
Q 2716 4281 3094 3737 
Q 3472 3194 3472 2109 
z
M 2591 2109 
Q 2591 2659 2525 2979 
Q 2459 3300 2321 3447 
Q 2184 3594 1928 3594 
Q 1659 3594 1515 3447 
Q 1372 3300 1308 2979 
Q 1244 2659 1244 2109 
Q 1244 1566 1311 1244 
Q 1378 922 1518 775 
Q 1659 628 1916 628 
Q 2278 628 2434 968 
Q 2591 1309 2591 2109 
z
M 1581 1734 
L 1581 2513 
L 2253 2513 
L 2253 1734 
L 1581 1734 
z
" transform="scale(0.015625)"/>
       <path id="LiberationMono-Bold-6d" d="M 1566 0 
L 1566 2056 
Q 1566 2522 1508 2703 
Q 1450 2884 1294 2884 
Q 1134 2884 1042 2590 
Q 950 2297 950 1819 
L 950 0 
L 234 0 
L 234 2659 
Q 234 3250 216 3381 
L 869 3381 
L 888 2984 
L 888 2834 
L 894 2834 
Q 1000 3153 1162 3298 
Q 1325 3444 1569 3444 
Q 1844 3444 1980 3294 
Q 2116 3144 2175 2831 
L 2181 2831 
Q 2306 3163 2479 3303 
Q 2653 3444 2919 3444 
Q 3288 3444 3447 3175 
Q 3606 2906 3606 2253 
L 3606 0 
L 2894 0 
L 2894 2056 
Q 2894 2522 2836 2703 
Q 2778 2884 2622 2884 
Q 2463 2884 2370 2632 
Q 2278 2381 2278 1878 
L 2278 0 
L 1566 0 
z
" transform="scale(0.015625)"/>
       <path id="LiberationMono-Bold-3a" d="M 1469 0 
L 1469 953 
L 2372 953 
L 2372 0 
L 1469 0 
z
M 1469 2438 
L 1469 3391 
L 2372 3391 
L 2372 2438 
L 1469 2438 
z
" transform="scale(0.015625)"/>
       <path id="LiberationMono-Bold-31" d="M 466 0 
L 466 653 
L 1681 653 
L 1681 3438 
Q 1559 3181 1195 3006 
Q 831 2831 431 2831 
L 431 3500 
Q 866 3500 1209 3690 
Q 1553 3881 1728 4216 
L 2559 4216 
L 2559 653 
L 3569 653 
L 3569 0 
L 466 0 
z
" transform="scale(0.015625)"/>
       <path id="LiberationMono-Bold-5d" d="M 794 -1328 
L 794 -731 
L 1844 -731 
L 1844 4044 
L 794 4044 
L 794 4638 
L 2675 4638 
L 2675 -1328 
L 794 -1328 
z
" transform="scale(0.015625)"/>
       <path id="LiberationMono-Bold-29" d="M 959 -1328 
Q 1459 -597 1679 101 
Q 1900 800 1900 1656 
Q 1900 2516 1675 3223 
Q 1450 3931 959 4638 
L 1838 4638 
Q 2331 3928 2548 3225 
Q 2766 2522 2766 1659 
Q 2766 791 2548 87 
Q 2331 -616 1838 -1328 
L 959 -1328 
z
" transform="scale(0.015625)"/>
      </defs>
      <use xlink:href="#LiberationMono-Bold-69"/>
      <use xlink:href="#LiberationMono-Bold-6e" transform="translate(60.009766 0)"/>
      <use xlink:href="#LiberationMono-Bold-63" transform="translate(120.019531 0)"/>
      <use xlink:href="#LiberationMono-Bold-72" transform="translate(180.029297 0)"/>
      <use xlink:href="#LiberationMono-Bold-65" transform="translate(240.039062 0)"/>
      <use xlink:href="#LiberationMono-Bold-61" transform="translate(300.048828 0)"/>
      <use xlink:href="#LiberationMono-Bold-73" transform="translate(360.058594 0)"/>
      <use xlink:href="#LiberationMono-Bold-65" transform="translate(420.068359 0)"/>
      <use xlink:href="#LiberationMono-Bold-28" transform="translate(480.078125 0)"/>
      <use xlink:href="#LiberationMono-Bold-63" transform="translate(540.087891 0)"/>
      <use xlink:href="#LiberationMono-Bold-6f" transform="translate(600.097656 0)"/>
      <use xlink:href="#LiberationMono-Bold-75" transform="translate(660.107422 0)"/>
      <use xlink:href="#LiberationMono-Bold-6e" transform="translate(720.117188 0)"/>
      <use xlink:href="#LiberationMono-Bold-74" transform="translate(780.126953 0)"/>
      <use xlink:href="#LiberationMono-Bold-65" transform="translate(840.136719 0)"/>
      <use xlink:href="#LiberationMono-Bold-72" transform="translate(900.146484 0)"/>
      <use xlink:href="#LiberationMono-Bold-5b" transform="translate(960.15625 0)"/>
      <use xlink:href="#LiberationMono-Bold-33" transform="translate(1020.166016 0)"/>
      <use xlink:href="#LiberationMono-Bold-30" transform="translate(1080.175781 0)"/>
      <use xlink:href="#LiberationMono-Bold-6d" transform="translate(1140.185547 0)"/>
      <use xlink:href="#LiberationMono-Bold-3a" transform="translate(1200.195312 0)"/>
      <use xlink:href="#LiberationMono-Bold-31" transform="translate(1260.205078 0)"/>
      <use xlink:href="#LiberationMono-Bold-6d" transform="translate(1320.214844 0)"/>
      <use xlink:href="#LiberationMono-Bold-5d" transform="translate(1380.224609 0)"/>
      <use xlink:href="#LiberationMono-Bold-29" transform="translate(1440.234375 0)"/>
     </g>
    </g>
   </g>
  </g>
 </g>
 <defs>
  <clipPath id="pb4ec29c8dc">
   <rect x="7.2" y="7.2" width="669.6" height="277.2"/>
  </clipPath>
 </defs>
</svg>
