<?xml version="1.0" encoding="utf-8" standalone="no"?>
<!DOCTYPE svg PUBLIC "-//W3C//DTD SVG 1.1//EN"
  "http://www.w3.org/Graphics/SVG/1.1/DTD/svg11.dtd">
<svg xmlns:xlink="http://www.w3.org/1999/xlink" width="684pt" height="308.8425pt" viewBox="0 0 684 308.8425" xmlns="http://www.w3.org/2000/svg" version="1.1">
 <metadata>
  <rdf:RDF xmlns:dc="http://purl.org/dc/elements/1.1/" xmlns:cc="http://creativecommons.org/ns#" xmlns:rdf="http://www.w3.org/1999/02/22-rdf-syntax-ns#">
   <cc:Work>
    <dc:type rdf:resource="http://purl.org/dc/dcmitype/StillImage"/>
    <dc:date>2026-05-09T20:19:57.143206</dc:date>
    <dc:format>image/svg+xml</dc:format>
    <dc:creator>
     <cc:Agent>
      <dc:title>Matplotlib v3.10.9, https://matplotlib.org/</dc:title>
     </cc:Agent>
    </dc:creator>
   </cc:Work>
  </rdf:RDF>
 </metadata>
 <defs>
  <style type="text/css">*{stroke-linejoin: round; stroke-linecap: butt}</style>
 </defs>
 <g id="figure_1">
  <g id="patch_1">
   <path d="M 0 308.8425 
L 684 308.8425 
L 684 0 
L 0 0 
z
" style="fill: #f2f2f2"/>
  </g>
  <g id="axes_1">
   <g id="patch_2">
    <path d="M 7.2 284.4 
L 676.8 284.4 
L 676.8 7.2 
L 7.2 7.2 
z
" style="fill: #f2f2f2"/>
   </g>
   <g id="matplotlib.axis_1">
    <g id="xtick_1">
     <g id="line2d_1">
      <defs>
       <path id="m8fb7299790" d="M 0 0 
L 0 6 
" style="stroke: #262626; stroke-width: 1.25"/>
      </defs>
      <g>
       <use xlink:href="#m8fb7299790" x="68.023873" y="284.4" style="fill: #262626; stroke: #262626; stroke-width: 1.25"/>
      </g>
     </g>
     <g id="text_1">
      <!-- 14:00 -->
      <g style="fill: #262626" transform="translate(56.496373 299.97875) scale(0.08 -0.08)">
       <defs>
        <path id="DejaVuSans-31" d="M 794 531 
L 1825 531 
L 1825 4091 
L 703 3866 
L 703 4441 
L 1819 4666 
L 2450 4666 
L 2450 531 
L 3481 531 
L 3481 0 
L 794 0 
L 794 531 
z
" transform="scale(0.015625)"/>
        <path id="DejaVuSans-34" d="M 2419 4116 
L 825 1625 
L 2419 1625 
L 2419 4116 
z
M 2253 4666 
L 3047 4666 
L 3047 1625 
L 3713 1625 
L 3713 1100 
L 3047 1100 
L 3047 0 
L 2419 0 
L 2419 1100 
L 313 1100 
L 313 1709 
L 2253 4666 
z
" transform="scale(0.015625)"/>
        <path id="DejaVuSans-3a" d="M 750 794 
L 1409 794 
L 1409 0 
L 750 0 
L 750 794 
z
M 750 3309 
L 1409 3309 
L 1409 2516 
L 750 2516 
L 750 3309 
z
" transform="scale(0.015625)"/>
        <path id="DejaVuSans-30" d="M 2034 4250 
Q 1547 4250 1301 3770 
Q 1056 3291 1056 2328 
Q 1056 1369 1301 889 
Q 1547 409 2034 409 
Q 2525 409 2770 889 
Q 3016 1369 3016 2328 
Q 3016 3291 2770 3770 
Q 2525 4250 2034 4250 
z
M 2034 4750 
Q 2819 4750 3233 4129 
Q 3647 3509 3647 2328 
Q 3647 1150 3233 529 
Q 2819 -91 2034 -91 
Q 1250 -91 836 529 
Q 422 1150 422 2328 
Q 422 3509 836 4129 
Q 1250 4750 2034 4750 
z
" transform="scale(0.015625)"/>
       </defs>
       <use xlink:href="#DejaVuSans-31"/>
       <use xlink:href="#DejaVuSans-34" transform="translate(63.623047 0)"/>
       <use xlink:href="#DejaVuSans-3a" transform="translate(127.246094 0)"/>
       <use xlink:href="#DejaVuSans-30" transform="translate(160.9375 0)"/>
       <use xlink:href="#DejaVuSans-30" transform="translate(224.560547 0)"/>
      </g>
     </g>
    </g>
    <g id="xtick_2">
     <g id="line2d_2">
      <g>
       <use xlink:href="#m8fb7299790" x="185.274712" y="284.4" style="fill: #262626; stroke: #262626; stroke-width: 1.25"/>
      </g>
     </g>
     <g id="text_2">
      <!-- 15:00 -->
      <g style="fill: #262626" transform="translate(173.747212 299.97875) scale(0.08 -0.08)">
       <defs>
        <path id="DejaVuSans-35" d="M 691 4666 
L 3169 4666 
L 3169 4134 
L 1269 4134 
L 1269 2991 
Q 1406 3038 1543 3061 
Q 1681 3084 1819 3084 
Q 2600 3084 3056 2656 
Q 3513 2228 3513 1497 
Q 3513 744 3044 326 
Q 2575 -91 1722 -91 
Q 1428 -91 1123 -41 
Q 819 9 494 109 
L 494 744 
Q 775 591 1075 516 
Q 1375 441 1709 441 
Q 2250 441 2565 725 
Q 2881 1009 2881 1497 
Q 2881 1984 2565 2268 
Q 2250 2553 1709 2553 
Q 1456 2553 1204 2497 
Q 953 2441 691 2322 
L 691 4666 
z
" transform="scale(0.015625)"/>
       </defs>
       <use xlink:href="#DejaVuSans-31"/>
       <use xlink:href="#DejaVuSans-35" transform="translate(63.623047 0)"/>
       <use xlink:href="#DejaVuSans-3a" transform="translate(127.246094 0)"/>
       <use xlink:href="#DejaVuSans-30" transform="translate(160.9375 0)"/>
       <use xlink:href="#DejaVuSans-30" transform="translate(224.560547 0)"/>
      </g>
     </g>
    </g>
    <g id="xtick_3">
     <g id="line2d_3">
      <g>
       <use xlink:href="#m8fb7299790" x="302.525551" y="284.4" style="fill: #262626; stroke: #262626; stroke-width: 1.25"/>
      </g>
     </g>
     <g id="text_3">
      <!-- 16:00 -->
      <g style="fill: #262626" transform="translate(290.998051 299.97875) scale(0.08 -0.08)">
       <defs>
        <path id="DejaVuSans-36" d="M 2113 2584 
Q 1688 2584 1439 2293 
Q 1191 2003 1191 1497 
Q 1191 994 1439 701 
Q 1688 409 2113 409 
Q 2538 409 2786 701 
Q 3034 994 3034 1497 
Q 3034 2003 2786 2293 
Q 2538 2584 2113 2584 
z
M 3366 4563 
L 3366 3988 
Q 3128 4100 2886 4159 
Q 2644 4219 2406 4219 
Q 1781 4219 1451 3797 
Q 1122 3375 1075 2522 
Q 1259 2794 1537 2939 
Q 1816 3084 2150 3084 
Q 2853 3084 3261 2657 
Q 3669 2231 3669 1497 
Q 3669 778 3244 343 
Q 2819 -91 2113 -91 
Q 1303 -91 875 529 
Q 447 1150 447 2328 
Q 447 3434 972 4092 
Q 1497 4750 2381 4750 
Q 2619 4750 2861 4703 
Q 3103 4656 3366 4563 
z
" transform="scale(0.015625)"/>
       </defs>
       <use xlink:href="#DejaVuSans-31"/>
       <use xlink:href="#DejaVuSans-36" transform="translate(63.623047 0)"/>
       <use xlink:href="#DejaVuSans-3a" transform="translate(127.246094 0)"/>
       <use xlink:href="#DejaVuSans-30" transform="translate(160.9375 0)"/>
       <use xlink:href="#DejaVuSans-30" transform="translate(224.560547 0)"/>
      </g>
     </g>
    </g>
    <g id="xtick_4">
     <g id="line2d_4">
      <g>
       <use xlink:href="#m8fb7299790" x="419.77639" y="284.4" style="fill: #262626; stroke: #262626; stroke-width: 1.25"/>
      </g>
     </g>
     <g id="text_4">
      <!-- 17:00 -->
      <g style="fill: #262626" transform="translate(408.24889 299.97875) scale(0.08 -0.08)">
       <defs>
        <path id="DejaVuSans-37" d="M 525 4666 
L 3525 4666 
L 3525 4397 
L 1831 0 
L 1172 0 
L 2766 4134 
L 525 4134 
L 525 4666 
z
" transform="scale(0.015625)"/>
       </defs>
       <use xlink:href="#DejaVuSans-31"/>
       <use xlink:href="#DejaVuSans-37" transform="translate(63.623047 0)"/>
       <use xlink:href="#DejaVuSans-3a" transform="translate(127.246094 0)"/>
       <use xlink:href="#DejaVuSans-30" transform="translate(160.9375 0)"/>
       <use xlink:href="#DejaVuSans-30" transform="translate(224.560547 0)"/>
      </g>
     </g>
    </g>
    <g id="xtick_5">
     <g id="line2d_5">
      <g>
       <use xlink:href="#m8fb7299790" x="537.027229" y="284.4" style="fill: #262626; stroke: #262626; stroke-width: 1.25"/>
      </g>
     </g>
     <g id="text_5">
      <!-- 18:00 -->
      <g style="fill: #262626" transform="translate(525.499729 299.97875) scale(0.08 -0.08)">
       <defs>
        <path id="DejaVuSans-38" d="M 2034 2216 
Q 1584 2216 1326 1975 
Q 1069 1734 1069 1313 
Q 1069 891 1326 650 
Q 1584 409 2034 409 
Q 2484 409 2743 651 
Q 3003 894 3003 1313 
Q 3003 1734 2745 1975 
Q 2488 2216 2034 2216 
z
M 1403 2484 
Q 997 2584 770 2862 
Q 544 3141 544 3541 
Q 544 4100 942 4425 
Q 1341 4750 2034 4750 
Q 2731 4750 3128 4425 
Q 3525 4100 3525 3541 
Q 3525 3141 3298 2862 
Q 3072 2584 2669 2484 
Q 3125 2378 3379 2068 
Q 3634 1759 3634 1313 
Q 3634 634 3220 271 
Q 2806 -91 2034 -91 
Q 1263 -91 848 271 
Q 434 634 434 1313 
Q 434 1759 690 2068 
Q 947 2378 1403 2484 
z
M 1172 3481 
Q 1172 3119 1398 2916 
Q 1625 2713 2034 2713 
Q 2441 2713 2670 2916 
Q 2900 3119 2900 3481 
Q 2900 3844 2670 4047 
Q 2441 4250 2034 4250 
Q 1625 4250 1398 4047 
Q 1172 3844 1172 3481 
z
" transform="scale(0.015625)"/>
       </defs>
       <use xlink:href="#DejaVuSans-31"/>
       <use xlink:href="#DejaVuSans-38" transform="translate(63.623047 0)"/>
       <use xlink:href="#DejaVuSans-3a" transform="translate(127.246094 0)"/>
       <use xlink:href="#DejaVuSans-30" transform="translate(160.9375 0)"/>
       <use xlink:href="#DejaVuSans-30" transform="translate(224.560547 0)"/>
      </g>
     </g>
    </g>
    <g id="xtick_6">
     <g id="line2d_6">
      <g>
       <use xlink:href="#m8fb7299790" x="654.278068" y="284.4" style="fill: #262626; stroke: #262626; stroke-width: 1.25"/>
      </g>
     </g>
     <g id="text_6">
      <!-- 19:00 -->
      <g style="fill: #262626" transform="translate(642.750568 299.97875) scale(0.08 -0.08)">
       <defs>
        <path id="DejaVuSans-39" d="M 703 97 
L 703 672 
Q 941 559 1184 500 
Q 1428 441 1663 441 
Q 2288 441 2617 861 
Q 2947 1281 2994 2138 
Q 2813 1869 2534 1725 
Q 2256 1581 1919 1581 
Q 1219 1581 811 2004 
Q 403 2428 403 3163 
Q 403 3881 828 4315 
Q 1253 4750 1959 4750 
Q 2769 4750 3195 4129 
Q 3622 3509 3622 2328 
Q 3622 1225 3098 567 
Q 2575 -91 1691 -91 
Q 1453 -91 1209 -44 
Q 966 3 703 97 
z
M 1959 2075 
Q 2384 2075 2632 2365 
Q 2881 2656 2881 3163 
Q 2881 3666 2632 3958 
Q 2384 4250 1959 4250 
Q 1534 4250 1286 3958 
Q 1038 3666 1038 3163 
Q 1038 2656 1286 2365 
Q 1534 2075 1959 2075 
z
" transform="scale(0.015625)"/>
       </defs>
       <use xlink:href="#DejaVuSans-31"/>
       <use xlink:href="#DejaVuSans-39" transform="translate(63.623047 0)"/>
       <use xlink:href="#DejaVuSans-3a" transform="translate(127.246094 0)"/>
       <use xlink:href="#DejaVuSans-30" transform="translate(160.9375 0)"/>
       <use xlink:href="#DejaVuSans-30" transform="translate(224.560547 0)"/>
      </g>
     </g>
    </g>
   </g>
   <g id="matplotlib.axis_2"/>
   <g id="FillBetweenPolyCollection_1"/>
   <g id="FillBetweenPolyCollection_2"/>
   <g id="line2d_7">
    <path d="M 37.636364 271.8 
L 153.910112 271.8 
L 154.887203 243.532608 
L 155.864293 243.304461 
L 156.841383 243.5396 
L 157.818474 243.315133 
L 158.795564 243.546369 
L 159.772654 243.325465 
L 160.749745 243.552927 
L 161.726835 243.335475 
L 162.703925 243.559284 
L 163.681016 243.345177 
L 164.658106 243.565447 
L 165.635196 243.354585 
L 166.612287 243.571427 
L 167.589377 243.363711 
L 168.566467 243.577231 
L 169.543558 243.37257 
L 170.520648 243.582867 
L 171.497738 243.381172 
L 172.474829 243.588341 
L 173.451919 243.389528 
L 174.429009 215.387323 
L 175.4061 214.995296 
L 176.38319 215.397668 
L 177.36028 215.011086 
L 178.33737 215.40773 
L 179.314461 215.026443 
L 180.291551 215.41752 
L 181.268641 215.041386 
L 182.245732 215.427048 
L 183.222822 215.05593 
L 184.199912 215.436326 
L 185.177003 215.070091 
L 186.154093 215.445363 
L 187.131183 215.083884 
L 188.108274 215.454169 
L 189.085364 215.097324 
L 190.062454 215.462751 
L 191.039545 215.110423 
L 192.016635 215.471119 
L 192.993725 215.123195 
L 193.970816 187.31892 
L 194.947906 186.803477 
L 195.924996 187.330863 
L 196.902087 186.821706 
L 197.879177 187.342519 
L 198.856267 186.839496 
L 199.833358 187.353897 
L 200.810448 186.856862 
L 201.787538 187.365007 
L 202.764629 186.87382 
L 203.741719 187.375858 
L 204.718809 186.890383 
L 205.6959 187.386461 
L 206.67299 186.906566 
L 207.65008 187.396822 
L 208.627171 186.92238 
L 209.604261 187.406951 
L 210.581351 186.93784 
L 211.558442 187.416854 
L 212.535532 186.952956 
L 213.512622 187.42654 
L 214.489713 186.967739 
L 215.466803 187.436015 
L 216.443893 186.982201 
L 217.420984 187.445287 
L 218.398074 186.996353 
L 219.375164 187.454361 
L 220.352254 187.010203 
L 221.329345 187.463244 
L 222.306435 187.023761 
L 223.283525 187.471942 
L 224.260616 187.037037 
L 225.237706 187.480461 
L 226.214796 187.05004 
L 227.191887 187.488806 
L 228.168977 187.062776 
L 229.146067 187.496982 
L 230.123158 187.075256 
L 231.100248 187.504995 
L 232.077338 187.087486 
L 233.054429 187.512849 
L 234.031519 187.099474 
L 235.008609 187.520549 
L 235.9857 187.111227 
L 236.96279 187.5281 
L 237.93988 187.122751 
L 238.916971 187.535505 
L 239.894061 187.134054 
L 240.871151 187.542769 
L 241.848242 187.145142 
L 242.825332 187.549897 
L 243.802422 187.156021 
L 244.779513 187.556891 
L 245.756603 187.166696 
L 246.733693 187.563755 
L 247.710784 187.177173 
L 248.687874 187.570494 
L 249.664964 187.187458 
L 250.642055 187.57711 
L 251.619145 187.197557 
L 252.596235 187.583607 
L 253.573326 187.207473 
L 254.550416 187.589988 
L 255.527506 187.217212 
L 256.504597 187.596256 
L 257.481687 187.226779 
L 258.458777 187.602414 
L 259.435868 187.236178 
L 260.412958 187.608464 
L 261.390048 187.245413 
L 262.367138 187.614411 
L 263.344229 187.25449 
L 264.321319 187.620256 
L 265.298409 187.263411 
L 266.2755 187.626002 
L 267.25259 187.272181 
L 268.22968 187.631651 
L 269.206771 187.280803 
L 270.183861 187.637206 
L 271.160951 187.289282 
L 272.138042 187.642669 
L 273.115132 187.297621 
L 274.092222 187.648043 
L 275.069313 187.305823 
L 276.046403 187.653329 
L 277.023493 187.313891 
L 278.000584 187.65853 
L 278.977674 187.32183 
L 279.954764 187.663648 
L 280.931855 187.329641 
L 281.908945 187.668685 
L 282.886035 187.337329 
L 283.863126 187.673642 
L 284.840216 187.344895 
L 285.817306 187.678522 
L 286.794397 187.352343 
L 287.771487 187.683326 
L 288.748577 187.359676 
L 289.725668 187.688056 
L 290.702758 187.366896 
L 291.679848 187.692714 
L 292.656939 187.374006 
L 293.634029 187.697302 
L 294.611119 187.381007 
L 295.58821 187.70182 
L 296.5653 187.387904 
L 297.54239 187.706271 
L 298.519481 187.394698 
L 299.496571 187.710657 
L 300.473661 187.401391 
L 301.450752 187.714977 
L 302.427842 187.407986 
L 303.404932 187.719235 
L 304.382022 187.414484 
L 305.359113 187.723431 
L 306.336203 187.420888 
L 307.313293 187.727566 
L 308.290384 187.4272 
L 309.267474 187.731642 
L 310.244564 187.433422 
L 311.221655 187.735661 
L 312.198745 187.439556 
L 313.175835 159.719497 
L 314.152926 159.32747 
L 315.130016 159.724706 
L 316.107106 159.335421 
L 317.084197 159.729843 
L 318.061287 159.34326 
L 319.038377 159.734908 
L 320.015468 159.350992 
L 320.992558 159.739904 
L 321.969648 159.358618 
L 322.946739 159.744832 
L 323.923829 159.36614 
L 324.900919 159.749694 
L 325.87801 159.37356 
L 326.8551 159.75449 
L 327.83219 159.380881 
L 328.809281 159.759223 
L 329.786371 159.388104 
L 330.763461 159.763892 
L 331.740552 159.395231 
L 332.717642 131.760626 
L 333.694732 131.302831 
L 334.671823 131.766311 
L 335.648913 131.311508 
L 336.626003 131.771922 
L 337.603094 131.320073 
L 338.580184 131.777461 
L 339.557274 131.328527 
L 340.534365 131.782929 
L 341.511455 131.336872 
L 342.488545 131.788327 
L 343.465636 131.345112 
L 344.442726 131.793657 
L 345.419816 131.353247 
L 346.396906 131.798919 
L 347.373997 131.361279 
L 348.351087 131.804116 
L 349.328177 131.369211 
L 350.305268 131.809249 
L 351.282358 131.377045 
L 352.259448 103.817181 
L 353.236539 103.301739 
L 354.213629 103.82319 
L 355.190719 103.310909 
L 356.16781 103.829125 
L 357.1449 103.319968 
L 358.12199 103.834988 
L 359.099081 103.328916 
L 360.076171 103.84078 
L 361.053261 103.337757 
L 362.030352 103.846503 
L 363.007442 103.346493 
L 363.984532 103.852158 
L 364.961623 103.355124 
L 365.938713 103.857746 
L 366.915803 103.363653 
L 367.892894 103.863268 
L 368.869984 103.372081 
L 369.847074 103.868726 
L 370.824165 103.380411 
L 371.801255 103.87412 
L 372.778345 103.388645 
L 373.755436 103.879452 
L 374.732526 103.396783 
L 375.709616 103.884722 
L 376.686707 103.404827 
L 377.663797 103.889933 
L 378.640887 103.41278 
L 379.617978 103.895084 
L 380.595068 103.420642 
L 381.572158 103.900176 
L 382.549249 103.428415 
L 383.526339 103.905212 
L 384.503429 103.436101 
L 385.480519 103.910192 
L 386.45761 103.443701 
L 387.4347 103.915116 
L 388.41179 103.451217 
L 389.388881 103.919985 
L 390.365971 103.45865 
L 391.343061 103.924801 
L 392.320152 103.466001 
L 393.297242 103.929565 
L 394.274332 103.473271 
L 395.251423 103.934277 
L 396.228513 103.480463 
L 397.205603 103.938937 
L 398.182694 103.487577 
L 399.159784 103.943548 
L 400.136874 103.494614 
L 401.113965 103.948109 
L 402.091055 103.501576 
L 403.068145 103.952622 
L 404.045236 103.508464 
L 405.022326 103.957087 
L 405.999416 103.515279 
L 406.976507 103.961505 
L 407.953597 103.522023 
L 408.930687 103.965877 
L 409.907778 103.528695 
L 410.884868 103.970204 
L 411.861958 103.535299 
L 412.839049 103.974485 
L 413.816139 103.541833 
L 414.793229 103.978722 
L 415.77032 103.548301 
L 416.74741 103.982916 
L 417.7245 103.554702 
L 418.701591 103.987067 
L 419.678681 103.561038 
L 420.655771 103.991176 
L 421.632862 103.567309 
L 422.609952 103.995243 
L 423.587042 103.573518 
L 424.564133 103.99927 
L 425.541223 103.579663 
L 426.518313 104.003256 
L 427.495403 103.585748 
L 428.472494 104.007203 
L 429.449584 103.591771 
L 430.426674 104.01111 
L 431.403765 103.597735 
L 432.380855 104.014979 
L 433.357945 103.603641 
L 434.335036 104.018811 
L 435.312126 103.609488 
L 436.289216 104.022604 
L 437.266307 103.615279 
L 438.243397 104.026361 
L 439.220487 103.621013 
L 440.197578 104.030082 
L 441.174668 103.626692 
L 442.151758 104.033767 
L 443.128849 103.632316 
L 444.105939 104.037416 
L 445.083029 103.637886 
L 446.06012 104.041031 
L 447.03721 103.643404 
L 448.0143 104.044611 
L 448.991391 103.648869 
L 449.968481 104.048158 
L 450.945571 103.654282 
L 451.922662 104.051672 
L 452.899752 103.659645 
L 453.876842 104.055152 
L 454.853933 103.664957 
L 455.831023 104.0586 
L 456.808113 103.67022 
L 457.785204 104.062017 
L 458.762294 103.675435 
L 459.739384 104.065402 
L 460.716475 103.680601 
L 461.693565 104.068755 
L 462.670655 103.68572 
L 463.647746 104.072078 
L 464.624836 103.690792 
L 465.601926 104.075371 
L 466.579016 103.695818 
L 467.556107 104.078635 
L 468.533197 103.700799 
L 469.510287 104.081868 
L 470.487378 103.705734 
L 471.464468 76.132585 
L 472.441558 75.69573 
L 473.418649 76.136291 
L 474.395739 75.701386 
L 475.372829 76.139963 
L 476.34992 75.706991 
L 477.32701 76.143603 
L 478.3041 75.712547 
L 479.281191 76.147211 
L 480.258281 75.718054 
L 481.235371 76.150787 
L 482.212462 75.723513 
L 483.189552 76.154333 
L 484.166642 75.728923 
L 485.143733 76.157847 
L 486.120823 75.734287 
L 487.097913 76.161331 
L 488.075004 75.739605 
L 489.052094 76.164784 
L 490.029184 75.744876 
L 491.006275 48.22081 
L 491.983365 47.742974 
L 492.960455 48.22469 
L 493.937546 47.748896 
L 494.914636 48.228536 
L 495.891726 47.754768 
L 496.868817 48.232351 
L 497.845907 47.760589 
L 498.822997 48.236133 
L 499.800088 47.766362 
L 500.777178 48.239883 
L 501.754268 47.772086 
L 502.731359 48.243602 
L 503.708449 47.777762 
L 504.685539 48.24729 
L 505.66263 47.783391 
L 506.63972 48.250947 
L 507.61681 47.788973 
L 508.5939 48.254574 
L 509.570991 47.79451 
L 510.548081 20.315443 
L 511.525171 19.8 
L 512.502262 20.319457 
L 513.479352 19.806126 
L 514.456442 20.323437 
L 515.433533 19.812202 
L 516.410623 20.327386 
L 517.387713 19.818229 
L 518.364804 20.331303 
L 519.341894 19.824207 
L 520.318984 20.335188 
L 521.296075 19.830137 
L 522.273165 20.339041 
L 523.250255 19.836019 
L 524.227346 20.342864 
L 525.204436 19.841854 
L 526.181526 20.346657 
L 527.158617 19.847643 
L 528.135707 20.350419 
L 529.112797 19.853385 
L 530.089888 20.354152 
L 531.066978 19.859082 
L 532.044068 20.357855 
L 533.021159 19.864735 
L 533.998249 20.361529 
L 534.975339 19.870343 
L 535.95243 20.365175 
L 536.92952 19.875907 
L 537.90661 20.368792 
L 538.883701 19.881428 
L 539.860791 20.372381 
L 540.837881 19.886906 
L 541.814972 20.375943 
L 542.792062 19.892342 
L 543.769152 20.379477 
L 544.746243 19.897736 
L 545.723333 20.382984 
L 546.700423 19.903089 
L 547.677514 20.386464 
L 548.654604 19.9084 
L 549.631694 20.389917 
L 550.608784 19.913672 
L 551.585875 20.393345 
L 552.562965 19.918903 
L 553.540055 20.396747 
L 554.517146 19.924095 
L 555.494236 20.400123 
L 556.471326 19.929248 
L 557.448417 20.403474 
L 558.425507 19.934363 
L 559.402597 20.406799 
L 560.379688 19.939439 
L 561.356778 20.4101 
L 562.333868 19.944477 
L 563.310959 20.413377 
L 564.288049 19.949478 
L 565.265139 20.416629 
L 566.24223 19.954443 
L 567.21932 20.419858 
L 568.19641 19.95937 
L 569.173501 20.423063 
L 570.150591 19.964262 
L 571.127681 20.426244 
L 572.104772 19.969118 
L 573.081862 20.429403 
L 574.058952 19.973939 
L 575.036043 20.432538 
L 576.013133 19.978724 
L 576.990223 20.435651 
L 577.967314 19.983475 
L 578.944404 20.438741 
L 579.921494 19.988192 
L 580.898585 20.441809 
L 581.875675 19.992875 
L 582.852765 20.444856 
L 583.829856 19.997525 
L 584.806946 20.44788 
L 585.784036 20.002142 
L 586.761127 20.450884 
L 587.738217 20.006725 
L 588.715307 20.453866 
L 589.692397 20.011277 
L 590.669488 20.456827 
L 591.646578 20.015796 
L 592.623668 20.459767 
L 593.600759 20.020284 
L 594.577849 20.462686 
L 595.554939 20.02474 
L 596.53203 20.465586 
L 597.50912 20.029166 
L 598.48621 20.468465 
L 599.463301 20.03356 
L 600.440391 20.471324 
L 601.417481 20.037924 
L 602.394572 20.474164 
L 603.371662 20.042258 
L 604.348752 20.476984 
L 605.325843 20.046562 
L 606.302933 20.479784 
L 607.280023 20.050837 
L 608.257114 20.482566 
L 609.234204 20.055083 
L 610.211294 20.485329 
L 611.188385 20.059299 
L 612.165475 20.488072 
L 613.142565 20.063487 
L 614.119656 20.490798 
L 615.096746 20.067647 
L 616.073836 20.493505 
L 617.050927 20.071779 
L 618.028017 20.496194 
L 619.005107 20.075883 
L 619.982198 20.498865 
L 620.959288 20.07996 
L 621.936378 20.501518 
L 622.913469 20.084009 
L 623.890559 20.504153 
L 624.867649 20.088032 
L 625.84474 20.506771 
L 626.82183 20.092027 
L 627.79892 20.465297 
L 646.363636 20.465297 
L 646.363636 20.465297 
" clip-path="url(#p6b67899b39)" style="fill: none; stroke: #12711c; stroke-width: 2; stroke-linecap: round"/>
   </g>
   <g id="line2d_8">
    <path d="M 37.636364 271.8 
L 153.910112 271.8 
L 154.887203 243.532608 
L 155.864293 243.304461 
L 156.841383 243.5396 
L 157.818474 243.315133 
L 158.795564 243.546369 
L 159.772654 243.325465 
L 160.749745 243.552927 
L 161.726835 243.335475 
L 162.703925 243.559284 
L 163.681016 243.345177 
L 164.658106 243.565447 
L 165.635196 243.354585 
L 166.612287 243.571427 
L 167.589377 243.363711 
L 168.566467 243.577231 
L 169.543558 243.37257 
L 170.520648 243.582867 
L 171.497738 243.381172 
L 172.474829 243.588341 
L 173.451919 243.389528 
L 174.429009 215.387323 
L 175.4061 214.995296 
L 176.38319 215.397668 
L 177.36028 215.011086 
L 178.33737 215.40773 
L 179.314461 215.026443 
L 180.291551 215.41752 
L 181.268641 215.041386 
L 182.245732 215.427048 
L 183.222822 215.05593 
L 184.199912 215.436326 
L 185.177003 215.070091 
L 186.154093 215.445363 
L 187.131183 215.083884 
L 188.108274 215.454169 
L 189.085364 215.097324 
L 190.062454 215.462751 
L 191.039545 215.110423 
L 192.016635 215.471119 
L 192.993725 215.123195 
L 193.970816 187.31892 
L 194.947906 186.803477 
L 195.924996 187.330863 
L 196.902087 186.821706 
L 197.879177 187.342519 
L 198.856267 186.839496 
L 199.833358 187.353897 
L 200.810448 186.856862 
L 201.787538 187.365007 
L 202.764629 186.87382 
L 203.741719 187.375858 
L 204.718809 186.890383 
L 205.6959 187.386461 
L 206.67299 186.906566 
L 207.65008 187.396822 
L 208.627171 186.92238 
L 209.604261 187.406951 
L 210.581351 186.93784 
L 211.558442 187.416854 
L 212.535532 186.952956 
L 213.512622 187.42654 
L 214.489713 186.967739 
L 215.466803 187.436015 
L 216.443893 186.982201 
L 217.420984 187.445287 
L 218.398074 186.996353 
L 219.375164 187.454361 
L 220.352254 187.010203 
L 221.329345 187.463244 
L 222.306435 187.023761 
L 223.283525 187.471942 
L 224.260616 187.037037 
L 225.237706 187.480461 
L 226.214796 187.05004 
L 227.191887 187.488806 
L 228.168977 187.062776 
L 229.146067 187.496982 
L 230.123158 187.075256 
L 231.100248 187.504995 
L 232.077338 187.087486 
L 233.054429 187.512849 
L 234.031519 187.099474 
L 235.008609 187.520549 
L 235.9857 187.111227 
L 236.96279 187.5281 
L 237.93988 187.122751 
L 238.916971 187.535505 
L 239.894061 187.134054 
L 240.871151 187.542769 
L 241.848242 187.145142 
L 242.825332 187.549897 
L 243.802422 187.156021 
L 244.779513 187.556891 
L 245.756603 187.166696 
L 246.733693 187.563755 
L 247.710784 187.177173 
L 248.687874 187.570494 
L 249.664964 187.187458 
L 250.642055 187.57711 
L 251.619145 187.197557 
L 252.596235 187.583607 
L 253.573326 187.207473 
L 254.550416 187.589988 
L 255.527506 187.217212 
L 256.504597 187.596256 
L 257.481687 187.226779 
L 258.458777 187.602414 
L 259.435868 187.236178 
L 260.412958 187.608464 
L 261.390048 187.245413 
L 262.367138 187.614411 
L 263.344229 187.25449 
L 264.321319 187.620256 
L 265.298409 187.263411 
L 266.2755 187.626002 
L 267.25259 187.272181 
L 268.22968 187.631651 
L 269.206771 187.280803 
L 270.183861 187.637206 
L 271.160951 187.289282 
L 272.138042 187.642669 
L 273.115132 187.297621 
L 274.092222 187.648043 
L 275.069313 187.305823 
L 276.046403 187.653329 
L 277.023493 187.313891 
L 278.000584 187.65853 
L 278.977674 187.32183 
L 279.954764 187.663648 
L 280.931855 187.329641 
L 281.908945 187.668685 
L 282.886035 187.337329 
L 283.863126 187.673642 
L 284.840216 187.344895 
L 285.817306 187.678522 
L 286.794397 187.352343 
L 287.771487 187.683326 
L 288.748577 187.359676 
L 289.725668 187.688056 
L 290.702758 187.366896 
L 291.679848 187.692714 
L 292.656939 187.374006 
L 293.634029 187.697302 
L 294.611119 187.381007 
L 295.58821 187.70182 
L 296.5653 187.387904 
L 297.54239 187.706271 
L 298.519481 187.394698 
L 299.496571 187.710657 
L 300.473661 187.401391 
L 301.450752 187.714977 
L 302.427842 187.407986 
L 303.404932 187.719235 
L 304.382022 187.414484 
L 305.359113 187.723431 
L 306.336203 187.420888 
L 307.313293 187.727566 
L 308.290384 187.4272 
L 309.267474 187.731642 
L 310.244564 187.433422 
L 311.221655 187.735661 
L 312.198745 187.439556 
L 313.175835 159.719497 
L 314.152926 159.32747 
L 315.130016 159.724706 
L 316.107106 159.335421 
L 317.084197 159.729843 
L 318.061287 159.34326 
L 319.038377 159.734908 
L 320.015468 159.350992 
L 320.992558 159.739904 
L 321.969648 159.358618 
L 322.946739 159.744832 
L 323.923829 159.36614 
L 324.900919 159.749694 
L 325.87801 159.37356 
L 326.8551 159.75449 
L 327.83219 159.380881 
L 328.809281 159.759223 
L 329.786371 159.388104 
L 330.763461 159.763892 
L 331.740552 159.395231 
L 332.717642 131.760626 
L 333.694732 131.302831 
L 334.671823 131.766311 
L 335.648913 131.311508 
L 336.626003 131.771922 
L 337.603094 131.320073 
L 338.580184 131.777461 
L 339.557274 131.328527 
L 340.534365 131.782929 
L 341.511455 131.336872 
L 342.488545 131.788327 
L 343.465636 131.345112 
L 344.442726 131.793657 
L 345.419816 131.353247 
L 346.396906 131.798919 
L 347.373997 131.361279 
L 348.351087 131.804116 
L 349.328177 131.369211 
L 350.305268 131.809249 
L 351.282358 131.377045 
L 352.259448 103.817181 
L 353.236539 103.301739 
L 354.213629 103.82319 
L 355.190719 103.310909 
L 356.16781 103.829125 
L 357.1449 103.319968 
L 358.12199 103.834988 
L 359.099081 103.328916 
L 360.076171 103.84078 
L 361.053261 103.337757 
L 362.030352 103.846503 
L 363.007442 103.346493 
L 363.984532 103.852158 
L 364.961623 103.355124 
L 365.938713 103.857746 
L 366.915803 103.363653 
L 367.892894 103.863268 
L 368.869984 103.372081 
L 369.847074 103.868726 
L 370.824165 103.380411 
L 371.801255 103.87412 
L 372.778345 103.388645 
L 373.755436 103.879452 
L 374.732526 103.396783 
L 375.709616 103.884722 
L 376.686707 103.404827 
L 377.663797 103.889933 
L 378.640887 103.41278 
L 379.617978 103.895084 
L 380.595068 103.420642 
L 381.572158 103.900176 
L 382.549249 103.428415 
L 383.526339 103.905212 
L 384.503429 103.436101 
L 385.480519 103.910192 
L 386.45761 103.443701 
L 387.4347 103.915116 
L 388.41179 103.451217 
L 389.388881 103.919985 
L 390.365971 103.45865 
L 391.343061 103.924801 
L 392.320152 103.466001 
L 393.297242 103.929565 
L 394.274332 103.473271 
L 395.251423 103.934277 
L 396.228513 103.480463 
L 397.205603 103.938937 
L 398.182694 103.487577 
L 399.159784 103.943548 
L 400.136874 103.494614 
L 401.113965 103.948109 
L 402.091055 103.501576 
L 403.068145 103.952622 
L 404.045236 103.508464 
L 405.022326 103.957087 
L 405.999416 103.515279 
L 406.976507 103.961505 
L 407.953597 103.522023 
L 408.930687 103.965877 
L 409.907778 103.528695 
L 410.884868 103.970204 
L 411.861958 103.535299 
L 412.839049 103.974485 
L 413.816139 103.541833 
L 414.793229 103.978722 
L 415.77032 103.548301 
L 416.74741 103.982916 
L 417.7245 103.554702 
L 418.701591 103.987067 
L 419.678681 103.561038 
L 420.655771 103.991176 
L 421.632862 103.567309 
L 422.609952 103.995243 
L 423.587042 103.573518 
L 424.564133 103.99927 
L 425.541223 103.579663 
L 426.518313 104.003256 
L 427.495403 103.585748 
L 428.472494 104.007203 
L 429.449584 103.591771 
L 430.426674 104.01111 
L 431.403765 103.597735 
L 432.380855 104.014979 
L 433.357945 103.603641 
L 434.335036 104.018811 
L 435.312126 103.609488 
L 436.289216 104.022604 
L 437.266307 103.615279 
L 438.243397 104.026361 
L 439.220487 103.621013 
L 440.197578 104.030082 
L 441.174668 103.626692 
L 442.151758 104.033767 
L 443.128849 103.632316 
L 444.105939 104.037416 
L 445.083029 103.637886 
L 446.06012 104.041031 
L 447.03721 103.643404 
L 448.0143 104.044611 
L 448.991391 103.648869 
L 449.968481 104.048158 
L 450.945571 103.654282 
L 451.922662 104.051672 
L 452.899752 103.659645 
L 453.876842 104.055152 
L 454.853933 103.664957 
L 455.831023 104.0586 
L 456.808113 103.67022 
L 457.785204 104.062017 
L 458.762294 103.675435 
L 459.739384 104.065402 
L 460.716475 103.680601 
L 461.693565 104.068755 
L 462.670655 103.68572 
L 463.647746 104.072078 
L 464.624836 103.690792 
L 465.601926 104.075371 
L 466.579016 103.695818 
L 467.556107 104.078635 
L 468.533197 103.700799 
L 469.510287 104.081868 
L 470.487378 103.705734 
L 471.464468 76.132585 
L 472.441558 75.69573 
L 473.418649 76.136291 
L 474.395739 75.701386 
L 475.372829 76.139963 
L 476.34992 75.706991 
L 477.32701 76.143603 
L 478.3041 75.712547 
L 479.281191 76.147211 
L 480.258281 75.718054 
L 481.235371 76.150787 
L 482.212462 75.723513 
L 483.189552 76.154333 
L 484.166642 75.728923 
L 485.143733 76.157847 
L 486.120823 75.734287 
L 487.097913 76.161331 
L 488.075004 75.739605 
L 489.052094 76.164784 
L 490.029184 75.744876 
L 491.006275 48.22081 
L 491.983365 47.742974 
L 492.960455 48.22469 
L 493.937546 47.748896 
L 494.914636 48.228536 
L 495.891726 47.754768 
L 496.868817 48.232351 
L 497.845907 47.760589 
L 498.822997 48.236133 
L 499.800088 47.766362 
L 500.777178 48.239883 
L 501.754268 47.772086 
L 502.731359 48.243602 
L 503.708449 47.777762 
L 504.685539 48.24729 
L 505.66263 47.783391 
L 506.63972 48.250947 
L 507.61681 47.788973 
L 508.5939 48.254574 
L 509.570991 47.79451 
L 510.548081 20.315443 
L 511.525171 19.8 
L 512.502262 20.319457 
L 513.479352 19.806126 
L 514.456442 20.323437 
L 515.433533 19.812202 
L 516.410623 20.327386 
L 517.387713 19.818229 
L 518.364804 20.331303 
L 519.341894 19.824207 
L 520.318984 20.335188 
L 521.296075 19.830137 
L 522.273165 20.339041 
L 523.250255 19.836019 
L 524.227346 20.342864 
L 525.204436 19.841854 
L 526.181526 20.346657 
L 527.158617 19.847643 
L 528.135707 20.350419 
L 529.112797 19.853385 
L 530.089888 20.354152 
L 531.066978 19.859082 
L 532.044068 20.357855 
L 533.021159 19.864735 
L 533.998249 20.361529 
L 534.975339 19.870343 
L 535.95243 20.365175 
L 536.92952 19.875907 
L 537.90661 20.368792 
L 538.883701 19.881428 
L 539.860791 20.372381 
L 540.837881 19.886906 
L 541.814972 20.375943 
L 542.792062 19.892342 
L 543.769152 20.379477 
L 544.746243 19.897736 
L 545.723333 20.382984 
L 546.700423 19.903089 
L 547.677514 20.386464 
L 548.654604 19.9084 
L 549.631694 20.389917 
L 550.608784 19.913672 
L 551.585875 20.393345 
L 552.562965 19.918903 
L 553.540055 20.396747 
L 554.517146 19.924095 
L 555.494236 20.400123 
L 556.471326 19.929248 
L 557.448417 20.403474 
L 558.425507 19.934363 
L 559.402597 20.406799 
L 560.379688 19.939439 
L 561.356778 20.4101 
L 562.333868 19.944477 
L 563.310959 20.413377 
L 564.288049 19.949478 
L 565.265139 20.416629 
L 566.24223 19.954443 
L 567.21932 20.419858 
L 568.19641 19.95937 
L 569.173501 20.423063 
L 570.150591 19.964262 
L 571.127681 20.426244 
L 572.104772 19.969118 
L 573.081862 20.429403 
L 574.058952 19.973939 
L 575.036043 20.432538 
L 576.013133 19.978724 
L 576.990223 20.435651 
L 577.967314 19.983475 
L 578.944404 20.438741 
L 579.921494 19.988192 
L 580.898585 20.441809 
L 581.875675 19.992875 
L 582.852765 20.444856 
L 583.829856 19.997525 
L 584.806946 20.44788 
L 585.784036 20.002142 
L 586.761127 20.450884 
L 587.738217 20.006725 
L 588.715307 20.453866 
L 589.692397 20.011277 
L 590.669488 20.456827 
L 591.646578 20.015796 
L 592.623668 20.459767 
L 593.600759 20.020284 
L 594.577849 20.462686 
L 595.554939 20.02474 
L 596.53203 20.465586 
L 597.50912 20.029166 
L 598.48621 20.468465 
L 599.463301 20.03356 
L 600.440391 20.471324 
L 601.417481 20.037924 
L 602.394572 20.474164 
L 603.371662 20.042258 
L 604.348752 20.476984 
L 605.325843 20.046562 
L 606.302933 20.479784 
L 607.280023 20.050837 
L 608.257114 20.482566 
L 609.234204 20.055083 
L 610.211294 20.485329 
L 611.188385 20.059299 
L 612.165475 20.488072 
L 613.142565 20.063487 
L 614.119656 20.490798 
L 615.096746 20.067647 
L 616.073836 20.493505 
L 617.050927 20.071779 
L 618.028017 20.496194 
L 619.005107 20.075883 
L 619.982198 20.498865 
L 620.959288 20.07996 
L 621.936378 20.501518 
L 622.913469 20.084009 
L 623.890559 20.504153 
L 624.867649 20.088032 
L 625.84474 20.506771 
L 626.82183 20.092027 
L 627.79892 20.465297 
L 646.363636 20.465297 
L 646.363636 20.465297 
" clip-path="url(#p6b67899b39)" style="fill: none; stroke: #001c7f; stroke-opacity: 0; stroke-width: 2; stroke-linecap: round"/>
   </g>
   <g id="patch_3">
    <path d="M 7.2 284.4 
L 7.2 7.2 
" style="fill: none; stroke: #262626; stroke-width: 1.25; stroke-linejoin: miter; stroke-linecap: square"/>
   </g>
   <g id="patch_4">
    <path d="M 676.8 284.4 
L 676.8 7.2 
" style="fill: none; stroke: #262626; stroke-width: 1.25; stroke-linejoin: miter; stroke-linecap: square"/>
   </g>
   <g id="patch_5">
    <path d="M 7.2 284.4 
L 676.8 284.4 
" style="fill: none; stroke: #262626; stroke-width: 1.25; stroke-linejoin: miter; stroke-linecap: square"/>
   </g>
   <g id="patch_6">
    <path d="M 7.2 7.2 
L 676.8 7.2 
" style="fill: none; stroke: #262626; stroke-width: 1.25; stroke-linejoin: miter; stroke-linecap: square"/>
   </g>
   <g id="legend_1">
    <g id="patch_7">
     <path d="M 14.9 31.754062 
L 201.939531 31.754062 
Q 204.139531 31.754062 204.139531 29.554062 
L 204.139531 14.9 
Q 204.139531 12.7 201.939531 12.7 
L 14.9 12.7 
Q 12.7 12.7 12.7 14.9 
L 12.7 29.554062 
Q 12.7 31.754062 14.9 31.754062 
z
" style="fill: #ffffff; opacity: 0.8; stroke: #cccccc; stroke-linejoin: miter"/>
    </g>
    <g id="line2d_9">
     <path d="M 17.1 21.221562 
L 28.1 21.221562 
L 39.1 21.221562 
" style="fill: none; stroke: #12711c; stroke-width: 2; stroke-linecap: round"/>
    </g>
    <g id="text_7">
     <!-- increase(counter[320m]) -->
     <g style="fill: #262626" transform="translate(47.9 25.071562) scale(0.11 -0.11)">
      <defs>
       <path id="LiberationMono-Bold-69" d="M 2481 594 
L 3584 594 
L 3584 0 
L 369 0 
L 369 594 
L 1603 594 
L 1603 2788 
L 697 2788 
L 697 3381 
L 2481 3381 
L 2481 594 
z
M 1603 3991 
L 1603 4638 
L 2481 4638 
L 2481 3991 
L 1603 3991 
z
" transform="scale(0.015625)"/>
       <path id="LiberationMono-Bold-6e" d="M 2575 0 
L 2575 1934 
Q 2575 2375 2454 2581 
Q 2334 2788 2041 2788 
Q 1716 2788 1520 2511 
Q 1325 2234 1325 1813 
L 1325 0 
L 447 0 
L 447 2625 
Q 447 2897 439 3070 
Q 431 3244 422 3381 
L 1259 3381 
Q 1269 3322 1284 3064 
Q 1300 2806 1300 2709 
L 1313 2709 
Q 1491 3097 1759 3272 
Q 2028 3447 2400 3447 
Q 3450 3447 3450 2147 
L 3450 0 
L 2575 0 
z
" transform="scale(0.015625)"/>
       <path id="LiberationMono-Bold-63" d="M 1950 -63 
Q 1181 -63 762 395 
Q 344 853 344 1672 
Q 344 2509 766 2976 
Q 1188 3444 1963 3444 
Q 2559 3444 2950 3144 
Q 3341 2844 3441 2316 
L 2556 2272 
Q 2519 2531 2369 2686 
Q 2219 2841 1944 2841 
Q 1266 2841 1266 1706 
Q 1266 538 1956 538 
Q 2206 538 2375 695 
Q 2544 853 2584 1166 
L 3466 1125 
Q 3419 778 3217 506 
Q 3016 234 2687 85 
Q 2359 -63 1950 -63 
z
" transform="scale(0.015625)"/>
       <path id="LiberationMono-Bold-72" d="M 3378 2650 
Q 3028 2709 2716 2709 
Q 2228 2709 1942 2340 
Q 1656 1972 1656 1369 
L 1656 0 
L 781 0 
L 781 2191 
Q 781 2428 739 2750 
Q 697 3072 619 3381 
L 1466 3381 
Q 1578 2975 1609 2669 
L 1622 2669 
Q 1778 3094 2043 3269 
Q 2309 3444 2734 3444 
Q 3059 3444 3378 3391 
L 3378 2650 
z
" transform="scale(0.015625)"/>
       <path id="LiberationMono-Bold-65" d="M 1956 -63 
Q 1169 -63 741 401 
Q 313 866 313 1706 
Q 313 2269 514 2656 
Q 716 3044 1087 3244 
Q 1459 3444 1969 3444 
Q 2709 3444 3118 2950 
Q 3528 2456 3528 1547 
L 3528 1522 
L 1234 1522 
Q 1234 1063 1439 794 
Q 1644 525 2000 525 
Q 2231 525 2409 623 
Q 2588 722 2650 928 
L 3478 856 
Q 3306 416 2906 176 
Q 2506 -63 1956 -63 
z
M 1956 2891 
Q 1634 2891 1443 2673 
Q 1253 2456 1241 2072 
L 2678 2072 
Q 2656 2447 2464 2669 
Q 2272 2891 1956 2891 
z
" transform="scale(0.015625)"/>
       <path id="LiberationMono-Bold-61" d="M 1372 -63 
Q 881 -63 606 204 
Q 331 472 331 956 
Q 331 1481 657 1754 
Q 984 2028 1634 2038 
L 2331 2050 
L 2331 2222 
Q 2331 2544 2222 2709 
Q 2113 2875 1869 2875 
Q 1641 2875 1533 2761 
Q 1425 2647 1400 2397 
L 484 2441 
Q 653 3444 1906 3444 
Q 2538 3444 2873 3134 
Q 3209 2825 3209 2225 
L 3209 1000 
Q 3209 716 3273 608 
Q 3338 500 3488 500 
Q 3588 500 3681 519 
L 3681 44 
Q 3603 25 3540 9 
Q 3478 -6 3415 -15 
Q 3353 -25 3283 -31 
Q 3213 -38 3119 -38 
Q 2788 -38 2630 125 
Q 2472 288 2441 603 
L 2422 603 
Q 2225 250 1973 93 
Q 1722 -63 1372 -63 
z
M 2331 1566 
L 1913 1559 
Q 1631 1553 1504 1501 
Q 1378 1450 1312 1336 
Q 1247 1222 1247 1025 
Q 1247 550 1622 550 
Q 1925 550 2128 789 
Q 2331 1028 2331 1394 
L 2331 1566 
z
" transform="scale(0.015625)"/>
       <path id="LiberationMono-Bold-73" d="M 3450 988 
Q 3450 497 3048 217 
Q 2647 -63 1938 -63 
Q 1241 -63 870 157 
Q 500 378 378 844 
L 1150 959 
Q 1216 719 1377 619 
Q 1538 519 1938 519 
Q 2306 519 2475 612 
Q 2644 706 2644 906 
Q 2644 1069 2508 1164 
Q 2372 1259 2047 1325 
Q 1303 1472 1043 1598 
Q 784 1725 648 1926 
Q 513 2128 513 2422 
Q 513 2906 886 3176 
Q 1259 3447 1944 3447 
Q 2547 3447 2914 3212 
Q 3281 2978 3372 2534 
L 2594 2453 
Q 2556 2659 2409 2761 
Q 2263 2863 1944 2863 
Q 1631 2863 1475 2783 
Q 1319 2703 1319 2516 
Q 1319 2369 1439 2283 
Q 1559 2197 1844 2141 
Q 2241 2059 2548 1973 
Q 2856 1888 3042 1769 
Q 3228 1650 3339 1464 
Q 3450 1278 3450 988 
z
" transform="scale(0.015625)"/>
       <path id="LiberationMono-Bold-28" d="M 2003 -1328 
Q 1513 -622 1294 81 
Q 1075 784 1075 1659 
Q 1075 2531 1294 3232 
Q 1513 3934 2003 4638 
L 2881 4638 
Q 2388 3925 2164 3219 
Q 1941 2513 1941 1656 
Q 1941 803 2162 101 
Q 2384 -600 2881 -1328 
L 2003 -1328 
z
" transform="scale(0.015625)"/>
       <path id="LiberationMono-Bold-6f" d="M 3553 1694 
Q 3553 853 3128 395 
Q 2703 -63 1906 -63 
Q 1138 -63 713 395 
Q 288 853 288 1694 
Q 288 2531 709 2987 
Q 1131 3444 1925 3444 
Q 3553 3444 3553 1694 
z
M 2634 1694 
Q 2634 2294 2475 2567 
Q 2316 2841 1938 2841 
Q 1550 2841 1379 2566 
Q 1209 2291 1209 1694 
Q 1209 1091 1382 814 
Q 1556 538 1897 538 
Q 2284 538 2459 811 
Q 2634 1084 2634 1694 
z
" transform="scale(0.015625)"/>
       <path id="LiberationMono-Bold-75" d="M 1300 3381 
L 1300 1484 
Q 1300 1053 1439 823 
Q 1578 594 1838 594 
Q 2119 594 2301 870 
Q 2484 1147 2484 1569 
L 2484 3381 
L 3363 3381 
L 3363 756 
Q 3363 325 3388 0 
L 2550 0 
Q 2513 450 2513 672 
L 2497 672 
Q 2163 -63 1472 -63 
Q 959 -63 690 264 
Q 422 591 422 1234 
L 422 3381 
L 1300 3381 
z
" transform="scale(0.015625)"/>
       <path id="LiberationMono-Bold-74" d="M 1025 2788 
L 503 2788 
L 503 3381 
L 1069 3381 
L 1344 4263 
L 1894 4263 
L 1894 3381 
L 3097 3381 
L 3097 2788 
L 1894 2788 
L 1894 1131 
Q 1894 856 1945 761 
Q 1997 666 2112 611 
Q 2228 556 2438 556 
Q 2825 556 3234 641 
L 3234 59 
Q 2791 -13 2606 -27 
Q 2422 -41 2222 -41 
Q 1825 -41 1558 67 
Q 1291 175 1155 404 
Q 1019 634 1019 1050 
L 1025 2788 
z
" transform="scale(0.015625)"/>
       <path id="LiberationMono-Bold-5b" d="M 1166 -1328 
L 1166 4638 
L 3047 4638 
L 3047 4044 
L 1997 4044 
L 1997 -731 
L 3047 -731 
L 3047 -1328 
L 1166 -1328 
z
" transform="scale(0.015625)"/>
       <path id="LiberationMono-Bold-33" d="M 3516 1175 
Q 3516 584 3092 256 
Q 2669 -72 1922 -72 
Q 1203 -72 783 242 
Q 363 556 291 1150 
L 1184 1228 
Q 1263 641 1919 641 
Q 2247 641 2431 798 
Q 2616 956 2616 1228 
Q 2616 1500 2389 1644 
Q 2163 1788 1741 1788 
L 1434 1788 
L 1434 2497 
L 1722 2497 
Q 2103 2497 2308 2642 
Q 2513 2788 2513 3047 
Q 2513 3281 2342 3431 
Q 2172 3581 1888 3581 
Q 1619 3581 1444 3454 
Q 1269 3328 1244 3053 
L 366 3116 
Q 434 3675 839 3978 
Q 1244 4281 1903 4281 
Q 2366 4281 2705 4140 
Q 3044 4000 3223 3745 
Q 3403 3491 3403 3156 
Q 3403 2772 3159 2515 
Q 2916 2259 2463 2172 
L 2463 2159 
Q 2953 2103 3234 1839 
Q 3516 1575 3516 1175 
z
" transform="scale(0.015625)"/>
       <path id="LiberationMono-Bold-32" d="M 384 0 
L 384 609 
Q 541 953 830 1298 
Q 1119 1644 1672 2094 
Q 2103 2447 2231 2581 
Q 2359 2716 2432 2842 
Q 2506 2969 2506 3100 
Q 2506 3325 2359 3453 
Q 2213 3581 1928 3581 
Q 1647 3581 1498 3429 
Q 1350 3278 1306 2975 
L 422 3025 
Q 497 3638 880 3959 
Q 1263 4281 1922 4281 
Q 2603 4281 3000 3970 
Q 3397 3659 3397 3138 
Q 3397 2797 3183 2473 
Q 2969 2150 2541 1816 
Q 1934 1347 1725 1140 
Q 1516 934 1422 722 
L 3466 722 
L 3466 0 
L 384 0 
z
" transform="scale(0.015625)"/>
       <path id="LiberationMono-Bold-30" d="M 3472 2109 
Q 3472 1050 3072 493 
Q 2672 -63 1909 -63 
Q 1144 -63 755 492 
Q 366 1047 366 2109 
Q 366 3209 745 3745 
Q 1125 4281 1934 4281 
Q 2716 4281 3094 3737 
Q 3472 3194 3472 2109 
z
M 2591 2109 
Q 2591 2659 2525 2979 
Q 2459 3300 2321 3447 
Q 2184 3594 1928 3594 
Q 1659 3594 1515 3447 
Q 1372 3300 1308 2979 
Q 1244 2659 1244 2109 
Q 1244 1566 1311 1244 
Q 1378 922 1518 775 
Q 1659 628 1916 628 
Q 2278 628 2434 968 
Q 2591 1309 2591 2109 
z
M 1581 1734 
L 1581 2513 
L 2253 2513 
L 2253 1734 
L 1581 1734 
z
" transform="scale(0.015625)"/>
       <path id="LiberationMono-Bold-6d" d="M 1566 0 
L 1566 2056 
Q 1566 2522 1508 2703 
Q 1450 2884 1294 2884 
Q 1134 2884 1042 2590 
Q 950 2297 950 1819 
L 950 0 
L 234 0 
L 234 2659 
Q 234 3250 216 3381 
L 869 3381 
L 888 2984 
L 888 2834 
L 894 2834 
Q 1000 3153 1162 3298 
Q 1325 3444 1569 3444 
Q 1844 3444 1980 3294 
Q 2116 3144 2175 2831 
L 2181 2831 
Q 2306 3163 2479 3303 
Q 2653 3444 2919 3444 
Q 3288 3444 3447 3175 
Q 3606 2906 3606 2253 
L 3606 0 
L 2894 0 
L 2894 2056 
Q 2894 2522 2836 2703 
Q 2778 2884 2622 2884 
Q 2463 2884 2370 2632 
Q 2278 2381 2278 1878 
L 2278 0 
L 1566 0 
z
" transform="scale(0.015625)"/>
       <path id="LiberationMono-Bold-5d" d="M 794 -1328 
L 794 -731 
L 1844 -731 
L 1844 4044 
L 794 4044 
L 794 4638 
L 2675 4638 
L 2675 -1328 
L 794 -1328 
z
" transform="scale(0.015625)"/>
       <path id="LiberationMono-Bold-29" d="M 959 -1328 
Q 1459 -597 1679 101 
Q 1900 800 1900 1656 
Q 1900 2516 1675 3223 
Q 1450 3931 959 4638 
L 1838 4638 
Q 2331 3928 2548 3225 
Q 2766 2522 2766 1659 
Q 2766 791 2548 87 
Q 2331 -616 1838 -1328 
L 959 -1328 
z
" transform="scale(0.015625)"/>
      </defs>
      <use xlink:href="#LiberationMono-Bold-69"/>
      <use xlink:href="#LiberationMono-Bold-6e" transform="translate(60.009766 0)"/>
      <use xlink:href="#LiberationMono-Bold-63" transform="translate(120.019531 0)"/>
      <use xlink:href="#LiberationMono-Bold-72" transform="translate(180.029297 0)"/>
      <use xlink:href="#LiberationMono-Bold-65" transform="translate(240.039062 0)"/>
      <use xlink:href="#LiberationMono-Bold-61" transform="translate(300.048828 0)"/>
      <use xlink:href="#LiberationMono-Bold-73" transform="translate(360.058594 0)"/>
      <use xlink:href="#LiberationMono-Bold-65" transform="translate(420.068359 0)"/>
      <use xlink:href="#LiberationMono-Bold-28" transform="translate(480.078125 0)"/>
      <use xlink:href="#LiberationMono-Bold-63" transform="translate(540.087891 0)"/>
      <use xlink:href="#LiberationMono-Bold-6f" transform="translate(600.097656 0)"/>
      <use xlink:href="#LiberationMono-Bold-75" transform="translate(660.107422 0)"/>
      <use xlink:href="#LiberationMono-Bold-6e" transform="translate(720.117188 0)"/>
      <use xlink:href="#LiberationMono-Bold-74" transform="translate(780.126953 0)"/>
      <use xlink:href="#LiberationMono-Bold-65" transform="translate(840.136719 0)"/>
      <use xlink:href="#LiberationMono-Bold-72" transform="translate(900.146484 0)"/>
      <use xlink:href="#LiberationMono-Bold-5b" transform="translate(960.15625 0)"/>
      <use xlink:href="#LiberationMono-Bold-33" transform="translate(1020.166016 0)"/>
      <use xlink:href="#LiberationMono-Bold-32" transform="translate(1080.175781 0)"/>
      <use xlink:href="#LiberationMono-Bold-30" transform="translate(1140.185547 0)"/>
      <use xlink:href="#LiberationMono-Bold-6d" transform="translate(1200.195312 0)"/>
      <use xlink:href="#LiberationMono-Bold-5d" transform="translate(1260.205078 0)"/>
      <use xlink:href="#LiberationMono-Bold-29" transform="translate(1320.214844 0)"/>
     </g>
    </g>
   </g>
  </g>
 </g>
 <defs>
  <clipPath id="p6b67899b39">
   <rect x="7.2" y="7.2" width="669.6" height="277.2"/>
  </clipPath>
 </defs>
</svg>
