<?xml version="1.0" encoding="utf-8" standalone="no"?>
<!DOCTYPE svg PUBLIC "-//W3C//DTD SVG 1.1//EN"
  "http://www.w3.org/Graphics/SVG/1.1/DTD/svg11.dtd">
<svg xmlns:xlink="http://www.w3.org/1999/xlink" width="684pt" height="308.8425pt" viewBox="0 0 684 308.8425" xmlns="http://www.w3.org/2000/svg" version="1.1">
 <metadata>
  <rdf:RDF xmlns:dc="http://purl.org/dc/elements/1.1/" xmlns:cc="http://creativecommons.org/ns#" xmlns:rdf="http://www.w3.org/1999/02/22-rdf-syntax-ns#">
   <cc:Work>
    <dc:type rdf:resource="http://purl.org/dc/dcmitype/StillImage"/>
    <dc:date>2026-05-07T04:59:31.355219</dc:date>
    <dc:format>image/svg+xml</dc:format>
    <dc:creator>
     <cc:Agent>
      <dc:title>Matplotlib v3.10.9, https://matplotlib.org/</dc:title>
     </cc:Agent>
    </dc:creator>
   </cc:Work>
  </rdf:RDF>
 </metadata>
 <defs>
  <style type="text/css">*{stroke-linejoin: round; stroke-linecap: butt}</style>
 </defs>
 <g id="figure_1">
  <g id="patch_1">
   <path d="M 0 308.8425 
L 684 308.8425 
L 684 0 
L 0 0 
z
" style="fill: #f2f2f2"/>
  </g>
  <g id="axes_1">
   <g id="patch_2">
    <path d="M 7.2 284.4 
L 676.8 284.4 
L 676.8 7.2 
L 7.2 7.2 
z
" style="fill: #f2f2f2"/>
   </g>
   <g id="matplotlib.axis_1">
    <g id="xtick_1">
     <g id="line2d_1">
      <defs>
       <path id="m7ce6bb77bc" d="M 0 0 
L 0 6 
" style="stroke: #262626; stroke-width: 1.25"/>
      </defs>
      <g>
       <use xlink:href="#m7ce6bb77bc" x="40.535065" y="284.4" style="fill: #262626; stroke: #262626; stroke-width: 1.25"/>
      </g>
     </g>
     <g id="text_1">
      <!-- 15:30 -->
      <g style="fill: #262626" transform="translate(29.007565 299.97875) scale(0.08 -0.08)">
       <defs>
        <path id="DejaVuSans-31" d="M 794 531 
L 1825 531 
L 1825 4091 
L 703 3866 
L 703 4441 
L 1819 4666 
L 2450 4666 
L 2450 531 
L 3481 531 
L 3481 0 
L 794 0 
L 794 531 
z
" transform="scale(0.015625)"/>
        <path id="DejaVuSans-35" d="M 691 4666 
L 3169 4666 
L 3169 4134 
L 1269 4134 
L 1269 2991 
Q 1406 3038 1543 3061 
Q 1681 3084 1819 3084 
Q 2600 3084 3056 2656 
Q 3513 2228 3513 1497 
Q 3513 744 3044 326 
Q 2575 -91 1722 -91 
Q 1428 -91 1123 -41 
Q 819 9 494 109 
L 494 744 
Q 775 591 1075 516 
Q 1375 441 1709 441 
Q 2250 441 2565 725 
Q 2881 1009 2881 1497 
Q 2881 1984 2565 2268 
Q 2250 2553 1709 2553 
Q 1456 2553 1204 2497 
Q 953 2441 691 2322 
L 691 4666 
z
" transform="scale(0.015625)"/>
        <path id="DejaVuSans-3a" d="M 750 794 
L 1409 794 
L 1409 0 
L 750 0 
L 750 794 
z
M 750 3309 
L 1409 3309 
L 1409 2516 
L 750 2516 
L 750 3309 
z
" transform="scale(0.015625)"/>
        <path id="DejaVuSans-33" d="M 2597 2516 
Q 3050 2419 3304 2112 
Q 3559 1806 3559 1356 
Q 3559 666 3084 287 
Q 2609 -91 1734 -91 
Q 1441 -91 1130 -33 
Q 819 25 488 141 
L 488 750 
Q 750 597 1062 519 
Q 1375 441 1716 441 
Q 2309 441 2620 675 
Q 2931 909 2931 1356 
Q 2931 1769 2642 2001 
Q 2353 2234 1838 2234 
L 1294 2234 
L 1294 2753 
L 1863 2753 
Q 2328 2753 2575 2939 
Q 2822 3125 2822 3475 
Q 2822 3834 2567 4026 
Q 2313 4219 1838 4219 
Q 1578 4219 1281 4162 
Q 984 4106 628 3988 
L 628 4550 
Q 988 4650 1302 4700 
Q 1616 4750 1894 4750 
Q 2613 4750 3031 4423 
Q 3450 4097 3450 3541 
Q 3450 3153 3228 2886 
Q 3006 2619 2597 2516 
z
" transform="scale(0.015625)"/>
        <path id="DejaVuSans-30" d="M 2034 4250 
Q 1547 4250 1301 3770 
Q 1056 3291 1056 2328 
Q 1056 1369 1301 889 
Q 1547 409 2034 409 
Q 2525 409 2770 889 
Q 3016 1369 3016 2328 
Q 3016 3291 2770 3770 
Q 2525 4250 2034 4250 
z
M 2034 4750 
Q 2819 4750 3233 4129 
Q 3647 3509 3647 2328 
Q 3647 1150 3233 529 
Q 2819 -91 2034 -91 
Q 1250 -91 836 529 
Q 422 1150 422 2328 
Q 422 3509 836 4129 
Q 1250 4750 2034 4750 
z
" transform="scale(0.015625)"/>
       </defs>
       <use xlink:href="#DejaVuSans-31"/>
       <use xlink:href="#DejaVuSans-35" transform="translate(63.623047 0)"/>
       <use xlink:href="#DejaVuSans-3a" transform="translate(127.246094 0)"/>
       <use xlink:href="#DejaVuSans-33" transform="translate(160.9375 0)"/>
       <use xlink:href="#DejaVuSans-30" transform="translate(224.560547 0)"/>
      </g>
     </g>
    </g>
    <g id="xtick_2">
     <g id="line2d_2">
      <g>
       <use xlink:href="#m7ce6bb77bc" x="128.97002" y="284.4" style="fill: #262626; stroke: #262626; stroke-width: 1.25"/>
      </g>
     </g>
     <g id="text_2">
      <!-- 16:00 -->
      <g style="fill: #262626" transform="translate(117.44252 299.97875) scale(0.08 -0.08)">
       <defs>
        <path id="DejaVuSans-36" d="M 2113 2584 
Q 1688 2584 1439 2293 
Q 1191 2003 1191 1497 
Q 1191 994 1439 701 
Q 1688 409 2113 409 
Q 2538 409 2786 701 
Q 3034 994 3034 1497 
Q 3034 2003 2786 2293 
Q 2538 2584 2113 2584 
z
M 3366 4563 
L 3366 3988 
Q 3128 4100 2886 4159 
Q 2644 4219 2406 4219 
Q 1781 4219 1451 3797 
Q 1122 3375 1075 2522 
Q 1259 2794 1537 2939 
Q 1816 3084 2150 3084 
Q 2853 3084 3261 2657 
Q 3669 2231 3669 1497 
Q 3669 778 3244 343 
Q 2819 -91 2113 -91 
Q 1303 -91 875 529 
Q 447 1150 447 2328 
Q 447 3434 972 4092 
Q 1497 4750 2381 4750 
Q 2619 4750 2861 4703 
Q 3103 4656 3366 4563 
z
" transform="scale(0.015625)"/>
       </defs>
       <use xlink:href="#DejaVuSans-31"/>
       <use xlink:href="#DejaVuSans-36" transform="translate(63.623047 0)"/>
       <use xlink:href="#DejaVuSans-3a" transform="translate(127.246094 0)"/>
       <use xlink:href="#DejaVuSans-30" transform="translate(160.9375 0)"/>
       <use xlink:href="#DejaVuSans-30" transform="translate(224.560547 0)"/>
      </g>
     </g>
    </g>
    <g id="xtick_3">
     <g id="line2d_3">
      <g>
       <use xlink:href="#m7ce6bb77bc" x="217.404975" y="284.4" style="fill: #262626; stroke: #262626; stroke-width: 1.25"/>
      </g>
     </g>
     <g id="text_3">
      <!-- 16:30 -->
      <g style="fill: #262626" transform="translate(205.877475 299.97875) scale(0.08 -0.08)">
       <use xlink:href="#DejaVuSans-31"/>
       <use xlink:href="#DejaVuSans-36" transform="translate(63.623047 0)"/>
       <use xlink:href="#DejaVuSans-3a" transform="translate(127.246094 0)"/>
       <use xlink:href="#DejaVuSans-33" transform="translate(160.9375 0)"/>
       <use xlink:href="#DejaVuSans-30" transform="translate(224.560547 0)"/>
      </g>
     </g>
    </g>
    <g id="xtick_4">
     <g id="line2d_4">
      <g>
       <use xlink:href="#m7ce6bb77bc" x="305.83993" y="284.4" style="fill: #262626; stroke: #262626; stroke-width: 1.25"/>
      </g>
     </g>
     <g id="text_4">
      <!-- 17:00 -->
      <g style="fill: #262626" transform="translate(294.31243 299.97875) scale(0.08 -0.08)">
       <defs>
        <path id="DejaVuSans-37" d="M 525 4666 
L 3525 4666 
L 3525 4397 
L 1831 0 
L 1172 0 
L 2766 4134 
L 525 4134 
L 525 4666 
z
" transform="scale(0.015625)"/>
       </defs>
       <use xlink:href="#DejaVuSans-31"/>
       <use xlink:href="#DejaVuSans-37" transform="translate(63.623047 0)"/>
       <use xlink:href="#DejaVuSans-3a" transform="translate(127.246094 0)"/>
       <use xlink:href="#DejaVuSans-30" transform="translate(160.9375 0)"/>
       <use xlink:href="#DejaVuSans-30" transform="translate(224.560547 0)"/>
      </g>
     </g>
    </g>
    <g id="xtick_5">
     <g id="line2d_5">
      <g>
       <use xlink:href="#m7ce6bb77bc" x="394.274884" y="284.4" style="fill: #262626; stroke: #262626; stroke-width: 1.25"/>
      </g>
     </g>
     <g id="text_5">
      <!-- 17:30 -->
      <g style="fill: #262626" transform="translate(382.747384 299.97875) scale(0.08 -0.08)">
       <use xlink:href="#DejaVuSans-31"/>
       <use xlink:href="#DejaVuSans-37" transform="translate(63.623047 0)"/>
       <use xlink:href="#DejaVuSans-3a" transform="translate(127.246094 0)"/>
       <use xlink:href="#DejaVuSans-33" transform="translate(160.9375 0)"/>
       <use xlink:href="#DejaVuSans-30" transform="translate(224.560547 0)"/>
      </g>
     </g>
    </g>
    <g id="xtick_6">
     <g id="line2d_6">
      <g>
       <use xlink:href="#m7ce6bb77bc" x="482.709839" y="284.4" style="fill: #262626; stroke: #262626; stroke-width: 1.25"/>
      </g>
     </g>
     <g id="text_6">
      <!-- 18:00 -->
      <g style="fill: #262626" transform="translate(471.182339 299.97875) scale(0.08 -0.08)">
       <defs>
        <path id="DejaVuSans-38" d="M 2034 2216 
Q 1584 2216 1326 1975 
Q 1069 1734 1069 1313 
Q 1069 891 1326 650 
Q 1584 409 2034 409 
Q 2484 409 2743 651 
Q 3003 894 3003 1313 
Q 3003 1734 2745 1975 
Q 2488 2216 2034 2216 
z
M 1403 2484 
Q 997 2584 770 2862 
Q 544 3141 544 3541 
Q 544 4100 942 4425 
Q 1341 4750 2034 4750 
Q 2731 4750 3128 4425 
Q 3525 4100 3525 3541 
Q 3525 3141 3298 2862 
Q 3072 2584 2669 2484 
Q 3125 2378 3379 2068 
Q 3634 1759 3634 1313 
Q 3634 634 3220 271 
Q 2806 -91 2034 -91 
Q 1263 -91 848 271 
Q 434 634 434 1313 
Q 434 1759 690 2068 
Q 947 2378 1403 2484 
z
M 1172 3481 
Q 1172 3119 1398 2916 
Q 1625 2713 2034 2713 
Q 2441 2713 2670 2916 
Q 2900 3119 2900 3481 
Q 2900 3844 2670 4047 
Q 2441 4250 2034 4250 
Q 1625 4250 1398 4047 
Q 1172 3844 1172 3481 
z
" transform="scale(0.015625)"/>
       </defs>
       <use xlink:href="#DejaVuSans-31"/>
       <use xlink:href="#DejaVuSans-38" transform="translate(63.623047 0)"/>
       <use xlink:href="#DejaVuSans-3a" transform="translate(127.246094 0)"/>
       <use xlink:href="#DejaVuSans-30" transform="translate(160.9375 0)"/>
       <use xlink:href="#DejaVuSans-30" transform="translate(224.560547 0)"/>
      </g>
     </g>
    </g>
    <g id="xtick_7">
     <g id="line2d_7">
      <g>
       <use xlink:href="#m7ce6bb77bc" x="571.144794" y="284.4" style="fill: #262626; stroke: #262626; stroke-width: 1.25"/>
      </g>
     </g>
     <g id="text_7">
      <!-- 18:30 -->
      <g style="fill: #262626" transform="translate(559.617294 299.97875) scale(0.08 -0.08)">
       <use xlink:href="#DejaVuSans-31"/>
       <use xlink:href="#DejaVuSans-38" transform="translate(63.623047 0)"/>
       <use xlink:href="#DejaVuSans-3a" transform="translate(127.246094 0)"/>
       <use xlink:href="#DejaVuSans-33" transform="translate(160.9375 0)"/>
       <use xlink:href="#DejaVuSans-30" transform="translate(224.560547 0)"/>
      </g>
     </g>
    </g>
    <g id="xtick_8">
     <g id="line2d_8">
      <g>
       <use xlink:href="#m7ce6bb77bc" x="659.579749" y="284.4" style="fill: #262626; stroke: #262626; stroke-width: 1.25"/>
      </g>
     </g>
     <g id="text_8">
      <!-- 19:00 -->
      <g style="fill: #262626" transform="translate(648.052249 299.97875) scale(0.08 -0.08)">
       <defs>
        <path id="DejaVuSans-39" d="M 703 97 
L 703 672 
Q 941 559 1184 500 
Q 1428 441 1663 441 
Q 2288 441 2617 861 
Q 2947 1281 2994 2138 
Q 2813 1869 2534 1725 
Q 2256 1581 1919 1581 
Q 1219 1581 811 2004 
Q 403 2428 403 3163 
Q 403 3881 828 4315 
Q 1253 4750 1959 4750 
Q 2769 4750 3195 4129 
Q 3622 3509 3622 2328 
Q 3622 1225 3098 567 
Q 2575 -91 1691 -91 
Q 1453 -91 1209 -44 
Q 966 3 703 97 
z
M 1959 2075 
Q 2384 2075 2632 2365 
Q 2881 2656 2881 3163 
Q 2881 3666 2632 3958 
Q 2384 4250 1959 4250 
Q 1534 4250 1286 3958 
Q 1038 3666 1038 3163 
Q 1038 2656 1286 2365 
Q 1534 2075 1959 2075 
z
" transform="scale(0.015625)"/>
       </defs>
       <use xlink:href="#DejaVuSans-31"/>
       <use xlink:href="#DejaVuSans-39" transform="translate(63.623047 0)"/>
       <use xlink:href="#DejaVuSans-3a" transform="translate(127.246094 0)"/>
       <use xlink:href="#DejaVuSans-30" transform="translate(160.9375 0)"/>
       <use xlink:href="#DejaVuSans-30" transform="translate(224.560547 0)"/>
      </g>
     </g>
    </g>
   </g>
   <g id="matplotlib.axis_2"/>
   <g id="FillBetweenPolyCollection_1"/>
   <g id="FillBetweenPolyCollection_2"/>
   <g id="line2d_9">
    <path d="M 37.636364 247.584753 
L 42.058111 247.584753 
L 43.532027 246.232735 
L 45.005943 246.232735 
L 46.479859 244.880717 
L 47.953775 244.880717 
L 49.427691 243.5287 
L 50.901607 243.5287 
L 52.375523 242.176682 
L 53.849439 242.176682 
L 55.323355 240.824664 
L 56.797271 240.824664 
L 58.271186 239.472646 
L 59.745102 239.472646 
L 61.219018 238.120628 
L 62.692934 238.120628 
L 64.16685 236.76861 
L 65.640766 236.76861 
L 67.114682 235.416592 
L 68.588598 235.416592 
L 70.062514 234.064574 
L 71.53643 234.064574 
L 73.010346 232.712556 
L 74.484261 232.712556 
L 75.958177 231.360538 
L 77.432093 231.360538 
L 78.906009 230.00852 
L 80.379925 230.00852 
L 81.853841 228.656502 
L 83.327757 228.656502 
L 84.801673 227.304484 
L 86.275589 227.304484 
L 87.749505 225.952466 
L 89.223421 225.952466 
L 90.697337 224.600448 
L 92.171252 224.600448 
L 93.645168 223.24843 
L 95.119084 223.24843 
L 96.593 221.896413 
L 98.066916 221.896413 
L 99.540832 220.544395 
L 101.014748 220.544395 
L 102.488664 219.192377 
L 103.96258 219.192377 
L 105.436496 217.840359 
L 106.910412 217.840359 
L 108.384328 216.488341 
L 109.858243 216.488341 
L 111.332159 215.136323 
L 112.806075 215.136323 
L 114.279991 213.784305 
L 115.753907 213.784305 
L 117.227823 212.432287 
L 118.701739 212.432287 
L 120.175655 211.080269 
L 121.649571 211.080269 
L 123.123487 209.728251 
L 124.597403 209.728251 
L 126.071319 208.376233 
L 127.545234 208.376233 
L 129.01915 207.024215 
L 130.493066 207.024215 
L 131.966982 205.672197 
L 133.440898 205.672197 
L 134.914814 204.320179 
L 136.38873 204.320179 
L 137.862646 202.968161 
L 139.336562 202.968161 
L 140.810478 201.616143 
L 142.284394 201.616143 
L 143.758309 200.264126 
L 145.232225 200.264126 
L 146.706141 198.912108 
L 148.180057 198.912108 
L 149.653973 197.56009 
L 151.127889 197.56009 
L 152.601805 196.208072 
L 154.075721 196.208072 
L 155.549637 194.856054 
L 248.406339 194.856054 
L 249.880255 194.452466 
L 251.354171 194.452466 
L 252.828087 194.048879 
L 254.302003 194.048879 
L 255.775919 193.645291 
L 257.249835 193.645291 
L 258.723751 193.241704 
L 260.197667 193.241704 
L 261.671583 192.838117 
L 263.145499 192.838117 
L 264.619414 192.434529 
L 266.09333 192.434529 
L 267.567246 192.030942 
L 269.041162 192.030942 
L 270.515078 191.627354 
L 271.988994 191.627354 
L 273.46291 191.223767 
L 274.936826 191.223767 
L 276.410742 190.820179 
L 277.884658 190.820179 
L 279.358574 190.416592 
L 280.83249 190.416592 
L 282.306405 190.013004 
L 283.780321 190.013004 
L 285.254237 189.609417 
L 286.728153 189.609417 
L 288.202069 189.20583 
L 289.675985 189.20583 
L 291.149901 188.802242 
L 292.623817 188.802242 
L 294.097733 188.398655 
L 295.571649 188.398655 
L 297.045565 187.995067 
L 298.519481 187.995067 
L 299.993396 187.59148 
L 301.467312 187.59148 
L 302.941228 187.187892 
L 307.362976 187.187892 
L 308.836892 186.582511 
L 310.310808 186.582511 
L 311.784724 185.97713 
L 313.25864 185.97713 
L 314.732556 185.371749 
L 316.206471 185.371749 
L 317.680387 184.766368 
L 322.102135 184.766368 
L 323.576051 183.555605 
L 325.049967 183.555605 
L 326.523883 182.344843 
L 327.997799 182.344843 
L 329.471715 181.134081 
L 330.945631 181.134081 
L 332.419547 179.923318 
L 333.893462 179.923318 
L 335.367378 178.712556 
L 339.789126 178.712556 
L 341.263042 177.199103 
L 342.736958 177.199103 
L 344.210874 175.68565 
L 345.68479 175.68565 
L 347.158706 174.172197 
L 348.632622 174.172197 
L 350.106538 172.658744 
L 351.580453 172.658744 
L 353.054369 171.145291 
L 357.476117 171.145291 
L 358.950033 169.127354 
L 360.423949 169.127354 
L 361.897865 167.109417 
L 363.371781 167.109417 
L 364.845697 165.09148 
L 366.319613 165.09148 
L 367.793529 163.073543 
L 369.267444 163.073543 
L 370.74136 161.055605 
L 372.215276 161.055605 
L 373.689192 159.037668 
L 375.163108 159.037668 
L 376.637024 157.019731 
L 378.11094 157.019731 
L 379.584856 155.001794 
L 381.058772 155.001794 
L 382.532688 152.983857 
L 386.954435 152.983857 
L 388.428351 149.956951 
L 389.902267 149.956951 
L 391.376183 146.930045 
L 392.850099 146.930045 
L 394.324015 143.903139 
L 395.797931 143.903139 
L 397.271847 140.876233 
L 398.745763 140.876233 
L 400.219679 137.849327 
L 401.693595 137.849327 
L 403.16751 134.822422 
L 404.641426 134.822422 
L 406.115342 131.795516 
L 407.589258 131.795516 
L 409.063174 128.76861 
L 413.484922 128.76861 
L 414.958838 123.723767 
L 416.432754 123.723767 
L 417.90667 118.678924 
L 419.380586 118.678924 
L 420.854501 113.634081 
L 422.328417 113.634081 
L 423.802333 108.589238 
L 425.276249 108.589238 
L 426.750165 103.544395 
L 428.224081 103.544395 
L 429.697997 98.499552 
L 431.171913 98.499552 
L 432.645829 93.454709 
L 434.119745 93.454709 
L 435.593661 88.409865 
L 437.067576 88.409865 
L 438.541492 83.365022 
L 442.96324 83.365022 
L 444.437156 76.302242 
L 445.911072 76.302242 
L 447.384988 69.239462 
L 448.858904 69.239462 
L 450.33282 62.176682 
L 451.806736 62.176682 
L 453.280652 55.113901 
L 454.754567 55.113901 
L 456.228483 48.051121 
L 457.702399 48.051121 
L 459.176315 40.988341 
L 460.650231 40.988341 
L 462.124147 33.925561 
L 463.598063 33.925561 
L 465.071979 26.86278 
L 466.545895 26.86278 
L 468.019811 19.8 
L 628.676645 19.8 
L 628.676645 19.8 
" clip-path="url(#p8b41997b07)" style="fill: none; stroke: #12711c; stroke-opacity: 0.1; stroke-width: 5; stroke-linecap: round"/>
   </g>
   <g id="line2d_10">
    <path d="M 40.584195 271.8 
L 42.058111 271.8 
L 43.532027 270.098711 
L 45.005943 269.760706 
L 46.479859 268.630269 
L 47.953775 268.179596 
L 49.427691 267.220039 
L 50.901607 266.713033 
L 52.375523 265.833094 
L 53.849439 265.292287 
L 55.323355 264.457791 
L 56.797271 263.894451 
L 58.271186 263.089142 
L 59.745102 262.509705 
L 61.219018 261.72465 
L 62.692934 261.133142 
L 64.16685 260.36293 
L 65.640766 259.762033 
L 67.114682 259.00315 
L 68.588598 258.394742 
L 70.062514 257.644782 
L 71.53643 257.030228 
L 74.484261 255.667797 
L 78.906009 253.57512 
L 83.327757 251.588834 
L 87.749505 249.510261 
L 92.171252 247.517507 
L 96.593 245.448044 
L 101.014748 243.450545 
L 105.436496 241.387434 
L 111.332159 238.680969 
L 118.701739 235.323891 
L 121.649571 233.970055 
L 123.123487 232.638101 
L 124.597403 232.638101 
L 126.071319 231.239462 
L 157.023553 231.239462 
L 158.497469 232.638101 
L 159.971385 232.638101 
L 161.4453 234.03674 
L 162.919216 234.03674 
L 164.393132 235.43538 
L 165.867048 235.43538 
L 167.340964 236.834019 
L 168.81488 236.834019 
L 170.288796 238.232658 
L 171.762712 238.232658 
L 173.236628 239.631297 
L 174.710544 239.631297 
L 176.18446 241.029937 
L 177.658376 241.029937 
L 179.132291 242.428576 
L 180.606207 242.428576 
L 182.080123 243.827215 
L 183.554039 243.827215 
L 185.027955 245.225854 
L 186.501871 245.225854 
L 187.975787 246.624494 
L 189.449703 246.624494 
L 190.923619 248.023133 
L 192.397535 248.023133 
L 193.871451 249.421772 
L 195.345367 249.421772 
L 196.819282 250.820411 
L 198.293198 250.820411 
L 199.767114 252.219051 
L 201.24103 252.219051 
L 202.714946 253.61769 
L 204.188862 253.61769 
L 205.662778 255.016329 
L 207.136694 255.016329 
L 208.61061 256.414968 
L 210.084526 256.414968 
L 211.558442 257.813608 
L 213.032357 257.813608 
L 214.506273 259.212247 
L 215.980189 259.212247 
L 217.454105 260.610886 
L 218.928021 260.610886 
L 220.401937 262.009525 
L 221.875853 262.009525 
L 223.349769 263.408165 
L 224.823685 263.408165 
L 226.297601 264.806804 
L 227.771517 264.806804 
L 229.245433 266.205443 
L 230.719348 266.205443 
L 232.193264 267.604082 
L 233.66718 267.604082 
L 235.141096 269.002722 
L 236.615012 269.002722 
L 238.088928 270.401361 
L 239.562844 270.401361 
L 241.03676 271.8 
L 248.406339 271.8 
L 249.880255 271.382496 
L 251.354171 271.382496 
L 252.828087 270.964991 
L 254.302003 270.964991 
L 255.775919 270.547487 
L 257.249835 270.547487 
L 258.723751 270.129983 
L 260.197667 270.129983 
L 261.671583 269.712479 
L 263.145499 269.712479 
L 264.619414 269.294974 
L 266.09333 269.294974 
L 267.567246 268.87747 
L 269.041162 268.87747 
L 270.515078 268.459966 
L 271.988994 268.459966 
L 273.46291 268.042462 
L 274.936826 268.042462 
L 276.410742 267.624957 
L 277.884658 267.624957 
L 279.358574 267.207453 
L 280.83249 267.207453 
L 282.306405 266.789949 
L 283.780321 266.789949 
L 285.254237 266.372445 
L 286.728153 266.372445 
L 288.202069 265.95494 
L 289.675985 265.95494 
L 291.149901 265.537436 
L 292.623817 265.537436 
L 294.097733 265.119932 
L 295.571649 265.119932 
L 297.045565 264.702428 
L 298.519481 264.702428 
L 299.993396 264.284923 
L 301.467312 264.284923 
L 302.941228 263.867419 
L 307.362976 263.867419 
L 308.836892 263.241163 
L 310.310808 263.241163 
L 311.784724 262.614906 
L 313.25864 262.614906 
L 314.732556 261.98865 
L 316.206471 261.98865 
L 317.680387 261.362394 
L 322.102135 261.362394 
L 323.576051 260.109881 
L 325.049967 260.109881 
L 326.523883 258.857368 
L 327.997799 258.857368 
L 329.471715 257.604855 
L 330.945631 257.604855 
L 332.419547 256.352343 
L 333.893462 256.352343 
L 335.367378 255.517334 
L 336.841294 255.517334 
L 338.31521 255.934838 
L 339.789126 255.934838 
L 341.263042 254.786702 
L 342.736958 254.786702 
L 344.210874 253.638565 
L 345.68479 253.638565 
L 347.158706 252.490428 
L 348.632622 252.490428 
L 350.106538 251.342292 
L 351.580453 251.342292 
L 353.054369 250.194155 
L 354.528285 250.194155 
L 356.002201 250.611659 
L 357.476117 250.611659 
L 358.950033 248.941642 
L 360.423949 248.941642 
L 361.897865 247.271625 
L 363.371781 247.271625 
L 364.845697 245.601608 
L 366.319613 245.601608 
L 367.793529 243.931591 
L 369.267444 243.931591 
L 370.74136 242.261574 
L 372.215276 242.261574 
L 373.689192 240.591557 
L 375.163108 240.591557 
L 376.637024 238.92154 
L 378.11094 238.92154 
L 379.584856 237.251523 
L 381.058772 237.251523 
L 382.532688 235.581506 
L 384.006604 235.581506 
L 385.480519 235.99901 
L 386.954435 235.99901 
L 388.428351 233.285233 
L 389.902267 233.285233 
L 391.376183 230.153951 
L 392.850099 230.153951 
L 394.324015 227.648925 
L 395.797931 227.648925 
L 397.271847 225.1439 
L 398.745763 225.1439 
L 400.219679 222.638874 
L 401.693595 222.638874 
L 403.16751 220.133849 
L 404.641426 220.133849 
L 406.115342 217.002567 
L 407.589258 217.002567 
L 409.063174 215.123798 
L 410.53709 215.123798 
L 412.011006 216.37631 
L 413.484922 216.37631 
L 414.958838 212.41002 
L 416.432754 212.41002 
L 417.90667 208.44373 
L 419.380586 208.44373 
L 420.854501 204.477439 
L 422.328417 204.477439 
L 423.802333 199.258636 
L 425.276249 199.258636 
L 426.750165 195.605474 
L 428.224081 195.605474 
L 429.697997 191.952312 
L 431.171913 191.952312 
L 432.645829 188.29915 
L 434.119745 188.29915 
L 435.593661 184.645987 
L 437.067576 184.645987 
L 438.541492 180.992825 
L 442.96324 180.992825 
L 444.437156 175.774022 
L 445.911072 175.774022 
L 447.384988 170.555219 
L 448.858904 170.555219 
L 450.33282 165.336416 
L 451.806736 165.336416 
L 453.280652 160.117612 
L 454.754567 160.117612 
L 456.228483 154.898809 
L 457.702399 154.898809 
L 459.176315 149.680006 
L 460.650231 149.680006 
L 462.124147 144.461203 
L 463.598063 144.461203 
L 465.071979 139.2424 
L 466.545895 139.2424 
L 468.019811 134.023597 
L 472.441558 134.023597 
L 473.915474 137.154879 
L 475.38939 137.154879 
L 476.863306 140.286161 
L 478.337222 140.286161 
L 479.811138 143.417442 
L 481.285054 143.417442 
L 482.75897 146.548724 
L 484.232886 146.548724 
L 485.706802 149.680006 
L 487.180718 149.680006 
L 488.654634 152.811288 
L 490.128549 152.811288 
L 491.602465 155.94257 
L 493.076381 155.94257 
L 494.550297 159.073852 
L 498.972045 159.073852 
L 500.445961 164.292655 
L 501.919877 164.292655 
L 503.393793 169.511458 
L 504.867709 169.511458 
L 506.341624 174.730261 
L 507.81554 174.730261 
L 509.289456 179.949064 
L 510.763372 179.949064 
L 512.237288 185.167868 
L 513.711204 185.167868 
L 515.18512 190.386671 
L 516.659036 190.386671 
L 518.132952 195.605474 
L 519.606868 195.605474 
L 521.080784 200.824277 
L 522.5547 200.824277 
L 524.028615 206.04308 
L 528.450363 206.04308 
L 529.924279 213.349405 
L 531.398195 213.349405 
L 532.872111 220.655729 
L 534.346027 220.655729 
L 535.819943 227.962054 
L 537.293859 227.962054 
L 538.767775 235.268378 
L 540.241691 235.268378 
L 541.715606 242.574702 
L 543.189522 242.574702 
L 544.663438 249.881027 
L 546.137354 249.881027 
L 547.61127 257.187351 
L 549.085186 257.187351 
L 550.559102 264.493676 
L 552.033018 264.493676 
L 553.506934 271.8 
L 646.363636 271.8 
L 646.363636 271.8 
" clip-path="url(#p8b41997b07)" style="fill: none; stroke: #001c7f; stroke-width: 5; stroke-linecap: round"/>
   </g>
   <g id="patch_3">
    <path d="M 7.2 284.4 
L 7.2 7.2 
" style="fill: none; stroke: #262626; stroke-width: 1.25; stroke-linejoin: miter; stroke-linecap: square"/>
   </g>
   <g id="patch_4">
    <path d="M 676.8 284.4 
L 676.8 7.2 
" style="fill: none; stroke: #262626; stroke-width: 1.25; stroke-linejoin: miter; stroke-linecap: square"/>
   </g>
   <g id="patch_5">
    <path d="M 7.2 284.4 
L 676.8 284.4 
" style="fill: none; stroke: #262626; stroke-width: 1.25; stroke-linejoin: miter; stroke-linecap: square"/>
   </g>
   <g id="patch_6">
    <path d="M 7.2 7.2 
L 676.8 7.2 
" style="fill: none; stroke: #262626; stroke-width: 1.25; stroke-linejoin: miter; stroke-linecap: square"/>
   </g>
  </g>
 </g>
 <defs>
  <clipPath id="p8b41997b07">
   <rect x="7.2" y="7.2" width="669.6" height="277.2"/>
  </clipPath>
 </defs>
</svg>
