<?xml version="1.0" encoding="utf-8" standalone="no"?>
<!DOCTYPE svg PUBLIC "-//W3C//DTD SVG 1.1//EN"
  "http://www.w3.org/Graphics/SVG/1.1/DTD/svg11.dtd">
<svg xmlns:xlink="http://www.w3.org/1999/xlink" width="684pt" height="308.8425pt" viewBox="0 0 684 308.8425" xmlns="http://www.w3.org/2000/svg" version="1.1">
 <metadata>
  <rdf:RDF xmlns:dc="http://purl.org/dc/elements/1.1/" xmlns:cc="http://creativecommons.org/ns#" xmlns:rdf="http://www.w3.org/1999/02/22-rdf-syntax-ns#">
   <cc:Work>
    <dc:type rdf:resource="http://purl.org/dc/dcmitype/StillImage"/>
    <dc:date>2026-05-07T05:31:40.831462</dc:date>
    <dc:format>image/svg+xml</dc:format>
    <dc:creator>
     <cc:Agent>
      <dc:title>Matplotlib v3.10.9, https://matplotlib.org/</dc:title>
     </cc:Agent>
    </dc:creator>
   </cc:Work>
  </rdf:RDF>
 </metadata>
 <defs>
  <style type="text/css">*{stroke-linejoin: round; stroke-linecap: butt}</style>
 </defs>
 <g id="figure_1">
  <g id="patch_1">
   <path d="M 0 308.8425 
L 684 308.8425 
L 684 0 
L 0 0 
z
" style="fill: #f2f2f2"/>
  </g>
  <g id="axes_1">
   <g id="patch_2">
    <path d="M 7.2 284.4 
L 676.8 284.4 
L 676.8 7.2 
L 7.2 7.2 
z
" style="fill: #f2f2f2"/>
   </g>
   <g id="matplotlib.axis_1">
    <g id="xtick_1">
     <g id="line2d_1">
      <defs>
       <path id="me692ed31f4" d="M 0 0 
L 0 6 
" style="stroke: #262626; stroke-width: 1.25"/>
      </defs>
      <g>
       <use xlink:href="#me692ed31f4" x="51.565277" y="284.4" style="fill: #262626; stroke: #262626; stroke-width: 1.25"/>
      </g>
     </g>
     <g id="text_1">
      <!-- 15:30 -->
      <g style="fill: #262626" transform="translate(40.037777 299.97875) scale(0.08 -0.08)">
       <defs>
        <path id="DejaVuSans-31" d="M 794 531 
L 1825 531 
L 1825 4091 
L 703 3866 
L 703 4441 
L 1819 4666 
L 2450 4666 
L 2450 531 
L 3481 531 
L 3481 0 
L 794 0 
L 794 531 
z
" transform="scale(0.015625)"/>
        <path id="DejaVuSans-35" d="M 691 4666 
L 3169 4666 
L 3169 4134 
L 1269 4134 
L 1269 2991 
Q 1406 3038 1543 3061 
Q 1681 3084 1819 3084 
Q 2600 3084 3056 2656 
Q 3513 2228 3513 1497 
Q 3513 744 3044 326 
Q 2575 -91 1722 -91 
Q 1428 -91 1123 -41 
Q 819 9 494 109 
L 494 744 
Q 775 591 1075 516 
Q 1375 441 1709 441 
Q 2250 441 2565 725 
Q 2881 1009 2881 1497 
Q 2881 1984 2565 2268 
Q 2250 2553 1709 2553 
Q 1456 2553 1204 2497 
Q 953 2441 691 2322 
L 691 4666 
z
" transform="scale(0.015625)"/>
        <path id="DejaVuSans-3a" d="M 750 794 
L 1409 794 
L 1409 0 
L 750 0 
L 750 794 
z
M 750 3309 
L 1409 3309 
L 1409 2516 
L 750 2516 
L 750 3309 
z
" transform="scale(0.015625)"/>
        <path id="DejaVuSans-33" d="M 2597 2516 
Q 3050 2419 3304 2112 
Q 3559 1806 3559 1356 
Q 3559 666 3084 287 
Q 2609 -91 1734 -91 
Q 1441 -91 1130 -33 
Q 819 25 488 141 
L 488 750 
Q 750 597 1062 519 
Q 1375 441 1716 441 
Q 2309 441 2620 675 
Q 2931 909 2931 1356 
Q 2931 1769 2642 2001 
Q 2353 2234 1838 2234 
L 1294 2234 
L 1294 2753 
L 1863 2753 
Q 2328 2753 2575 2939 
Q 2822 3125 2822 3475 
Q 2822 3834 2567 4026 
Q 2313 4219 1838 4219 
Q 1578 4219 1281 4162 
Q 984 4106 628 3988 
L 628 4550 
Q 988 4650 1302 4700 
Q 1616 4750 1894 4750 
Q 2613 4750 3031 4423 
Q 3450 4097 3450 3541 
Q 3450 3153 3228 2886 
Q 3006 2619 2597 2516 
z
" transform="scale(0.015625)"/>
        <path id="DejaVuSans-30" d="M 2034 4250 
Q 1547 4250 1301 3770 
Q 1056 3291 1056 2328 
Q 1056 1369 1301 889 
Q 1547 409 2034 409 
Q 2525 409 2770 889 
Q 3016 1369 3016 2328 
Q 3016 3291 2770 3770 
Q 2525 4250 2034 4250 
z
M 2034 4750 
Q 2819 4750 3233 4129 
Q 3647 3509 3647 2328 
Q 3647 1150 3233 529 
Q 2819 -91 2034 -91 
Q 1250 -91 836 529 
Q 422 1150 422 2328 
Q 422 3509 836 4129 
Q 1250 4750 2034 4750 
z
" transform="scale(0.015625)"/>
       </defs>
       <use xlink:href="#DejaVuSans-31"/>
       <use xlink:href="#DejaVuSans-35" transform="translate(63.623047 0)"/>
       <use xlink:href="#DejaVuSans-3a" transform="translate(127.246094 0)"/>
       <use xlink:href="#DejaVuSans-33" transform="translate(160.9375 0)"/>
       <use xlink:href="#DejaVuSans-30" transform="translate(224.560547 0)"/>
      </g>
     </g>
    </g>
    <g id="xtick_2">
     <g id="line2d_2">
      <g>
       <use xlink:href="#me692ed31f4" x="138.319758" y="284.4" style="fill: #262626; stroke: #262626; stroke-width: 1.25"/>
      </g>
     </g>
     <g id="text_2">
      <!-- 16:00 -->
      <g style="fill: #262626" transform="translate(126.792258 299.97875) scale(0.08 -0.08)">
       <defs>
        <path id="DejaVuSans-36" d="M 2113 2584 
Q 1688 2584 1439 2293 
Q 1191 2003 1191 1497 
Q 1191 994 1439 701 
Q 1688 409 2113 409 
Q 2538 409 2786 701 
Q 3034 994 3034 1497 
Q 3034 2003 2786 2293 
Q 2538 2584 2113 2584 
z
M 3366 4563 
L 3366 3988 
Q 3128 4100 2886 4159 
Q 2644 4219 2406 4219 
Q 1781 4219 1451 3797 
Q 1122 3375 1075 2522 
Q 1259 2794 1537 2939 
Q 1816 3084 2150 3084 
Q 2853 3084 3261 2657 
Q 3669 2231 3669 1497 
Q 3669 778 3244 343 
Q 2819 -91 2113 -91 
Q 1303 -91 875 529 
Q 447 1150 447 2328 
Q 447 3434 972 4092 
Q 1497 4750 2381 4750 
Q 2619 4750 2861 4703 
Q 3103 4656 3366 4563 
z
" transform="scale(0.015625)"/>
       </defs>
       <use xlink:href="#DejaVuSans-31"/>
       <use xlink:href="#DejaVuSans-36" transform="translate(63.623047 0)"/>
       <use xlink:href="#DejaVuSans-3a" transform="translate(127.246094 0)"/>
       <use xlink:href="#DejaVuSans-30" transform="translate(160.9375 0)"/>
       <use xlink:href="#DejaVuSans-30" transform="translate(224.560547 0)"/>
      </g>
     </g>
    </g>
    <g id="xtick_3">
     <g id="line2d_3">
      <g>
       <use xlink:href="#me692ed31f4" x="225.074239" y="284.4" style="fill: #262626; stroke: #262626; stroke-width: 1.25"/>
      </g>
     </g>
     <g id="text_3">
      <!-- 16:30 -->
      <g style="fill: #262626" transform="translate(213.546739 299.97875) scale(0.08 -0.08)">
       <use xlink:href="#DejaVuSans-31"/>
       <use xlink:href="#DejaVuSans-36" transform="translate(63.623047 0)"/>
       <use xlink:href="#DejaVuSans-3a" transform="translate(127.246094 0)"/>
       <use xlink:href="#DejaVuSans-33" transform="translate(160.9375 0)"/>
       <use xlink:href="#DejaVuSans-30" transform="translate(224.560547 0)"/>
      </g>
     </g>
    </g>
    <g id="xtick_4">
     <g id="line2d_4">
      <g>
       <use xlink:href="#me692ed31f4" x="311.82872" y="284.4" style="fill: #262626; stroke: #262626; stroke-width: 1.25"/>
      </g>
     </g>
     <g id="text_4">
      <!-- 17:00 -->
      <g style="fill: #262626" transform="translate(300.30122 299.97875) scale(0.08 -0.08)">
       <defs>
        <path id="DejaVuSans-37" d="M 525 4666 
L 3525 4666 
L 3525 4397 
L 1831 0 
L 1172 0 
L 2766 4134 
L 525 4134 
L 525 4666 
z
" transform="scale(0.015625)"/>
       </defs>
       <use xlink:href="#DejaVuSans-31"/>
       <use xlink:href="#DejaVuSans-37" transform="translate(63.623047 0)"/>
       <use xlink:href="#DejaVuSans-3a" transform="translate(127.246094 0)"/>
       <use xlink:href="#DejaVuSans-30" transform="translate(160.9375 0)"/>
       <use xlink:href="#DejaVuSans-30" transform="translate(224.560547 0)"/>
      </g>
     </g>
    </g>
    <g id="xtick_5">
     <g id="line2d_5">
      <g>
       <use xlink:href="#me692ed31f4" x="398.5832" y="284.4" style="fill: #262626; stroke: #262626; stroke-width: 1.25"/>
      </g>
     </g>
     <g id="text_5">
      <!-- 17:30 -->
      <g style="fill: #262626" transform="translate(387.0557 299.97875) scale(0.08 -0.08)">
       <use xlink:href="#DejaVuSans-31"/>
       <use xlink:href="#DejaVuSans-37" transform="translate(63.623047 0)"/>
       <use xlink:href="#DejaVuSans-3a" transform="translate(127.246094 0)"/>
       <use xlink:href="#DejaVuSans-33" transform="translate(160.9375 0)"/>
       <use xlink:href="#DejaVuSans-30" transform="translate(224.560547 0)"/>
      </g>
     </g>
    </g>
    <g id="xtick_6">
     <g id="line2d_6">
      <g>
       <use xlink:href="#me692ed31f4" x="485.337681" y="284.4" style="fill: #262626; stroke: #262626; stroke-width: 1.25"/>
      </g>
     </g>
     <g id="text_6">
      <!-- 18:00 -->
      <g style="fill: #262626" transform="translate(473.810181 299.97875) scale(0.08 -0.08)">
       <defs>
        <path id="DejaVuSans-38" d="M 2034 2216 
Q 1584 2216 1326 1975 
Q 1069 1734 1069 1313 
Q 1069 891 1326 650 
Q 1584 409 2034 409 
Q 2484 409 2743 651 
Q 3003 894 3003 1313 
Q 3003 1734 2745 1975 
Q 2488 2216 2034 2216 
z
M 1403 2484 
Q 997 2584 770 2862 
Q 544 3141 544 3541 
Q 544 4100 942 4425 
Q 1341 4750 2034 4750 
Q 2731 4750 3128 4425 
Q 3525 4100 3525 3541 
Q 3525 3141 3298 2862 
Q 3072 2584 2669 2484 
Q 3125 2378 3379 2068 
Q 3634 1759 3634 1313 
Q 3634 634 3220 271 
Q 2806 -91 2034 -91 
Q 1263 -91 848 271 
Q 434 634 434 1313 
Q 434 1759 690 2068 
Q 947 2378 1403 2484 
z
M 1172 3481 
Q 1172 3119 1398 2916 
Q 1625 2713 2034 2713 
Q 2441 2713 2670 2916 
Q 2900 3119 2900 3481 
Q 2900 3844 2670 4047 
Q 2441 4250 2034 4250 
Q 1625 4250 1398 4047 
Q 1172 3844 1172 3481 
z
" transform="scale(0.015625)"/>
       </defs>
       <use xlink:href="#DejaVuSans-31"/>
       <use xlink:href="#DejaVuSans-38" transform="translate(63.623047 0)"/>
       <use xlink:href="#DejaVuSans-3a" transform="translate(127.246094 0)"/>
       <use xlink:href="#DejaVuSans-30" transform="translate(160.9375 0)"/>
       <use xlink:href="#DejaVuSans-30" transform="translate(224.560547 0)"/>
      </g>
     </g>
    </g>
    <g id="xtick_7">
     <g id="line2d_7">
      <g>
       <use xlink:href="#me692ed31f4" x="572.092162" y="284.4" style="fill: #262626; stroke: #262626; stroke-width: 1.25"/>
      </g>
     </g>
     <g id="text_7">
      <!-- 18:30 -->
      <g style="fill: #262626" transform="translate(560.564662 299.97875) scale(0.08 -0.08)">
       <use xlink:href="#DejaVuSans-31"/>
       <use xlink:href="#DejaVuSans-38" transform="translate(63.623047 0)"/>
       <use xlink:href="#DejaVuSans-3a" transform="translate(127.246094 0)"/>
       <use xlink:href="#DejaVuSans-33" transform="translate(160.9375 0)"/>
       <use xlink:href="#DejaVuSans-30" transform="translate(224.560547 0)"/>
      </g>
     </g>
    </g>
    <g id="xtick_8">
     <g id="line2d_8">
      <g>
       <use xlink:href="#me692ed31f4" x="658.846642" y="284.4" style="fill: #262626; stroke: #262626; stroke-width: 1.25"/>
      </g>
     </g>
     <g id="text_8">
      <!-- 19:00 -->
      <g style="fill: #262626" transform="translate(647.319142 299.97875) scale(0.08 -0.08)">
       <defs>
        <path id="DejaVuSans-39" d="M 703 97 
L 703 672 
Q 941 559 1184 500 
Q 1428 441 1663 441 
Q 2288 441 2617 861 
Q 2947 1281 2994 2138 
Q 2813 1869 2534 1725 
Q 2256 1581 1919 1581 
Q 1219 1581 811 2004 
Q 403 2428 403 3163 
Q 403 3881 828 4315 
Q 1253 4750 1959 4750 
Q 2769 4750 3195 4129 
Q 3622 3509 3622 2328 
Q 3622 1225 3098 567 
Q 2575 -91 1691 -91 
Q 1453 -91 1209 -44 
Q 966 3 703 97 
z
M 1959 2075 
Q 2384 2075 2632 2365 
Q 2881 2656 2881 3163 
Q 2881 3666 2632 3958 
Q 2384 4250 1959 4250 
Q 1534 4250 1286 3958 
Q 1038 3666 1038 3163 
Q 1038 2656 1286 2365 
Q 1534 2075 1959 2075 
z
" transform="scale(0.015625)"/>
       </defs>
       <use xlink:href="#DejaVuSans-31"/>
       <use xlink:href="#DejaVuSans-39" transform="translate(63.623047 0)"/>
       <use xlink:href="#DejaVuSans-3a" transform="translate(127.246094 0)"/>
       <use xlink:href="#DejaVuSans-30" transform="translate(160.9375 0)"/>
       <use xlink:href="#DejaVuSans-30" transform="translate(224.560547 0)"/>
      </g>
     </g>
    </g>
   </g>
   <g id="matplotlib.axis_2"/>
   <g id="FillBetweenPolyCollection_1"/>
   <g id="FillBetweenPolyCollection_2"/>
   <g id="line2d_9">
    <path d="M 37.636364 145.272803 
L 128.728568 145.272803 
L 130.174476 144.21841 
L 131.620384 144.21841 
L 133.066292 143.164017 
L 134.5122 143.164017 
L 135.958108 142.109623 
L 137.404016 142.109623 
L 138.849924 141.05523 
L 140.295832 141.05523 
L 141.74174 140.000837 
L 143.187648 140.000837 
L 144.633556 138.946444 
L 146.079464 138.946444 
L 147.525373 137.89205 
L 148.971281 137.89205 
L 150.417189 136.837657 
L 151.863097 136.837657 
L 153.309005 135.783264 
L 154.754913 135.783264 
L 156.200821 134.72887 
L 157.646729 134.72887 
L 159.092637 133.674477 
L 160.538545 133.674477 
L 161.984453 132.620084 
L 163.430361 132.620084 
L 164.876269 131.56569 
L 166.322177 131.56569 
L 167.768085 130.511297 
L 169.213993 130.511297 
L 170.659901 129.456904 
L 172.105809 129.456904 
L 173.551717 128.40251 
L 174.997625 128.40251 
L 176.443533 127.348117 
L 177.889441 127.348117 
L 179.335349 126.293724 
L 180.781257 126.293724 
L 182.227165 125.239331 
L 183.673073 125.239331 
L 185.118981 124.184937 
L 186.564889 124.184937 
L 188.010797 123.130544 
L 189.456705 123.130544 
L 190.902613 122.076151 
L 192.348521 122.076151 
L 193.794429 121.021757 
L 195.240337 121.021757 
L 196.686245 119.967364 
L 198.132153 119.967364 
L 199.578061 118.912971 
L 201.023969 118.912971 
L 202.469877 117.858577 
L 203.915785 117.858577 
L 205.361693 116.804184 
L 206.807601 116.804184 
L 208.253509 115.749791 
L 209.699417 115.749791 
L 211.145325 114.695397 
L 212.591233 114.695397 
L 214.037141 113.641004 
L 215.483049 113.641004 
L 216.928957 112.586611 
L 218.374865 112.586611 
L 219.820773 111.532218 
L 221.266681 111.532218 
L 222.712589 110.477824 
L 224.158497 110.477824 
L 225.604405 109.423431 
L 227.050313 109.423431 
L 228.496221 108.369038 
L 229.942129 108.369038 
L 231.388037 107.314644 
L 232.833945 107.314644 
L 234.279853 106.260251 
L 235.725761 106.260251 
L 237.171669 105.205858 
L 238.617577 105.205858 
L 240.063485 104.151464 
L 241.509393 104.151464 
L 242.955301 103.097071 
L 244.401209 103.097071 
L 245.847117 102.042678 
L 247.293025 102.042678 
L 248.738933 100.988285 
L 250.184841 100.988285 
L 251.630749 99.933891 
L 253.076657 99.933891 
L 254.522565 98.879498 
L 255.968473 98.879498 
L 257.414381 97.825105 
L 258.860289 97.825105 
L 260.306197 96.770711 
L 261.752105 96.770711 
L 263.198013 95.716318 
L 264.643921 95.716318 
L 266.089829 94.661925 
L 267.535737 94.661925 
L 268.981645 93.607531 
L 270.427553 93.607531 
L 271.873461 92.553138 
L 273.319369 92.553138 
L 274.765277 91.498745 
L 276.211186 91.498745 
L 277.657094 90.444351 
L 279.103002 90.444351 
L 280.54891 89.389958 
L 281.994818 89.389958 
L 283.440726 88.335565 
L 284.886634 88.335565 
L 286.332542 87.281172 
L 287.77845 87.281172 
L 289.224358 86.226778 
L 290.670266 86.226778 
L 292.116174 85.172385 
L 293.562082 85.172385 
L 295.00799 84.117992 
L 296.453898 84.117992 
L 297.899806 83.063598 
L 299.345714 83.063598 
L 300.791622 82.009205 
L 302.23753 82.009205 
L 303.683438 80.954812 
L 305.129346 80.954812 
L 306.575254 79.900418 
L 308.021162 79.900418 
L 309.46707 78.846025 
L 310.912978 78.846025 
L 312.358886 77.791632 
L 313.804794 77.791632 
L 315.250702 76.737238 
L 316.69661 76.737238 
L 318.142518 75.682845 
L 319.588426 75.682845 
L 321.034334 74.628452 
L 322.480242 74.628452 
L 323.92615 73.574059 
L 325.372058 73.574059 
L 326.817966 72.519665 
L 328.263874 72.519665 
L 329.709782 71.465272 
L 331.15569 71.465272 
L 332.601598 70.410879 
L 334.047506 70.410879 
L 335.493414 69.356485 
L 336.939322 69.356485 
L 338.38523 68.302092 
L 339.831138 68.302092 
L 341.277046 67.247699 
L 342.722954 67.247699 
L 344.168862 66.193305 
L 345.61477 66.193305 
L 347.060678 65.138912 
L 348.506586 65.138912 
L 349.952494 64.084519 
L 351.398402 64.084519 
L 352.84431 63.030126 
L 354.290218 63.030126 
L 355.736126 61.975732 
L 357.182034 61.975732 
L 358.627942 60.921339 
L 360.07385 60.921339 
L 361.519758 59.866946 
L 362.965666 59.866946 
L 364.411574 58.812552 
L 365.857482 58.812552 
L 367.30339 57.758159 
L 368.749298 57.758159 
L 370.195206 56.703766 
L 371.641114 56.703766 
L 373.087022 55.649372 
L 374.53293 55.649372 
L 375.978838 54.594979 
L 377.424746 54.594979 
L 378.870654 53.540586 
L 380.316562 53.540586 
L 381.76247 52.486192 
L 383.208378 52.486192 
L 384.654286 51.431799 
L 386.100194 51.431799 
L 387.546102 50.377406 
L 388.99201 50.377406 
L 390.437918 49.323013 
L 391.883826 49.323013 
L 393.329734 48.268619 
L 394.775642 48.268619 
L 396.22155 47.214226 
L 397.667458 47.214226 
L 399.113366 46.159833 
L 400.559274 46.159833 
L 402.005182 45.105439 
L 403.45109 45.105439 
L 404.896999 44.051046 
L 406.342907 44.051046 
L 407.788815 42.996653 
L 409.234723 42.996653 
L 410.680631 41.942259 
L 412.126539 41.942259 
L 413.572447 40.887866 
L 415.018355 40.887866 
L 416.464263 39.833473 
L 417.910171 39.833473 
L 419.356079 38.779079 
L 420.801987 38.779079 
L 422.247895 37.724686 
L 423.693803 37.724686 
L 425.139711 36.670293 
L 426.585619 36.670293 
L 428.031527 35.6159 
L 429.477435 35.6159 
L 430.923343 34.561506 
L 432.369251 34.561506 
L 433.815159 33.507113 
L 435.261067 33.507113 
L 436.706975 32.45272 
L 438.152883 32.45272 
L 439.598791 31.398326 
L 441.044699 31.398326 
L 442.490607 30.343933 
L 443.936515 30.343933 
L 445.382423 29.28954 
L 446.828331 29.28954 
L 448.274239 28.235146 
L 449.720147 28.235146 
L 451.166055 27.180753 
L 452.611963 27.180753 
L 454.057871 26.12636 
L 455.503779 26.12636 
L 456.949687 25.071967 
L 458.395595 25.071967 
L 459.841503 24.017573 
L 461.287411 24.017573 
L 462.733319 22.96318 
L 464.179227 22.96318 
L 465.625135 21.908787 
L 467.071043 21.908787 
L 468.516951 20.854393 
L 469.962859 20.854393 
L 471.408767 19.8 
L 629.01274 19.8 
L 629.01274 19.8 
" clip-path="url(#pd61ebcd69c)" style="fill: none; stroke: #12711c; stroke-opacity: 0.1; stroke-width: 5; stroke-linecap: round"/>
   </g>
   <g id="line2d_10">
    <path d="M 40.52818 271.8 
L 128.728568 271.8 
L 130.174476 270.709248 
L 131.620384 270.709248 
L 133.066292 269.618497 
L 134.5122 269.618497 
L 135.958108 268.527745 
L 137.404016 268.527745 
L 138.849924 267.436993 
L 140.295832 267.436993 
L 141.74174 266.346242 
L 143.187648 266.346242 
L 144.633556 265.25549 
L 146.079464 265.25549 
L 147.525373 264.164738 
L 148.971281 264.164738 
L 150.417189 263.073986 
L 151.863097 263.073986 
L 153.309005 261.983235 
L 154.754913 261.983235 
L 156.200821 260.892483 
L 157.646729 260.892483 
L 159.092637 259.801731 
L 160.538545 259.801731 
L 161.984453 258.71098 
L 163.430361 258.71098 
L 164.876269 257.620228 
L 166.322177 257.620228 
L 167.768085 256.529476 
L 169.213993 256.529476 
L 170.659901 255.438725 
L 172.105809 255.438725 
L 173.551717 254.347973 
L 174.997625 254.347973 
L 176.443533 253.257221 
L 177.889441 253.257221 
L 179.335349 252.166469 
L 180.781257 252.166469 
L 182.227165 251.075718 
L 183.673073 251.075718 
L 185.118981 249.984966 
L 186.564889 249.984966 
L 188.010797 248.894214 
L 189.456705 248.894214 
L 190.902613 247.803463 
L 192.348521 247.803463 
L 193.794429 246.712711 
L 195.240337 246.712711 
L 196.686245 245.621959 
L 198.132153 245.621959 
L 199.578061 244.531208 
L 201.023969 244.531208 
L 202.469877 243.440456 
L 203.915785 243.440456 
L 205.361693 242.349704 
L 206.807601 242.349704 
L 208.253509 241.258953 
L 209.699417 241.258953 
L 211.145325 240.168201 
L 472.854675 240.168201 
L 474.300583 241.258953 
L 475.746491 241.258953 
L 477.192399 242.349704 
L 478.638307 242.349704 
L 480.084215 243.440456 
L 481.530123 243.440456 
L 482.976031 244.531208 
L 484.421939 244.531208 
L 485.867847 245.621959 
L 487.313755 245.621959 
L 488.759663 246.712711 
L 490.205571 246.712711 
L 491.651479 247.803463 
L 493.097387 247.803463 
L 494.543295 248.894214 
L 495.989203 248.894214 
L 497.435111 249.984966 
L 498.881019 249.984966 
L 500.326927 251.075718 
L 501.772835 251.075718 
L 503.218743 252.166469 
L 504.664651 252.166469 
L 506.110559 253.257221 
L 507.556467 253.257221 
L 509.002375 254.347973 
L 510.448283 254.347973 
L 511.894191 255.438725 
L 513.340099 255.438725 
L 514.786007 256.529476 
L 516.231915 256.529476 
L 517.677823 257.620228 
L 519.123731 257.620228 
L 520.569639 258.71098 
L 522.015547 258.71098 
L 523.461455 259.801731 
L 524.907363 259.801731 
L 526.353271 260.892483 
L 527.799179 260.892483 
L 529.245087 261.983235 
L 530.690995 261.983235 
L 532.136904 263.073986 
L 533.582812 263.073986 
L 535.02872 264.164738 
L 536.474628 264.164738 
L 537.920536 265.25549 
L 539.366444 265.25549 
L 540.812352 266.346242 
L 542.25826 266.346242 
L 543.704168 267.436993 
L 545.150076 267.436993 
L 546.595984 268.527745 
L 548.041892 268.527745 
L 549.4878 269.618497 
L 550.933708 269.618497 
L 552.379616 270.709248 
L 553.825524 270.709248 
L 555.271432 271.8 
L 646.363636 271.8 
L 646.363636 271.8 
" clip-path="url(#pd61ebcd69c)" style="fill: none; stroke: #001c7f; stroke-width: 5; stroke-linecap: round"/>
   </g>
   <g id="patch_3">
    <path d="M 7.2 284.4 
L 7.2 7.2 
" style="fill: none; stroke: #262626; stroke-width: 1.25; stroke-linejoin: miter; stroke-linecap: square"/>
   </g>
   <g id="patch_4">
    <path d="M 676.8 284.4 
L 676.8 7.2 
" style="fill: none; stroke: #262626; stroke-width: 1.25; stroke-linejoin: miter; stroke-linecap: square"/>
   </g>
   <g id="patch_5">
    <path d="M 7.2 284.4 
L 676.8 284.4 
" style="fill: none; stroke: #262626; stroke-width: 1.25; stroke-linejoin: miter; stroke-linecap: square"/>
   </g>
   <g id="patch_6">
    <path d="M 7.2 7.2 
L 676.8 7.2 
" style="fill: none; stroke: #262626; stroke-width: 1.25; stroke-linejoin: miter; stroke-linecap: square"/>
   </g>
  </g>
 </g>
 <defs>
  <clipPath id="pd61ebcd69c">
   <rect x="7.2" y="7.2" width="669.6" height="277.2"/>
  </clipPath>
 </defs>
</svg>
