<?xml version="1.0" encoding="utf-8" standalone="no"?>
<!DOCTYPE svg PUBLIC "-//W3C//DTD SVG 1.1//EN"
  "http://www.w3.org/Graphics/SVG/1.1/DTD/svg11.dtd">
<svg xmlns:xlink="http://www.w3.org/1999/xlink" width="684pt" height="308.8425pt" viewBox="0 0 684 308.8425" xmlns="http://www.w3.org/2000/svg" version="1.1">
 <metadata>
  <rdf:RDF xmlns:dc="http://purl.org/dc/elements/1.1/" xmlns:cc="http://creativecommons.org/ns#" xmlns:rdf="http://www.w3.org/1999/02/22-rdf-syntax-ns#">
   <cc:Work>
    <dc:type rdf:resource="http://purl.org/dc/dcmitype/StillImage"/>
    <dc:date>2026-05-07T17:53:26.710063</dc:date>
    <dc:format>image/svg+xml</dc:format>
    <dc:creator>
     <cc:Agent>
      <dc:title>Matplotlib v3.10.9, https://matplotlib.org/</dc:title>
     </cc:Agent>
    </dc:creator>
   </cc:Work>
  </rdf:RDF>
 </metadata>
 <defs>
  <style type="text/css">*{stroke-linejoin: round; stroke-linecap: butt}</style>
 </defs>
 <g id="figure_1">
  <g id="patch_1">
   <path d="M 0 308.8425 
L 684 308.8425 
L 684 0 
L 0 0 
z
" style="fill: #f2f2f2"/>
  </g>
  <g id="axes_1">
   <g id="patch_2">
    <path d="M 7.2 284.4 
L 676.8 284.4 
L 676.8 7.2 
L 7.2 7.2 
z
" style="fill: #f2f2f2"/>
   </g>
   <g id="matplotlib.axis_1">
    <g id="xtick_1">
     <g id="line2d_1">
      <defs>
       <path id="m263aa2e7fd" d="M 0 0 
L 0 6 
" style="stroke: #262626; stroke-width: 1.25"/>
      </defs>
      <g>
       <use xlink:href="#m263aa2e7fd" x="92.883263" y="284.4" style="fill: #262626; stroke: #262626; stroke-width: 1.25"/>
      </g>
     </g>
     <g id="text_1">
      <!-- 16:30 -->
      <g style="fill: #262626" transform="translate(81.355763 299.97875) scale(0.08 -0.08)">
       <defs>
        <path id="DejaVuSans-31" d="M 794 531 
L 1825 531 
L 1825 4091 
L 703 3866 
L 703 4441 
L 1819 4666 
L 2450 4666 
L 2450 531 
L 3481 531 
L 3481 0 
L 794 0 
L 794 531 
z
" transform="scale(0.015625)"/>
        <path id="DejaVuSans-36" d="M 2113 2584 
Q 1688 2584 1439 2293 
Q 1191 2003 1191 1497 
Q 1191 994 1439 701 
Q 1688 409 2113 409 
Q 2538 409 2786 701 
Q 3034 994 3034 1497 
Q 3034 2003 2786 2293 
Q 2538 2584 2113 2584 
z
M 3366 4563 
L 3366 3988 
Q 3128 4100 2886 4159 
Q 2644 4219 2406 4219 
Q 1781 4219 1451 3797 
Q 1122 3375 1075 2522 
Q 1259 2794 1537 2939 
Q 1816 3084 2150 3084 
Q 2853 3084 3261 2657 
Q 3669 2231 3669 1497 
Q 3669 778 3244 343 
Q 2819 -91 2113 -91 
Q 1303 -91 875 529 
Q 447 1150 447 2328 
Q 447 3434 972 4092 
Q 1497 4750 2381 4750 
Q 2619 4750 2861 4703 
Q 3103 4656 3366 4563 
z
" transform="scale(0.015625)"/>
        <path id="DejaVuSans-3a" d="M 750 794 
L 1409 794 
L 1409 0 
L 750 0 
L 750 794 
z
M 750 3309 
L 1409 3309 
L 1409 2516 
L 750 2516 
L 750 3309 
z
" transform="scale(0.015625)"/>
        <path id="DejaVuSans-33" d="M 2597 2516 
Q 3050 2419 3304 2112 
Q 3559 1806 3559 1356 
Q 3559 666 3084 287 
Q 2609 -91 1734 -91 
Q 1441 -91 1130 -33 
Q 819 25 488 141 
L 488 750 
Q 750 597 1062 519 
Q 1375 441 1716 441 
Q 2309 441 2620 675 
Q 2931 909 2931 1356 
Q 2931 1769 2642 2001 
Q 2353 2234 1838 2234 
L 1294 2234 
L 1294 2753 
L 1863 2753 
Q 2328 2753 2575 2939 
Q 2822 3125 2822 3475 
Q 2822 3834 2567 4026 
Q 2313 4219 1838 4219 
Q 1578 4219 1281 4162 
Q 984 4106 628 3988 
L 628 4550 
Q 988 4650 1302 4700 
Q 1616 4750 1894 4750 
Q 2613 4750 3031 4423 
Q 3450 4097 3450 3541 
Q 3450 3153 3228 2886 
Q 3006 2619 2597 2516 
z
" transform="scale(0.015625)"/>
        <path id="DejaVuSans-30" d="M 2034 4250 
Q 1547 4250 1301 3770 
Q 1056 3291 1056 2328 
Q 1056 1369 1301 889 
Q 1547 409 2034 409 
Q 2525 409 2770 889 
Q 3016 1369 3016 2328 
Q 3016 3291 2770 3770 
Q 2525 4250 2034 4250 
z
M 2034 4750 
Q 2819 4750 3233 4129 
Q 3647 3509 3647 2328 
Q 3647 1150 3233 529 
Q 2819 -91 2034 -91 
Q 1250 -91 836 529 
Q 422 1150 422 2328 
Q 422 3509 836 4129 
Q 1250 4750 2034 4750 
z
" transform="scale(0.015625)"/>
       </defs>
       <use xlink:href="#DejaVuSans-31"/>
       <use xlink:href="#DejaVuSans-36" transform="translate(63.623047 0)"/>
       <use xlink:href="#DejaVuSans-3a" transform="translate(127.246094 0)"/>
       <use xlink:href="#DejaVuSans-33" transform="translate(160.9375 0)"/>
       <use xlink:href="#DejaVuSans-30" transform="translate(224.560547 0)"/>
      </g>
     </g>
    </g>
    <g id="xtick_2">
     <g id="line2d_2">
      <g>
       <use xlink:href="#m263aa2e7fd" x="206.664061" y="284.4" style="fill: #262626; stroke: #262626; stroke-width: 1.25"/>
      </g>
     </g>
     <g id="text_2">
      <!-- 17:00 -->
      <g style="fill: #262626" transform="translate(195.136561 299.97875) scale(0.08 -0.08)">
       <defs>
        <path id="DejaVuSans-37" d="M 525 4666 
L 3525 4666 
L 3525 4397 
L 1831 0 
L 1172 0 
L 2766 4134 
L 525 4134 
L 525 4666 
z
" transform="scale(0.015625)"/>
       </defs>
       <use xlink:href="#DejaVuSans-31"/>
       <use xlink:href="#DejaVuSans-37" transform="translate(63.623047 0)"/>
       <use xlink:href="#DejaVuSans-3a" transform="translate(127.246094 0)"/>
       <use xlink:href="#DejaVuSans-30" transform="translate(160.9375 0)"/>
       <use xlink:href="#DejaVuSans-30" transform="translate(224.560547 0)"/>
      </g>
     </g>
    </g>
    <g id="xtick_3">
     <g id="line2d_3">
      <g>
       <use xlink:href="#m263aa2e7fd" x="320.44486" y="284.4" style="fill: #262626; stroke: #262626; stroke-width: 1.25"/>
      </g>
     </g>
     <g id="text_3">
      <!-- 17:30 -->
      <g style="fill: #262626" transform="translate(308.91736 299.97875) scale(0.08 -0.08)">
       <use xlink:href="#DejaVuSans-31"/>
       <use xlink:href="#DejaVuSans-37" transform="translate(63.623047 0)"/>
       <use xlink:href="#DejaVuSans-3a" transform="translate(127.246094 0)"/>
       <use xlink:href="#DejaVuSans-33" transform="translate(160.9375 0)"/>
       <use xlink:href="#DejaVuSans-30" transform="translate(224.560547 0)"/>
      </g>
     </g>
    </g>
    <g id="xtick_4">
     <g id="line2d_4">
      <g>
       <use xlink:href="#m263aa2e7fd" x="434.225658" y="284.4" style="fill: #262626; stroke: #262626; stroke-width: 1.25"/>
      </g>
     </g>
     <g id="text_4">
      <!-- 18:00 -->
      <g style="fill: #262626" transform="translate(422.698158 299.97875) scale(0.08 -0.08)">
       <defs>
        <path id="DejaVuSans-38" d="M 2034 2216 
Q 1584 2216 1326 1975 
Q 1069 1734 1069 1313 
Q 1069 891 1326 650 
Q 1584 409 2034 409 
Q 2484 409 2743 651 
Q 3003 894 3003 1313 
Q 3003 1734 2745 1975 
Q 2488 2216 2034 2216 
z
M 1403 2484 
Q 997 2584 770 2862 
Q 544 3141 544 3541 
Q 544 4100 942 4425 
Q 1341 4750 2034 4750 
Q 2731 4750 3128 4425 
Q 3525 4100 3525 3541 
Q 3525 3141 3298 2862 
Q 3072 2584 2669 2484 
Q 3125 2378 3379 2068 
Q 3634 1759 3634 1313 
Q 3634 634 3220 271 
Q 2806 -91 2034 -91 
Q 1263 -91 848 271 
Q 434 634 434 1313 
Q 434 1759 690 2068 
Q 947 2378 1403 2484 
z
M 1172 3481 
Q 1172 3119 1398 2916 
Q 1625 2713 2034 2713 
Q 2441 2713 2670 2916 
Q 2900 3119 2900 3481 
Q 2900 3844 2670 4047 
Q 2441 4250 2034 4250 
Q 1625 4250 1398 4047 
Q 1172 3844 1172 3481 
z
" transform="scale(0.015625)"/>
       </defs>
       <use xlink:href="#DejaVuSans-31"/>
       <use xlink:href="#DejaVuSans-38" transform="translate(63.623047 0)"/>
       <use xlink:href="#DejaVuSans-3a" transform="translate(127.246094 0)"/>
       <use xlink:href="#DejaVuSans-30" transform="translate(160.9375 0)"/>
       <use xlink:href="#DejaVuSans-30" transform="translate(224.560547 0)"/>
      </g>
     </g>
    </g>
    <g id="xtick_5">
     <g id="line2d_5">
      <g>
       <use xlink:href="#m263aa2e7fd" x="548.006457" y="284.4" style="fill: #262626; stroke: #262626; stroke-width: 1.25"/>
      </g>
     </g>
     <g id="text_5">
      <!-- 18:30 -->
      <g style="fill: #262626" transform="translate(536.478957 299.97875) scale(0.08 -0.08)">
       <use xlink:href="#DejaVuSans-31"/>
       <use xlink:href="#DejaVuSans-38" transform="translate(63.623047 0)"/>
       <use xlink:href="#DejaVuSans-3a" transform="translate(127.246094 0)"/>
       <use xlink:href="#DejaVuSans-33" transform="translate(160.9375 0)"/>
       <use xlink:href="#DejaVuSans-30" transform="translate(224.560547 0)"/>
      </g>
     </g>
    </g>
    <g id="xtick_6">
     <g id="line2d_6">
      <g>
       <use xlink:href="#m263aa2e7fd" x="661.787256" y="284.4" style="fill: #262626; stroke: #262626; stroke-width: 1.25"/>
      </g>
     </g>
     <g id="text_6">
      <!-- 19:00 -->
      <g style="fill: #262626" transform="translate(650.259756 299.97875) scale(0.08 -0.08)">
       <defs>
        <path id="DejaVuSans-39" d="M 703 97 
L 703 672 
Q 941 559 1184 500 
Q 1428 441 1663 441 
Q 2288 441 2617 861 
Q 2947 1281 2994 2138 
Q 2813 1869 2534 1725 
Q 2256 1581 1919 1581 
Q 1219 1581 811 2004 
Q 403 2428 403 3163 
Q 403 3881 828 4315 
Q 1253 4750 1959 4750 
Q 2769 4750 3195 4129 
Q 3622 3509 3622 2328 
Q 3622 1225 3098 567 
Q 2575 -91 1691 -91 
Q 1453 -91 1209 -44 
Q 966 3 703 97 
z
M 1959 2075 
Q 2384 2075 2632 2365 
Q 2881 2656 2881 3163 
Q 2881 3666 2632 3958 
Q 2384 4250 1959 4250 
Q 1534 4250 1286 3958 
Q 1038 3666 1038 3163 
Q 1038 2656 1286 2365 
Q 1534 2075 1959 2075 
z
" transform="scale(0.015625)"/>
       </defs>
       <use xlink:href="#DejaVuSans-31"/>
       <use xlink:href="#DejaVuSans-39" transform="translate(63.623047 0)"/>
       <use xlink:href="#DejaVuSans-3a" transform="translate(127.246094 0)"/>
       <use xlink:href="#DejaVuSans-30" transform="translate(160.9375 0)"/>
       <use xlink:href="#DejaVuSans-30" transform="translate(224.560547 0)"/>
      </g>
     </g>
    </g>
   </g>
   <g id="matplotlib.axis_2"/>
   <g id="FillBetweenPolyCollection_1"/>
   <g id="FillBetweenPolyCollection_2"/>
   <g id="FillBetweenPolyCollection_3"/>
   <g id="FillBetweenPolyCollection_4"/>
   <g id="line2d_7">
    <path d="M 37.636364 112.222164 
L 157.106202 112.222164 
L 159.002549 111.557256 
L 160.898896 111.557256 
L 162.795242 110.892348 
L 164.691589 110.892348 
L 166.587935 110.227441 
L 168.484282 110.227441 
L 170.380629 109.562533 
L 172.276975 109.562533 
L 174.173322 108.897625 
L 176.069669 108.897625 
L 177.966015 108.232718 
L 179.862362 108.232718 
L 181.758709 107.56781 
L 183.655055 107.56781 
L 185.551402 106.902902 
L 187.447748 106.902902 
L 189.344095 106.237995 
L 191.240442 106.237995 
L 193.136788 105.573087 
L 195.033135 105.573087 
L 196.929482 104.908179 
L 198.825828 104.908179 
L 200.722175 104.243272 
L 202.618522 104.243272 
L 204.514868 103.578364 
L 206.411215 103.578364 
L 208.307562 102.913456 
L 210.203908 102.913456 
L 212.100255 102.248549 
L 213.996602 102.248549 
L 215.892948 101.583641 
L 217.789295 101.583641 
L 219.685641 100.918734 
L 221.581988 100.918734 
L 223.478335 100.253826 
L 225.374681 100.253826 
L 227.271028 99.588918 
L 229.167375 99.588918 
L 231.063721 98.924011 
L 232.960068 98.924011 
L 234.856415 98.259103 
L 236.752761 98.259103 
L 238.649108 97.594195 
L 240.545455 97.594195 
L 242.441801 96.929288 
L 244.338148 96.929288 
L 246.234494 96.26438 
L 248.130841 96.26438 
L 250.027188 95.599472 
L 251.923534 95.599472 
L 253.819881 94.934565 
L 255.716228 94.934565 
L 257.612574 94.269657 
L 259.508921 94.269657 
L 261.405268 93.604749 
L 263.301614 93.604749 
L 265.197961 92.939842 
L 270.887001 92.939842 
L 272.783347 90.945119 
L 274.679694 90.945119 
L 276.576041 88.950396 
L 278.472387 88.950396 
L 280.368734 86.955673 
L 282.265081 86.955673 
L 284.161427 84.96095 
L 286.057774 84.96095 
L 287.954121 82.966227 
L 289.850467 82.966227 
L 291.746814 80.971504 
L 293.643161 80.971504 
L 295.539507 78.976781 
L 297.435854 78.976781 
L 299.332201 76.982058 
L 301.228547 76.982058 
L 303.124894 74.987335 
L 308.813934 74.987335 
L 310.71028 70.997889 
L 312.606627 70.997889 
L 314.502974 67.008443 
L 316.39932 67.008443 
L 318.295667 63.018997 
L 320.192014 63.018997 
L 322.08836 59.029551 
L 323.984707 59.029551 
L 325.881054 55.040106 
L 327.7774 55.040106 
L 329.673747 51.05066 
L 331.570093 51.05066 
L 333.46644 47.061214 
L 335.362787 47.061214 
L 337.259133 43.071768 
L 339.15548 43.071768 
L 341.051827 39.082322 
L 346.740867 39.082322 
L 348.637213 38.417414 
L 350.53356 38.417414 
L 352.429907 37.752507 
L 354.326253 37.752507 
L 356.2226 37.087599 
L 358.118946 37.087599 
L 360.015293 36.422691 
L 361.91164 36.422691 
L 363.807986 35.757784 
L 365.704333 35.757784 
L 367.60068 35.092876 
L 369.497026 35.092876 
L 371.393373 34.427968 
L 373.28972 34.427968 
L 375.186066 33.763061 
L 377.082413 33.763061 
L 378.97876 33.098153 
L 380.875106 33.098153 
L 382.771453 32.433245 
L 384.667799 32.433245 
L 386.564146 31.768338 
L 388.460493 31.768338 
L 390.356839 31.10343 
L 392.253186 31.10343 
L 394.149533 30.438522 
L 396.045879 30.438522 
L 397.942226 29.773615 
L 399.838573 29.773615 
L 401.734919 29.108707 
L 403.631266 29.108707 
L 405.527613 28.443799 
L 407.423959 28.443799 
L 409.320306 27.778892 
L 411.216653 27.778892 
L 413.112999 27.113984 
L 415.009346 27.113984 
L 416.905692 26.449077 
L 418.802039 26.449077 
L 420.698386 25.784169 
L 422.594732 25.784169 
L 424.491079 25.119261 
L 426.387426 25.119261 
L 428.283772 24.454354 
L 430.180119 24.454354 
L 432.076466 23.789446 
L 433.972812 23.789446 
L 435.869159 23.124538 
L 437.765506 23.124538 
L 439.661852 22.459631 
L 441.558199 22.459631 
L 443.454545 21.794723 
L 445.350892 21.794723 
L 447.247239 21.129815 
L 449.143585 21.129815 
L 451.039932 20.464908 
L 452.936279 20.464908 
L 454.832625 19.8 
L 623.607477 19.8 
L 623.607477 19.8 
" clip-path="url(#p658acf23e9)" style="fill: none; stroke: #12711c; stroke-opacity: 0.2; stroke-width: 2; stroke-linecap: round"/>
   </g>
   <g id="line2d_8">
    <path d="M 41.429057 271.8 
L 157.106202 271.8 
L 159.002549 271.112164 
L 160.898896 271.112164 
L 162.795242 270.424329 
L 164.691589 270.424329 
L 166.587935 269.736493 
L 168.484282 269.736493 
L 170.380629 269.048658 
L 172.276975 269.048658 
L 174.173322 268.360822 
L 176.069669 268.360822 
L 177.966015 267.672987 
L 179.862362 267.672987 
L 181.758709 266.985151 
L 183.655055 266.985151 
L 185.551402 266.297316 
L 187.447748 266.297316 
L 189.344095 265.60948 
L 191.240442 265.60948 
L 193.136788 264.921645 
L 195.033135 264.921645 
L 196.929482 264.233809 
L 198.825828 264.233809 
L 200.722175 263.545974 
L 202.618522 263.545974 
L 204.514868 262.858138 
L 206.411215 262.858138 
L 208.307562 262.170303 
L 210.203908 262.170303 
L 212.100255 261.482467 
L 213.996602 261.482467 
L 215.892948 260.794632 
L 217.789295 260.794632 
L 219.685641 260.106796 
L 221.581988 260.106796 
L 223.478335 259.418961 
L 225.374681 259.418961 
L 227.271028 258.731125 
L 229.167375 258.731125 
L 231.063721 258.04329 
L 232.960068 258.04329 
L 234.856415 257.355454 
L 236.752761 257.355454 
L 238.649108 256.667619 
L 240.545455 256.667619 
L 242.441801 255.979783 
L 244.338148 255.979783 
L 246.234494 255.291948 
L 248.130841 255.291948 
L 250.027188 254.604112 
L 251.923534 254.604112 
L 253.819881 253.916277 
L 255.716228 253.916277 
L 257.612574 253.228441 
L 259.508921 253.228441 
L 261.405268 252.540606 
L 263.301614 252.540606 
L 265.197961 251.85277 
L 267.094308 251.85277 
L 268.990654 252.540606 
L 270.887001 252.540606 
L 272.783347 251.164935 
L 274.679694 251.164935 
L 276.576041 249.789264 
L 278.472387 249.789264 
L 280.368734 248.413593 
L 282.265081 248.413593 
L 284.161427 247.037922 
L 286.057774 247.037922 
L 287.954121 245.662251 
L 289.850467 245.662251 
L 291.746814 244.28658 
L 293.643161 244.28658 
L 295.539507 242.910909 
L 297.435854 242.910909 
L 299.332201 241.535238 
L 301.228547 241.535238 
L 303.124894 240.159567 
L 305.02124 240.159567 
L 306.917587 240.847402 
L 308.813934 240.847402 
L 310.71028 237.408225 
L 312.606627 237.408225 
L 314.502974 233.969047 
L 316.39932 233.969047 
L 318.295667 230.52987 
L 320.192014 230.52987 
L 322.08836 227.090692 
L 323.984707 227.090692 
L 325.881054 223.651515 
L 327.7774 223.651515 
L 329.673747 220.212337 
L 331.570093 220.212337 
L 333.46644 216.77316 
L 335.362787 216.77316 
L 337.259133 213.333982 
L 339.15548 213.333982 
L 341.051827 209.894805 
L 342.948173 209.894805 
L 344.84452 210.58264 
L 377.082413 210.58264 
L 378.97876 209.894805 
L 380.875106 209.894805 
L 382.771453 211.270476 
L 384.667799 211.270476 
L 386.564146 212.646147 
L 388.460493 212.646147 
L 390.356839 214.021818 
L 392.253186 214.021818 
L 394.149533 215.397489 
L 396.045879 215.397489 
L 397.942226 216.77316 
L 399.838573 216.77316 
L 401.734919 218.148831 
L 403.631266 218.148831 
L 405.527613 219.524502 
L 407.423959 219.524502 
L 409.320306 220.900173 
L 411.216653 220.900173 
L 413.112999 222.275844 
L 415.009346 222.275844 
L 416.905692 221.588008 
L 418.802039 221.588008 
L 420.698386 225.027186 
L 422.594732 225.027186 
L 424.491079 228.466363 
L 426.387426 228.466363 
L 428.283772 231.905541 
L 430.180119 231.905541 
L 432.076466 235.344718 
L 433.972812 235.344718 
L 435.869159 238.783896 
L 437.765506 238.783896 
L 439.661852 242.223073 
L 441.558199 242.223073 
L 443.454545 245.662251 
L 445.350892 245.662251 
L 447.247239 249.101428 
L 449.143585 249.101428 
L 451.039932 252.540606 
L 452.936279 252.540606 
L 454.832625 251.85277 
L 456.728972 251.85277 
L 458.625319 252.540606 
L 460.521665 252.540606 
L 462.418012 253.228441 
L 464.314359 253.228441 
L 466.210705 253.916277 
L 468.107052 253.916277 
L 470.003398 254.604112 
L 471.899745 254.604112 
L 473.796092 255.291948 
L 475.692438 255.291948 
L 477.588785 255.979783 
L 479.485132 255.979783 
L 481.381478 256.667619 
L 483.277825 256.667619 
L 485.174172 257.355454 
L 487.070518 257.355454 
L 488.966865 258.04329 
L 490.863212 258.04329 
L 492.759558 258.731125 
L 494.655905 258.731125 
L 496.552251 259.418961 
L 498.448598 259.418961 
L 500.344945 260.106796 
L 502.241291 260.106796 
L 504.137638 260.794632 
L 506.033985 260.794632 
L 507.930331 261.482467 
L 509.826678 261.482467 
L 511.723025 262.170303 
L 513.619371 262.170303 
L 515.515718 262.858138 
L 517.412065 262.858138 
L 519.308411 263.545974 
L 521.204758 263.545974 
L 523.101104 264.233809 
L 524.997451 264.233809 
L 526.893798 264.921645 
L 528.790144 264.921645 
L 530.686491 265.60948 
L 532.582838 265.60948 
L 534.479184 266.297316 
L 536.375531 266.297316 
L 538.271878 266.985151 
L 540.168224 266.985151 
L 542.064571 267.672987 
L 543.960918 267.672987 
L 545.857264 268.360822 
L 547.753611 268.360822 
L 549.649958 269.048658 
L 551.546304 269.048658 
L 553.442651 269.736493 
L 555.338997 269.736493 
L 557.235344 270.424329 
L 559.131691 270.424329 
L 561.028037 271.112164 
L 562.924384 271.112164 
L 564.820731 271.8 
L 646.363636 271.8 
L 646.363636 271.8 
" clip-path="url(#p658acf23e9)" style="fill: none; stroke: #001c7f; stroke-opacity: 0.2; stroke-width: 2; stroke-linecap: round"/>
   </g>
   <g id="line2d_9">
    <path d="M 41.429057 271.8 
L 157.106202 271.8 
L 159.002549 271.115699 
L 160.898896 271.10531 
L 162.795242 270.432574 
L 164.691589 270.412425 
L 166.587935 269.75052 
L 168.484282 269.721186 
L 170.380629 269.069446 
L 172.276975 269.031451 
L 174.173322 268.38927 
L 176.069669 268.343096 
L 177.966015 267.709919 
L 179.862362 267.656008 
L 181.758709 267.031329 
L 183.655055 266.970087 
L 185.551402 266.35344 
L 187.447748 266.285245 
L 189.344095 265.676201 
L 191.240442 265.601398 
L 193.136788 264.999562 
L 195.033135 264.918476 
L 196.929482 264.323483 
L 198.825828 264.236412 
L 200.722175 263.647923 
L 202.618522 263.555145 
L 204.514868 262.972847 
L 206.411215 262.874622 
L 208.307562 262.298223 
L 210.203908 262.194793 
L 212.100255 261.624022 
L 213.996602 261.515613 
L 215.892948 260.950216 
L 217.789295 260.83704 
L 219.685641 260.276781 
L 221.581988 260.159037 
L 223.478335 259.603694 
L 225.374681 259.481568 
L 227.271028 258.930934 
L 229.167375 258.804602 
L 231.063721 258.258482 
L 232.960068 258.128108 
L 234.856415 257.58632 
L 236.752761 257.45206 
L 238.649108 256.914432 
L 240.545455 256.776433 
L 242.441801 256.242803 
L 244.338148 256.101202 
L 246.234494 255.571418 
L 248.130841 255.426347 
L 250.027188 254.900264 
L 251.923534 254.751847 
L 253.819881 254.229329 
L 255.716228 254.077684 
L 257.612574 253.558602 
L 259.508921 253.40384 
L 261.405268 252.888073 
L 263.301614 252.730298 
L 265.197961 252.217731 
L 267.094308 252.057045 
L 268.990654 252.222648 
L 270.887001 252.064596 
L 272.783347 250.202656 
L 274.679694 250.031066 
L 276.576041 248.183465 
L 278.472387 247.998769 
L 280.368734 246.16504 
L 282.265081 245.967645 
L 284.161427 244.147343 
L 286.057774 243.937642 
L 287.954121 242.130343 
L 289.850467 241.908707 
L 291.746814 240.114008 
L 293.643161 239.880794 
L 295.539507 238.098308 
L 297.435854 237.853857 
L 299.332201 236.083217 
L 301.228547 235.827854 
L 303.124894 234.068707 
L 305.02124 233.802744 
L 306.917587 234.0757 
L 308.813934 233.813482 
L 310.71028 230.041337 
L 312.606627 229.755057 
L 314.502974 226.008205 
L 316.39932 225.698522 
L 318.295667 221.976253 
L 320.192014 221.643799 
L 322.08836 217.945435 
L 323.984707 217.590818 
L 325.881054 213.915706 
L 327.7774 213.539508 
L 329.673747 209.887023 
L 331.570093 209.489806 
L 333.46644 205.859346 
L 335.362787 205.441648 
L 337.259133 201.832638 
L 339.15548 201.394977 
L 341.051827 197.80686 
L 342.948173 197.349736 
L 344.84452 197.817395 
L 346.740867 197.365914 
L 348.637213 197.155197 
L 350.53356 196.705168 
L 352.429907 196.492933 
L 354.326253 196.044321 
L 356.2226 195.830607 
L 358.118946 195.383377 
L 360.015293 195.16822 
L 361.91164 194.722341 
L 363.807986 194.505774 
L 365.704333 194.061214 
L 367.60068 193.843272 
L 369.497026 193.4 
L 371.393373 193.180715 
L 373.28972 192.738702 
L 375.186066 192.518105 
L 377.082413 192.077324 
L 378.97876 191.855444 
L 380.875106 191.415866 
L 382.771453 191.192734 
L 384.667799 190.754333 
L 386.564146 190.529976 
L 388.460493 190.092727 
L 390.356839 189.867172 
L 392.253186 189.431049 
L 394.149533 189.204323 
L 396.045879 188.769303 
L 397.942226 188.54143 
L 399.838573 188.107491 
L 401.734919 187.878496 
L 403.631266 187.445613 
L 405.527613 187.215521 
L 407.423959 186.783674 
L 409.320306 186.552507 
L 411.216653 186.121674 
L 413.112999 185.889454 
L 415.009346 185.459615 
L 416.905692 185.226364 
L 418.802039 184.797499 
L 420.698386 184.563238 
L 422.594732 184.135327 
L 424.491079 183.900078 
L 426.387426 183.473103 
L 428.283772 183.236883 
L 430.180119 182.810826 
L 432.076466 182.573655 
L 433.972812 182.148498 
L 435.869159 181.910396 
L 437.765506 181.486121 
L 439.661852 181.247105 
L 441.558199 180.823697 
L 443.454545 180.583784 
L 445.350892 180.161226 
L 447.247239 179.920434 
L 449.143585 179.49871 
L 451.039932 179.257055 
L 452.936279 178.83615 
L 454.832625 178.593648 
L 456.728972 178.173548 
L 458.625319 178.600713 
L 460.521665 178.184397 
L 462.418012 178.607652 
L 464.314359 178.195053 
L 466.210705 178.614468 
L 468.107052 178.20552 
L 470.003398 178.621164 
L 471.899745 178.215803 
L 473.796092 178.627743 
L 475.692438 178.225908 
L 477.588785 178.63421 
L 479.485132 178.235838 
L 481.381478 178.640566 
L 483.277825 178.245599 
L 485.174172 178.646814 
L 487.070518 178.255194 
L 488.966865 178.652957 
L 490.863212 178.264628 
L 492.759558 178.658997 
L 494.655905 178.273905 
L 496.552251 178.664938 
L 498.448598 178.283028 
L 500.344945 178.670782 
L 502.241291 178.292002 
L 504.137638 178.67653 
L 506.033985 178.30083 
L 507.930331 178.682186 
L 509.826678 178.309516 
L 511.723025 178.687751 
L 513.619371 178.318062 
L 515.515718 178.693228 
L 517.412065 178.326473 
L 519.308411 178.698618 
L 521.204758 178.334752 
L 523.101104 178.703925 
L 524.997451 178.342901 
L 526.893798 178.709149 
L 528.790144 178.350923 
L 530.686491 178.714293 
L 532.582838 178.358823 
L 534.479184 178.719358 
L 536.375531 178.366602 
L 538.271878 178.724346 
L 540.168224 178.374262 
L 542.064571 178.72926 
L 543.960918 178.381808 
L 545.857264 178.7341 
L 547.753611 178.389241 
L 549.649958 178.738868 
L 551.546304 178.396564 
L 553.442651 178.743567 
L 555.338997 178.403779 
L 557.235344 178.748196 
L 559.131691 178.410889 
L 561.028037 178.752759 
L 562.924384 178.038385 
L 564.820731 178.712929 
L 625.503823 178.663462 
L 627.40017 178.998325 
L 629.296517 178.658248 
L 631.192863 178.995555 
L 633.08921 178.652957 
L 634.985556 178.992744 
L 636.881903 178.647587 
L 638.77825 178.989892 
L 640.674596 178.642138 
L 642.570943 178.986996 
L 644.46729 178.636606 
L 646.363636 178.984058 
L 646.363636 178.984058 
" clip-path="url(#p658acf23e9)" style="fill: none; stroke: #b1400d; stroke-width: 2; stroke-linecap: round"/>
   </g>
   <g id="line2d_10">
    <path d="M 41.429057 271.8 
L 157.106202 271.8 
L 159.002549 271.115699 
L 160.898896 271.10531 
L 162.795242 270.432574 
L 164.691589 270.412425 
L 166.587935 269.75052 
L 168.484282 269.721186 
L 170.380629 269.069446 
L 172.276975 269.031451 
L 174.173322 268.38927 
L 176.069669 268.343096 
L 177.966015 267.709919 
L 179.862362 267.656008 
L 181.758709 267.031329 
L 183.655055 266.970087 
L 185.551402 266.35344 
L 187.447748 266.285245 
L 189.344095 265.676201 
L 191.240442 265.601398 
L 193.136788 264.999562 
L 195.033135 264.918476 
L 196.929482 264.323483 
L 198.825828 264.236412 
L 200.722175 263.647923 
L 202.618522 263.555145 
L 204.514868 262.972847 
L 206.411215 262.874622 
L 208.307562 262.298223 
L 210.203908 262.194793 
L 212.100255 261.624022 
L 213.996602 261.515613 
L 215.892948 260.950216 
L 217.789295 260.83704 
L 219.685641 260.276781 
L 221.581988 260.159037 
L 223.478335 259.603694 
L 225.374681 259.481568 
L 227.271028 258.930934 
L 229.167375 258.804602 
L 231.063721 258.258482 
L 232.960068 258.128108 
L 234.856415 257.58632 
L 236.752761 257.45206 
L 238.649108 256.914432 
L 240.545455 256.776433 
L 242.441801 256.242803 
L 244.338148 256.101202 
L 246.234494 255.571418 
L 248.130841 255.426347 
L 250.027188 254.900264 
L 251.923534 254.751847 
L 253.819881 254.229329 
L 255.716228 254.077684 
L 257.612574 253.558602 
L 259.508921 253.40384 
L 261.405268 252.888073 
L 263.301614 252.730298 
L 265.197961 252.217731 
L 267.094308 252.057045 
L 268.990654 252.222648 
L 270.887001 252.064596 
L 272.783347 250.202656 
L 274.679694 250.031066 
L 276.576041 248.183465 
L 278.472387 247.998769 
L 280.368734 246.16504 
L 282.265081 245.967645 
L 284.161427 244.147343 
L 286.057774 243.937642 
L 287.954121 242.130343 
L 289.850467 241.908707 
L 291.746814 240.114008 
L 293.643161 239.880794 
L 295.539507 238.098308 
L 297.435854 237.853857 
L 299.332201 236.083217 
L 301.228547 235.827854 
L 303.124894 234.068707 
L 305.02124 233.802744 
L 306.917587 234.0757 
L 308.813934 233.813482 
L 310.71028 230.041337 
L 312.606627 229.755057 
L 314.502974 226.008205 
L 316.39932 225.698522 
L 318.295667 221.976253 
L 320.192014 221.643799 
L 322.08836 217.945435 
L 323.984707 217.590818 
L 325.881054 213.915706 
L 327.7774 213.539508 
L 329.673747 209.887023 
L 331.570093 209.489806 
L 333.46644 205.859346 
L 335.362787 205.441648 
L 337.259133 201.832638 
L 339.15548 201.394977 
L 341.051827 197.80686 
L 342.948173 197.349736 
L 344.84452 197.817395 
L 346.740867 197.365914 
L 348.637213 197.155197 
L 350.53356 196.705168 
L 352.429907 196.492933 
L 354.326253 196.044321 
L 356.2226 195.830607 
L 358.118946 195.383377 
L 360.015293 195.16822 
L 361.91164 194.722341 
L 363.807986 194.505774 
L 365.704333 194.061214 
L 367.60068 193.843272 
L 369.497026 193.4 
L 371.393373 193.180715 
L 373.28972 192.738702 
L 375.186066 192.518105 
L 377.082413 192.077324 
L 378.97876 191.855444 
L 380.875106 191.415866 
L 382.771453 191.192734 
L 384.667799 190.754333 
L 386.564146 190.529976 
L 388.460493 190.092727 
L 390.356839 189.867172 
L 392.253186 189.431049 
L 394.149533 189.204323 
L 396.045879 188.769303 
L 397.942226 188.54143 
L 399.838573 188.107491 
L 401.734919 187.878496 
L 403.631266 187.445613 
L 405.527613 187.215521 
L 407.423959 186.783674 
L 409.320306 186.552507 
L 411.216653 186.121674 
L 413.112999 185.889454 
L 415.009346 185.459615 
L 416.905692 185.226364 
L 418.802039 184.797499 
L 420.698386 184.563238 
L 422.594732 184.135327 
L 424.491079 183.900078 
L 426.387426 183.473103 
L 428.283772 183.236883 
L 430.180119 182.810826 
L 432.076466 182.573655 
L 433.972812 182.148498 
L 435.869159 181.910396 
L 437.765506 181.486121 
L 439.661852 181.247105 
L 441.558199 180.823697 
L 443.454545 180.583784 
L 445.350892 180.161226 
L 447.247239 179.920434 
L 449.143585 179.49871 
L 451.039932 179.257055 
L 452.936279 178.83615 
L 454.832625 178.593648 
L 456.728972 178.173548 
L 458.625319 178.600713 
L 460.521665 178.184397 
L 462.418012 178.607652 
L 464.314359 178.195053 
L 466.210705 178.614468 
L 468.107052 178.20552 
L 470.003398 178.621164 
L 471.899745 178.215803 
L 473.796092 178.627743 
L 475.692438 178.225908 
L 477.588785 178.63421 
L 479.485132 178.235838 
L 481.381478 178.640566 
L 483.277825 178.245599 
L 485.174172 178.646814 
L 487.070518 178.255194 
L 488.966865 178.652957 
L 490.863212 178.264628 
L 492.759558 178.658997 
L 494.655905 178.273905 
L 496.552251 178.664938 
L 498.448598 178.283028 
L 500.344945 178.670782 
L 502.241291 178.292002 
L 504.137638 178.67653 
L 506.033985 178.30083 
L 507.930331 178.682186 
L 509.826678 178.309516 
L 511.723025 178.687751 
L 513.619371 178.318062 
L 515.515718 178.693228 
L 517.412065 178.326473 
L 519.308411 178.698618 
L 521.204758 178.334752 
L 523.101104 178.703925 
L 524.997451 178.342901 
L 526.893798 178.709149 
L 528.790144 178.350923 
L 530.686491 178.714293 
L 532.582838 178.358823 
L 534.479184 178.719358 
L 536.375531 178.366602 
L 538.271878 178.724346 
L 540.168224 178.374262 
L 542.064571 178.72926 
L 543.960918 178.381808 
L 545.857264 178.7341 
L 547.753611 178.389241 
L 549.649958 178.738868 
L 551.546304 178.396564 
L 553.442651 178.743567 
L 555.338997 178.403779 
L 557.235344 178.748196 
L 559.131691 178.410889 
L 561.028037 178.752759 
L 562.924384 178.038385 
L 564.820731 178.712929 
L 625.503823 178.663462 
L 627.40017 178.998325 
L 629.296517 178.658248 
L 631.192863 178.995555 
L 633.08921 178.652957 
L 634.985556 178.992744 
L 636.881903 178.647587 
L 638.77825 178.989892 
L 640.674596 178.642138 
L 642.570943 178.986996 
L 644.46729 178.636606 
L 646.363636 178.984058 
L 646.363636 178.984058 
" clip-path="url(#p658acf23e9)" style="fill: none; stroke: #591e71; stroke-opacity: 0; stroke-width: 2; stroke-linecap: round"/>
   </g>
   <g id="patch_3">
    <path d="M 7.2 284.4 
L 7.2 7.2 
" style="fill: none; stroke: #262626; stroke-width: 1.25; stroke-linejoin: miter; stroke-linecap: square"/>
   </g>
   <g id="patch_4">
    <path d="M 676.8 284.4 
L 676.8 7.2 
" style="fill: none; stroke: #262626; stroke-width: 1.25; stroke-linejoin: miter; stroke-linecap: square"/>
   </g>
   <g id="patch_5">
    <path d="M 7.2 284.4 
L 676.8 284.4 
" style="fill: none; stroke: #262626; stroke-width: 1.25; stroke-linejoin: miter; stroke-linecap: square"/>
   </g>
   <g id="patch_6">
    <path d="M 7.2 7.2 
L 676.8 7.2 
" style="fill: none; stroke: #262626; stroke-width: 1.25; stroke-linejoin: miter; stroke-linecap: square"/>
   </g>
   <g id="legend_1">
    <g id="patch_7">
     <path d="M 14.9 63.262187 
L 221.744688 63.262187 
Q 223.944688 63.262187 223.944688 61.062187 
L 223.944688 14.9 
Q 223.944688 12.7 221.744688 12.7 
L 14.9 12.7 
Q 12.7 12.7 12.7 14.9 
L 12.7 61.062187 
Q 12.7 63.262187 14.9 63.262187 
z
" style="fill: #ffffff; opacity: 0.8; stroke: #cccccc; stroke-linejoin: miter"/>
    </g>
    <g id="line2d_11">
     <path d="M 17.1 21.221562 
L 28.1 21.221562 
L 39.1 21.221562 
" style="fill: none; stroke: #12711c; stroke-opacity: 0.2; stroke-width: 2; stroke-linecap: round"/>
    </g>
    <g id="text_7">
     <!-- counter -->
     <g style="fill: #262626" transform="translate(47.9 25.071562) scale(0.11 -0.11)">
      <defs>
       <path id="LiberationMono-Bold-63" d="M 1950 -63 
Q 1181 -63 762 395 
Q 344 853 344 1672 
Q 344 2509 766 2976 
Q 1188 3444 1963 3444 
Q 2559 3444 2950 3144 
Q 3341 2844 3441 2316 
L 2556 2272 
Q 2519 2531 2369 2686 
Q 2219 2841 1944 2841 
Q 1266 2841 1266 1706 
Q 1266 538 1956 538 
Q 2206 538 2375 695 
Q 2544 853 2584 1166 
L 3466 1125 
Q 3419 778 3217 506 
Q 3016 234 2687 85 
Q 2359 -63 1950 -63 
z
" transform="scale(0.015625)"/>
       <path id="LiberationMono-Bold-6f" d="M 3553 1694 
Q 3553 853 3128 395 
Q 2703 -63 1906 -63 
Q 1138 -63 713 395 
Q 288 853 288 1694 
Q 288 2531 709 2987 
Q 1131 3444 1925 3444 
Q 3553 3444 3553 1694 
z
M 2634 1694 
Q 2634 2294 2475 2567 
Q 2316 2841 1938 2841 
Q 1550 2841 1379 2566 
Q 1209 2291 1209 1694 
Q 1209 1091 1382 814 
Q 1556 538 1897 538 
Q 2284 538 2459 811 
Q 2634 1084 2634 1694 
z
" transform="scale(0.015625)"/>
       <path id="LiberationMono-Bold-75" d="M 1300 3381 
L 1300 1484 
Q 1300 1053 1439 823 
Q 1578 594 1838 594 
Q 2119 594 2301 870 
Q 2484 1147 2484 1569 
L 2484 3381 
L 3363 3381 
L 3363 756 
Q 3363 325 3388 0 
L 2550 0 
Q 2513 450 2513 672 
L 2497 672 
Q 2163 -63 1472 -63 
Q 959 -63 690 264 
Q 422 591 422 1234 
L 422 3381 
L 1300 3381 
z
" transform="scale(0.015625)"/>
       <path id="LiberationMono-Bold-6e" d="M 2575 0 
L 2575 1934 
Q 2575 2375 2454 2581 
Q 2334 2788 2041 2788 
Q 1716 2788 1520 2511 
Q 1325 2234 1325 1813 
L 1325 0 
L 447 0 
L 447 2625 
Q 447 2897 439 3070 
Q 431 3244 422 3381 
L 1259 3381 
Q 1269 3322 1284 3064 
Q 1300 2806 1300 2709 
L 1313 2709 
Q 1491 3097 1759 3272 
Q 2028 3447 2400 3447 
Q 3450 3447 3450 2147 
L 3450 0 
L 2575 0 
z
" transform="scale(0.015625)"/>
       <path id="LiberationMono-Bold-74" d="M 1025 2788 
L 503 2788 
L 503 3381 
L 1069 3381 
L 1344 4263 
L 1894 4263 
L 1894 3381 
L 3097 3381 
L 3097 2788 
L 1894 2788 
L 1894 1131 
Q 1894 856 1945 761 
Q 1997 666 2112 611 
Q 2228 556 2438 556 
Q 2825 556 3234 641 
L 3234 59 
Q 2791 -13 2606 -27 
Q 2422 -41 2222 -41 
Q 1825 -41 1558 67 
Q 1291 175 1155 404 
Q 1019 634 1019 1050 
L 1025 2788 
z
" transform="scale(0.015625)"/>
       <path id="LiberationMono-Bold-65" d="M 1956 -63 
Q 1169 -63 741 401 
Q 313 866 313 1706 
Q 313 2269 514 2656 
Q 716 3044 1087 3244 
Q 1459 3444 1969 3444 
Q 2709 3444 3118 2950 
Q 3528 2456 3528 1547 
L 3528 1522 
L 1234 1522 
Q 1234 1063 1439 794 
Q 1644 525 2000 525 
Q 2231 525 2409 623 
Q 2588 722 2650 928 
L 3478 856 
Q 3306 416 2906 176 
Q 2506 -63 1956 -63 
z
M 1956 2891 
Q 1634 2891 1443 2673 
Q 1253 2456 1241 2072 
L 2678 2072 
Q 2656 2447 2464 2669 
Q 2272 2891 1956 2891 
z
" transform="scale(0.015625)"/>
       <path id="LiberationMono-Bold-72" d="M 3378 2650 
Q 3028 2709 2716 2709 
Q 2228 2709 1942 2340 
Q 1656 1972 1656 1369 
L 1656 0 
L 781 0 
L 781 2191 
Q 781 2428 739 2750 
Q 697 3072 619 3381 
L 1466 3381 
Q 1578 2975 1609 2669 
L 1622 2669 
Q 1778 3094 2043 3269 
Q 2309 3444 2734 3444 
Q 3059 3444 3378 3391 
L 3378 2650 
z
" transform="scale(0.015625)"/>
      </defs>
      <use xlink:href="#LiberationMono-Bold-63"/>
      <use xlink:href="#LiberationMono-Bold-6f" transform="translate(60.009766 0)"/>
      <use xlink:href="#LiberationMono-Bold-75" transform="translate(120.019531 0)"/>
      <use xlink:href="#LiberationMono-Bold-6e" transform="translate(180.029297 0)"/>
      <use xlink:href="#LiberationMono-Bold-74" transform="translate(240.039062 0)"/>
      <use xlink:href="#LiberationMono-Bold-65" transform="translate(300.048828 0)"/>
      <use xlink:href="#LiberationMono-Bold-72" transform="translate(360.058594 0)"/>
     </g>
    </g>
    <g id="line2d_12">
     <path d="M 17.1 36.975625 
L 28.1 36.975625 
L 39.1 36.975625 
" style="fill: none; stroke: #001c7f; stroke-opacity: 0.2; stroke-width: 2; stroke-linecap: round"/>
    </g>
    <g id="text_8">
     <!-- increase(counter[30m:1m]) -->
     <g style="fill: #262626" transform="translate(47.9 40.825625) scale(0.11 -0.11)">
      <defs>
       <path id="LiberationMono-Bold-69" d="M 2481 594 
L 3584 594 
L 3584 0 
L 369 0 
L 369 594 
L 1603 594 
L 1603 2788 
L 697 2788 
L 697 3381 
L 2481 3381 
L 2481 594 
z
M 1603 3991 
L 1603 4638 
L 2481 4638 
L 2481 3991 
L 1603 3991 
z
" transform="scale(0.015625)"/>
       <path id="LiberationMono-Bold-61" d="M 1372 -63 
Q 881 -63 606 204 
Q 331 472 331 956 
Q 331 1481 657 1754 
Q 984 2028 1634 2038 
L 2331 2050 
L 2331 2222 
Q 2331 2544 2222 2709 
Q 2113 2875 1869 2875 
Q 1641 2875 1533 2761 
Q 1425 2647 1400 2397 
L 484 2441 
Q 653 3444 1906 3444 
Q 2538 3444 2873 3134 
Q 3209 2825 3209 2225 
L 3209 1000 
Q 3209 716 3273 608 
Q 3338 500 3488 500 
Q 3588 500 3681 519 
L 3681 44 
Q 3603 25 3540 9 
Q 3478 -6 3415 -15 
Q 3353 -25 3283 -31 
Q 3213 -38 3119 -38 
Q 2788 -38 2630 125 
Q 2472 288 2441 603 
L 2422 603 
Q 2225 250 1973 93 
Q 1722 -63 1372 -63 
z
M 2331 1566 
L 1913 1559 
Q 1631 1553 1504 1501 
Q 1378 1450 1312 1336 
Q 1247 1222 1247 1025 
Q 1247 550 1622 550 
Q 1925 550 2128 789 
Q 2331 1028 2331 1394 
L 2331 1566 
z
" transform="scale(0.015625)"/>
       <path id="LiberationMono-Bold-73" d="M 3450 988 
Q 3450 497 3048 217 
Q 2647 -63 1938 -63 
Q 1241 -63 870 157 
Q 500 378 378 844 
L 1150 959 
Q 1216 719 1377 619 
Q 1538 519 1938 519 
Q 2306 519 2475 612 
Q 2644 706 2644 906 
Q 2644 1069 2508 1164 
Q 2372 1259 2047 1325 
Q 1303 1472 1043 1598 
Q 784 1725 648 1926 
Q 513 2128 513 2422 
Q 513 2906 886 3176 
Q 1259 3447 1944 3447 
Q 2547 3447 2914 3212 
Q 3281 2978 3372 2534 
L 2594 2453 
Q 2556 2659 2409 2761 
Q 2263 2863 1944 2863 
Q 1631 2863 1475 2783 
Q 1319 2703 1319 2516 
Q 1319 2369 1439 2283 
Q 1559 2197 1844 2141 
Q 2241 2059 2548 1973 
Q 2856 1888 3042 1769 
Q 3228 1650 3339 1464 
Q 3450 1278 3450 988 
z
" transform="scale(0.015625)"/>
       <path id="LiberationMono-Bold-28" d="M 2003 -1328 
Q 1513 -622 1294 81 
Q 1075 784 1075 1659 
Q 1075 2531 1294 3232 
Q 1513 3934 2003 4638 
L 2881 4638 
Q 2388 3925 2164 3219 
Q 1941 2513 1941 1656 
Q 1941 803 2162 101 
Q 2384 -600 2881 -1328 
L 2003 -1328 
z
" transform="scale(0.015625)"/>
       <path id="LiberationMono-Bold-5b" d="M 1166 -1328 
L 1166 4638 
L 3047 4638 
L 3047 4044 
L 1997 4044 
L 1997 -731 
L 3047 -731 
L 3047 -1328 
L 1166 -1328 
z
" transform="scale(0.015625)"/>
       <path id="LiberationMono-Bold-33" d="M 3516 1175 
Q 3516 584 3092 256 
Q 2669 -72 1922 -72 
Q 1203 -72 783 242 
Q 363 556 291 1150 
L 1184 1228 
Q 1263 641 1919 641 
Q 2247 641 2431 798 
Q 2616 956 2616 1228 
Q 2616 1500 2389 1644 
Q 2163 1788 1741 1788 
L 1434 1788 
L 1434 2497 
L 1722 2497 
Q 2103 2497 2308 2642 
Q 2513 2788 2513 3047 
Q 2513 3281 2342 3431 
Q 2172 3581 1888 3581 
Q 1619 3581 1444 3454 
Q 1269 3328 1244 3053 
L 366 3116 
Q 434 3675 839 3978 
Q 1244 4281 1903 4281 
Q 2366 4281 2705 4140 
Q 3044 4000 3223 3745 
Q 3403 3491 3403 3156 
Q 3403 2772 3159 2515 
Q 2916 2259 2463 2172 
L 2463 2159 
Q 2953 2103 3234 1839 
Q 3516 1575 3516 1175 
z
" transform="scale(0.015625)"/>
       <path id="LiberationMono-Bold-30" d="M 3472 2109 
Q 3472 1050 3072 493 
Q 2672 -63 1909 -63 
Q 1144 -63 755 492 
Q 366 1047 366 2109 
Q 366 3209 745 3745 
Q 1125 4281 1934 4281 
Q 2716 4281 3094 3737 
Q 3472 3194 3472 2109 
z
M 2591 2109 
Q 2591 2659 2525 2979 
Q 2459 3300 2321 3447 
Q 2184 3594 1928 3594 
Q 1659 3594 1515 3447 
Q 1372 3300 1308 2979 
Q 1244 2659 1244 2109 
Q 1244 1566 1311 1244 
Q 1378 922 1518 775 
Q 1659 628 1916 628 
Q 2278 628 2434 968 
Q 2591 1309 2591 2109 
z
M 1581 1734 
L 1581 2513 
L 2253 2513 
L 2253 1734 
L 1581 1734 
z
" transform="scale(0.015625)"/>
       <path id="LiberationMono-Bold-6d" d="M 1566 0 
L 1566 2056 
Q 1566 2522 1508 2703 
Q 1450 2884 1294 2884 
Q 1134 2884 1042 2590 
Q 950 2297 950 1819 
L 950 0 
L 234 0 
L 234 2659 
Q 234 3250 216 3381 
L 869 3381 
L 888 2984 
L 888 2834 
L 894 2834 
Q 1000 3153 1162 3298 
Q 1325 3444 1569 3444 
Q 1844 3444 1980 3294 
Q 2116 3144 2175 2831 
L 2181 2831 
Q 2306 3163 2479 3303 
Q 2653 3444 2919 3444 
Q 3288 3444 3447 3175 
Q 3606 2906 3606 2253 
L 3606 0 
L 2894 0 
L 2894 2056 
Q 2894 2522 2836 2703 
Q 2778 2884 2622 2884 
Q 2463 2884 2370 2632 
Q 2278 2381 2278 1878 
L 2278 0 
L 1566 0 
z
" transform="scale(0.015625)"/>
       <path id="LiberationMono-Bold-3a" d="M 1469 0 
L 1469 953 
L 2372 953 
L 2372 0 
L 1469 0 
z
M 1469 2438 
L 1469 3391 
L 2372 3391 
L 2372 2438 
L 1469 2438 
z
" transform="scale(0.015625)"/>
       <path id="LiberationMono-Bold-31" d="M 466 0 
L 466 653 
L 1681 653 
L 1681 3438 
Q 1559 3181 1195 3006 
Q 831 2831 431 2831 
L 431 3500 
Q 866 3500 1209 3690 
Q 1553 3881 1728 4216 
L 2559 4216 
L 2559 653 
L 3569 653 
L 3569 0 
L 466 0 
z
" transform="scale(0.015625)"/>
       <path id="LiberationMono-Bold-5d" d="M 794 -1328 
L 794 -731 
L 1844 -731 
L 1844 4044 
L 794 4044 
L 794 4638 
L 2675 4638 
L 2675 -1328 
L 794 -1328 
z
" transform="scale(0.015625)"/>
       <path id="LiberationMono-Bold-29" d="M 959 -1328 
Q 1459 -597 1679 101 
Q 1900 800 1900 1656 
Q 1900 2516 1675 3223 
Q 1450 3931 959 4638 
L 1838 4638 
Q 2331 3928 2548 3225 
Q 2766 2522 2766 1659 
Q 2766 791 2548 87 
Q 2331 -616 1838 -1328 
L 959 -1328 
z
" transform="scale(0.015625)"/>
      </defs>
      <use xlink:href="#LiberationMono-Bold-69"/>
      <use xlink:href="#LiberationMono-Bold-6e" transform="translate(60.009766 0)"/>
      <use xlink:href="#LiberationMono-Bold-63" transform="translate(120.019531 0)"/>
      <use xlink:href="#LiberationMono-Bold-72" transform="translate(180.029297 0)"/>
      <use xlink:href="#LiberationMono-Bold-65" transform="translate(240.039062 0)"/>
      <use xlink:href="#LiberationMono-Bold-61" transform="translate(300.048828 0)"/>
      <use xlink:href="#LiberationMono-Bold-73" transform="translate(360.058594 0)"/>
      <use xlink:href="#LiberationMono-Bold-65" transform="translate(420.068359 0)"/>
      <use xlink:href="#LiberationMono-Bold-28" transform="translate(480.078125 0)"/>
      <use xlink:href="#LiberationMono-Bold-63" transform="translate(540.087891 0)"/>
      <use xlink:href="#LiberationMono-Bold-6f" transform="translate(600.097656 0)"/>
      <use xlink:href="#LiberationMono-Bold-75" transform="translate(660.107422 0)"/>
      <use xlink:href="#LiberationMono-Bold-6e" transform="translate(720.117188 0)"/>
      <use xlink:href="#LiberationMono-Bold-74" transform="translate(780.126953 0)"/>
      <use xlink:href="#LiberationMono-Bold-65" transform="translate(840.136719 0)"/>
      <use xlink:href="#LiberationMono-Bold-72" transform="translate(900.146484 0)"/>
      <use xlink:href="#LiberationMono-Bold-5b" transform="translate(960.15625 0)"/>
      <use xlink:href="#LiberationMono-Bold-33" transform="translate(1020.166016 0)"/>
      <use xlink:href="#LiberationMono-Bold-30" transform="translate(1080.175781 0)"/>
      <use xlink:href="#LiberationMono-Bold-6d" transform="translate(1140.185547 0)"/>
      <use xlink:href="#LiberationMono-Bold-3a" transform="translate(1200.195312 0)"/>
      <use xlink:href="#LiberationMono-Bold-31" transform="translate(1260.205078 0)"/>
      <use xlink:href="#LiberationMono-Bold-6d" transform="translate(1320.214844 0)"/>
      <use xlink:href="#LiberationMono-Bold-5d" transform="translate(1380.224609 0)"/>
      <use xlink:href="#LiberationMono-Bold-29" transform="translate(1440.234375 0)"/>
     </g>
    </g>
    <g id="line2d_13">
     <path d="M 17.1 52.729687 
L 28.1 52.729687 
L 39.1 52.729687 
" style="fill: none; stroke: #b1400d; stroke-width: 2; stroke-linecap: round"/>
    </g>
    <g id="text_9">
     <!-- increase(counter[140m:1m]) -->
     <g style="fill: #262626" transform="translate(47.9 56.579687) scale(0.11 -0.11)">
      <defs>
       <path id="LiberationMono-Bold-34" d="M 3063 897 
L 3063 0 
L 2225 0 
L 2225 897 
L 222 897 
L 222 1556 
L 2081 4216 
L 3063 4216 
L 3063 1550 
L 3650 1550 
L 3650 897 
L 3063 897 
z
M 2225 2834 
Q 2225 3003 2236 3200 
Q 2247 3397 2253 3453 
Q 2172 3278 1959 2947 
L 959 1550 
L 2225 1550 
L 2225 2834 
z
" transform="scale(0.015625)"/>
      </defs>
      <use xlink:href="#LiberationMono-Bold-69"/>
      <use xlink:href="#LiberationMono-Bold-6e" transform="translate(60.009766 0)"/>
      <use xlink:href="#LiberationMono-Bold-63" transform="translate(120.019531 0)"/>
      <use xlink:href="#LiberationMono-Bold-72" transform="translate(180.029297 0)"/>
      <use xlink:href="#LiberationMono-Bold-65" transform="translate(240.039062 0)"/>
      <use xlink:href="#LiberationMono-Bold-61" transform="translate(300.048828 0)"/>
      <use xlink:href="#LiberationMono-Bold-73" transform="translate(360.058594 0)"/>
      <use xlink:href="#LiberationMono-Bold-65" transform="translate(420.068359 0)"/>
      <use xlink:href="#LiberationMono-Bold-28" transform="translate(480.078125 0)"/>
      <use xlink:href="#LiberationMono-Bold-63" transform="translate(540.087891 0)"/>
      <use xlink:href="#LiberationMono-Bold-6f" transform="translate(600.097656 0)"/>
      <use xlink:href="#LiberationMono-Bold-75" transform="translate(660.107422 0)"/>
      <use xlink:href="#LiberationMono-Bold-6e" transform="translate(720.117188 0)"/>
      <use xlink:href="#LiberationMono-Bold-74" transform="translate(780.126953 0)"/>
      <use xlink:href="#LiberationMono-Bold-65" transform="translate(840.136719 0)"/>
      <use xlink:href="#LiberationMono-Bold-72" transform="translate(900.146484 0)"/>
      <use xlink:href="#LiberationMono-Bold-5b" transform="translate(960.15625 0)"/>
      <use xlink:href="#LiberationMono-Bold-31" transform="translate(1020.166016 0)"/>
      <use xlink:href="#LiberationMono-Bold-34" transform="translate(1080.175781 0)"/>
      <use xlink:href="#LiberationMono-Bold-30" transform="translate(1140.185547 0)"/>
      <use xlink:href="#LiberationMono-Bold-6d" transform="translate(1200.195312 0)"/>
      <use xlink:href="#LiberationMono-Bold-3a" transform="translate(1260.205078 0)"/>
      <use xlink:href="#LiberationMono-Bold-31" transform="translate(1320.214844 0)"/>
      <use xlink:href="#LiberationMono-Bold-6d" transform="translate(1380.224609 0)"/>
      <use xlink:href="#LiberationMono-Bold-5d" transform="translate(1440.234375 0)"/>
      <use xlink:href="#LiberationMono-Bold-29" transform="translate(1500.244141 0)"/>
     </g>
    </g>
   </g>
  </g>
 </g>
 <defs>
  <clipPath id="p658acf23e9">
   <rect x="7.2" y="7.2" width="669.6" height="277.2"/>
  </clipPath>
 </defs>
</svg>
